<mxfile host="app.diagrams.net" agent="Mozilla/5.0 (Windows NT 10.0; Win64; x64) AppleWebKit/537.36 (KHTML, like Gecko) Chrome/129.0.0.0 Safari/537.36" version="24.7.17">
  <diagram name="Page-1" id="bRRyLuodSwNlFJN40b16">
    <mxGraphModel dx="2634" dy="1585" grid="1" gridSize="10" guides="1" tooltips="1" connect="1" arrows="1" fold="1" page="1" pageScale="1" pageWidth="850" pageHeight="1100" math="0" shadow="0">
      <root>
        <mxCell id="0" />
        <mxCell id="1" parent="0" />
        <mxCell id="VWiSSEUOja8FaHloWDly-1" value="" style="shape=image;verticalLabelPosition=bottom;labelBackgroundColor=default;verticalAlign=top;aspect=fixed;imageAspect=0;image=data:image/png,iVBORw0KGgoAAAANSUhEUgAAA1sAAAKlCAYAAAA90/bYAAAAAXNSR0IArs4c6QAAAARnQU1BAACxjwv8YQUAAAAJcEhZcwAADsMAAA7DAcdvqGQAAP+lSURBVHhe7J0JvJRj+8dvf/u+V1KREG1KijbtC0p7CCktkkJa0SJLSVlaVFLSjixpI7RImxSltFhKWkWUfX3fv+9l7t5xnHM6M2fmzPb7fj7zOWeeeeaZ7Vnu3339rus65L9/4YQQQgghhBBCRJT/C/wVQgghhBBCCBFBJLaEEEIIIYQQIgpIbAkhhBBCCCFEFJDYEkIIIYQQQogoILElhBBCCCGEEFFAYksIIYQQQgghooDElhBCCCGEEEJEAYktIYQQQgghhIgCEltCCCGEEEIIEQUktoQQQgghhBAiCkhsCSGEEEIIIUQUkNgSQgghhBBCiCggsSWEEEIIIYQQUUBiSwghhBBCCCGigMSWEFHiv//9r/vPf/5jf/3/WcU/RwghhBBCJC4SW0JEiYULF7qWLVu633//3e3evds99dRTgUcOzpIlS9zs2bMD94QQQgghRCJy6H1/EfhfCBFBdu7c6TZu3OiOOOIIlytXLrdp0yZXuHBhN2LECDdq1CiXP39+W2fatGlu3Lhx9v/EiRPdIYcc4v7v//7PLV682B474YQT3J9//un69OnjfvnlF7d//37Xu3dv98UXX7giRYq4I488MvCKQgghhBAinlBkS4gogWCqXr26++ijjyyyBatXr3Znnnmme/TRR90rr7ziduzYYcs7depkIqpnz55uzZo17ueff3bHHXecu//++92qVavct99+6/LkyeMqVarkXn/9dTd48GB30kknuXXr1tnzgwnVsiiEEEIIIaKDxJYQUeTwww83wTVv3jyzEyKaEEnciFgdeuih7pxzzrHo1xlnnOGOPfZYe85hhx1my4866ij366+/WmTrrLPOMiG1detW17dvX7d27Vp3zDHHBF7pf+zdu9f179/fnieEEEIIIWKHxJYQUaZo0aImnjZv3uwKFSpkIunVV1+1ZUcffXRgrX+CMGO9BQsWuNNOO+2AqEKMlS1b1tWrV8+dd955JsbScvLJJ5u9cOrUqe6PP/4ILBVCCCGEEDnNIf9VyTMhosKePXssx4rcrG+++cZyrC666CL33nvvuQ0bNrhGjRqZXfC3336zKNfXX39t637yyScmmMjh2rJli6tRo4ZZEnmcaBd2w+nTp7tzzz3XXXbZZSba0oJY6969u7v55ptd8eLFA0uFEEIIIUROIrElRJKCUBszZozr2rWriTchhBBCCJGzyEYoRJJSsGBBi6RNmTIlsEQIIYQQQuQkEltCJDFXXnml2RmxLSqILYQQQgiRs0hsCZHEUD6+ffv2bsiQIZbrJYQQQgghcg6JLSGSHPpz1alTxz3//POqTiiiDsVZPvvsM/fTTz8FlgghhBCpi8SWEEnOIYccYmJr27Zt1jBZiGhBM+05c+ZYM24ab//444+BR4QQQojURGJLiBSAflxt27Z1Y8eOdT/88ENgqRCRA6H1wgsvuHfeecc9/vjjLnfu3G7QoEHa34QQQqQ0EltCpAj08LrqqqvcpEmTzOolRKRgf5o5c6b1kOvRo4c75ZRTXKtWrWyfQ3ApwiWEECJVkdgSIgpQ+e/XX391f/75p90nV8r/nx48xoCUKAC3aIghGiPXqlXL+m998MEHgaVCZA8iWrNnz3ZvvPGG69Onjzv99NNt+RFHHOFuuOEGly9fPlkKhRBCpCyH3vcXgf+FEBECodWtWzcbiJ5//vk26//LL7+4M844I7DGP3n//fddly5dTAQtWLDAmhATFYg0hx56qLvwwgvdxIkTrQfXMcccE3hEiNDx1sHly5dbntaJJ54YeORvDjvsMFeyZEn3ySefuLlz57pLLrnERJgQQgiRKhzyXzXfESLiIKwefPBBi3D17NnTzZs3zxUoUMB9+OGH7tNPP3XNmjWzaMDnn3/uGjRoYNEAile0bt3ans8g9pVXXrGiFh9//LErWrSoPfeWW25xmzdvttuuXbts/WLFitlzQgHxt2nTJte1a9fAEhEvEOXcuXOnO/PMMy0aGa8QfWUfXrx4sVkHfUQrPX777TcT+Fu3brV1jz322MAjQgghRHIjG6EQUeLUU091l19+uQkbX3L922+/dVdffbX1v6JoBbYrCgogzqZPn25i6q677jKBRV+s4sWLu3r16rnDDz/ctWjRwgar3333nQmsNm3auHfffde2GwxCjcFtZlSvXt0Gy0TUNN8SPnzX2OO4+e+d79PbRolwUgKdG8v9+tznf/84vz/3eQ7bYD/hPo9hK+X/tM/l9+N+NCynB4PXR2i9+eabrlevXpkKLfCWQiYcZCkUQgiRSshGKEQUYLC9atUqV7duXSsaQBSqUKFCJqAuuOAC9/3339utVKlSbuXKlTYIzZUrl4mv2rVrW4EBIllY/RiQH3nkke6EE06wgTcDcyJdRx99tEWnypQpE3jVv+E1HnvsMVe4cGETdemBeMNO+Mgjj7jy5cvLThgm2D6HDh3qFi1a5PLmzWu9zBDIRDL37dvnRo8ebWL61VdfdWXLljVx+9RTT7lZs2ZZ5GrYsGFu/fr1th3E+caNG+1/bscff7yti6Chst/27dut2MRrr71mFtO33nrLokVsJyN7ajRAaHnrYL9+/dxJJ50UeCRzsBSyP8tSKIQQIpVQZEuIKFOjRg0bZAfDAHndunUWzSLChXDCGjh//ny7YS/MCAa7DOa5UXwgLYiyK6+80j3wwAMm8jKCwX2jRo3c1KlTDxoJE+lDhIacJKygCKK0IGJvvvlm17x5c7ds2TITSKVLl3ZnnXWWiSx+d6ygiBBspDQDRpQDwpp8v4YNG7qCBQva/tK+fXvbnt+frr/+ehPsOQVRtBkzZtgEAXbArAotDzmDLVu2NLE4cOBARbiEEEIkPRJbQkQBLGNEjBicYrHCGkjRCwbmiCsiS5RhJwJWv359W4eBNbP+3Hbv3n1gXaIW55xzjokj1iGPh/+JfFx66aWBV/wfPM4AnMqD48aNy3BAS7PjatWqWQSGwbMIHX4jIpJELxFKCGFu2ACBaA7RG8Qs+wK/DSKKKNh5551nYoWoJQILYRxcRKVIkSImstgf2D4WQ/Ybtuetn0RAcwpvHUQw9u7d+6DWwYzwlsKzzz7bLIV8H0IIIUSyogIZQkQBLFYvv/xy4F7kICJQrlw5K6BAYQIG8/379w88+m94D+R5de7cObDk37Atogw4ihGEIusQXVyyZIn9Do0bNzZ7HDZO8qqIdlHkBCsnguKOO+5wH330ka2PGENkr1692vL0EGFUr6xataqrWbOme/rpp812yPYQ1QhntkEkFOGGWNmwYYMJekRbtEFoYZHEGkuOVqgRrfRAPNJkm/2PQi0ZWV6FEEKIREZiS4gkhmjKSy+9ZHlf1113Xbo5MpwC3n77bcsTuu2225RHEwIIH8QC3xk2Qr7nPXv2mECi4t6oUaNMQOXJk8ciYEQyiWBhp+M+UUdsn0QZEWlEubhRBIXnexsodlEED/cRZmyP5xL5jPbvxT5Ejhki8WBVB0OFbZN3Ru83qnaqSqEQQohkQ2JLiCSHAT4FMyjMgXWRgX5aGPQS3apcubKrVKlSYKnILlgAiUYiihIRok/kaBHBe+ihh/7VRysSIFAnTZpkbQ4U4RJCCJFsKGdLiCQHi1vHjh2tQAM5N+lBLlC7du3s8S+//DKwVGQXLH6JKrSIpFF1kIhWtIQWEMmjaAZ5bFRbpEqnEEIIkSxIbAmRAlAV7/bbbze7IHk3DKTTgq2NsvPk0SjgndoQ6aRcPVUPsfdFS2h5iLa2atXKqjQSYVXRDCGEEMmCxJYQKQJV7iiUMWXKFOvZlB4U3yASs3TpUgmuFAXrIDlatCCgGMZpp50WeCS6EF2llD2VN1WlUAghRLKgpsYi4aAM9oQJE6waH/2oKIfOQC09iOBQ8Y08EOxK6cHjFB5AjGChQ4hkNsCkPDcz/hREoFhBWqg0R64OkSIKH6QHQobKdDyek0UBKMZw7rnnWvSKHC4KOQSD5ZCGyeR4UQ1PBQtSC/ZLqg6+++67Vp0yElUHQ4H9r0SJElZG//XXX7eG3SrYIoQQIpGR2BIJx5tvvmn5HZTIRmghIKhmRjU9xAOWOcqdM2BENDFoo2rcV199Zff5f+HChW7Hjh0mmOgbhGWKnlWIro0bN9p2ef6nn35qvYwQc4gj7vMc8koQcDQi3rRpkw1SP/zwQxNPNKpFkPEXYbh3717ri0UBgI8//tjeK+/jmWeeseIVFFAgksQ2WZ6egIskfB7ez/jx460fF+8zGAa3fKeUHedxBsAi+fHWQfZZrIM52cMrGPZ/BBfH8MyZM030S3AJIYRIVCS2RMKxZs0ayyHBbsRf7EY070VErVixwsQLQuHnn382QUW0CvFDoj8CCVFGee5169YdEEZEcL7++mvrM/XNN99Y6e21a9eaQEKkIYrIdeJ59FCi2ATCaMCAAfZc+ilhv6O/1plnnmmPf/HFF3ZDSCFennvuORvQEpFjIIuoQ/Qg4hhYItZYzze1jSZE3WDq1KmudOnS/yjigGD0ApDvlO9ZJDdYBxE2TEJwSYiV0PKQw0VTZ6LMr732mu2jGUWmhRBCiHhGYkskHESciFatX7/eBoUIoxdffNEEA1EmBBUi7JprrrEIFaKpRo0aJmSYNS9cuLCJst27d1tCPoKCqnFY/9gGgogoF6IIoUakDMF10UUXubp169prItgKFSpk69arV8+sg02aNDHhhDghekWEAGHm+y4h/shJ4f0h3hg8so2VK1e6W2+91ZYjwHgdhB9WxQIFCgQ+dWRBUPHZEZMMsC+55JJ/RLB4HLsh0a+SJUvKTpjEEJVlIoD9tW/fvjluHcwI9sfixYvLUiiEECKhUYEMkXAgfm655RYrR80ADNFCYYfmzZtbCWmariKg6N+D7Q985IYoFgPLK664wkSEh8evvvpqe4zmsvzFvlSxYkUTaDzONnmM2XZfPAKBlJ7tD7GCUGrQoIG9J2bmGSimnZ3nuSwnOkdEzQ8m+Uukq3///m7Dhg0HXi+SED1A/PF90eco7WuwvGnTpu7pp5+2700kH0wWEJUlb5GGxdEWWkwyEMUlkpYVEFwcP2effbZ7+OGHVTRDCCFEwiGxJRIOBEtwFIYIDEKBHj3Mgl944YVm30OQUUADoeRFDbZBbH5jxoyxHCkKaLCcnCwGdOXLlzcRQqSLnCqiXTxO5IceVH369HE//vijCT7W89vmr8/XYjlRNJoDU/mPggO8Px5jHV6LG9sgwsZ6bBfbnm8ozPOJdnEfqx8RJl430qKL93Httdfatt94441/lITnvSISEZTvvPNOVASfyBi+byK1O3fudKNHjzYxRITV/w78VuwzCCVEDBZWxFNWCbYOpld1kG0SlSVyzGsRpfV/ecxPEPCX9+TX5z7r8Twe9/stkxWIdpazLo8REWZd3jfPZRn3g2EfZSKFKLD6cAkhhEg0DvnrIqgRlBBxDPZDctAoxd2oUSNXpUqVwCORg8Eu+WeVK1e2WzAMgHmMPl3kcomcAfFBfmK+fPncokWLzFLHsvr169vj5Bw+8cQTZm1t2LChCS+KtyBKDganfUQ8dliEVto+WggxcqXmzZvn8uTJY4KcCBi9sCZMmOBq1arlhg0bZgINUc7EBu/R5ye2aNHCPfroo65gwYL2Wkwc0OONiQsEJFFlysszMdGmTRubdPC227vuusvsv2lBoJGbSWS5a9eu/6qkKYQQQsQjEltCJAAcpkQ4Xn75ZYsGYP8jEsdgNVLs27fP+hvR2NhH2DwMhOfMmePuvffepK1OSNVI8uRCiQ5FE8QE0VAiPfz2CBcETceOHe1xokQzZswwcYMtlqguoiUrDYjJV0RokbJLkZa0IGzY19i/yEHktZ999tl/iC2stghw8qnYBuKpatWqZn8lIopQvO2222y/QaSznPfJej76TP7kxRdfbNZC3j/rsA1swenBb8P74P337t07sFQIIYSIX2QjFCIBIHqA/ZEIApGMJ5980uyJkcxhIV/npptussE0A9/geRiKdjCgJrqW1uaVLBB5oeIkdrd4uBHlIRKETdVb9Xw0x1tWg/MFuY/FLr1tpb0hWnhu8PODQWRVq1bNrK58J1T1JNrF8xDlwHN5H9gE2Sew0vIeqSKIQMN+iuUXMYUNlfdOtU8oVqyYTRZggSRCR8l5PiN5lpnB6/HesprzJYQQQsQaRbaESEAYlDJAxbbVrFkzK+YRqYgTeWo0NSaPLLgMPYN/7Ft33313UtoJJ0+ebII2GjbNcECIEMWkCMzAgQPt96XiJQKGaBbl+6dNm2aihogRkSryodLaQNMDcUQ+IZU677nnnn9FwxBVbJuKn+wD2FfJG+NyQVSpc+fObujQoWYxROTdeOONbsGCBfYeEENUAiUXrF27dvac1q1bWxSMhtlEprA6kmPGZ2H/pZoo6xFR4/tP7zMgsMhdpNJn9+7dZSMUQgiREEhsCZGgMGAmn4pBMANxcnmwZWUXTglEM7CHdejQ4UDPJZZjJ2RQ3alTJ4t6JBNE9LDLpbVQxgpy9WjgjfhAaHDjt6CRNt89jb0RwESYiIBRwIWWBb6H2sFA2JCHhWC///77/yVeEPQU5GA54o4IFjcEEs9F+FCtkvdEawAEGjll/M/6vH/fMgAR6IvK+Igd+y77Lc9nmW8UTkEMomTB8F5eeOEFawqO4M+KVVIIIYSIB9RnS4gEBUsVA9jLLrvMBq0MRhnAEp1JO1gNBbbLQB67GQN434OL5Wyb6AWDcPJukgnytSh3Hy9RO0QHtjuECeKC35rfgPsIIIQL6/DbIISJMBFpysgamBbWo+omAop9B7sf2/CwXUSTr7TJ6yKGuM9j7At8V/5x3g/re3sj67OcG+vwuN8O/7OttJ8pbaVRQNiRH0aUjagqryGEEEIkChJbImmgETBRHooEEKFI24iXQSVCgUIIDPaSpVEvn4VBL4UFaJA8ffp0G4STE5Md+A6xsSG4KHjgB8EM0BmcI7aSaeCL2KKaH9X/4gX2UYRIMF6sBINgIecuq0LLw3b4HWneTUEM7KhZEeo8DyEY6uuFCtE8n0OI0JJ1UAghRKIhsSWSAmxK9M4iqR8xgAWOQSR9trBJYXFCgNBLigR/BqYMGKnuhh2PgSMD1kSGgS+FLMiLwepHMQssZWn7J2UVvg8KHVAhjspyJUqUMMFF5ILtjh071vqS8b0mA1gkEVpE9VIJfmeKWnAMTZw40X5TIkyxBusg5ekRWt26dVNESwghREIisSWSAiqaMVisU6eOWcGIUACJ9wgEKs0hFujxw8w9AoQ+QggUBBdRIARYosPAmUEpEQpEJEU0KBuOaEIUhSooEaRUjqPfEhFBBCzb4PujUAHRRMRtqNuNRxBbRAiDi4KkChwH3lJIlUsimcGWwpzGWwc3bNigiJYQQoiEJroeECFyCHoOITIYNHI766yzLPpSoEABy/Wgghriw7N//34TYERsSLqn509mUDktkcpN8x1QWIGBKuKSv4sXLw48Ghrk1VBJ7qOPPnLvvvuuLUOENW/e3KJniK5kgN+Xz5WqYE+k4AXNk6l+yDESC7x1kKqYVEokt0sIIYRIVBTZEkmBtwRioUNUMSvOXyyElKFGEFAAAGHlI1tUS2vRooU7//zz7ZbZoI6y4NiaiBAlEkSziEYR1SM69dZbb1n0hoILoUSj+M5KlSplg2AslxRiwGpGFAjrWcWKFf9V2CDRWLZsmZUkz2o1v2SEfYJjCKHFb53TlkJZB4UQQiQbElsiKfDFLoYPH27lssldQmDMmTPHffrpp2aJwg63a9cuE1XYBonYUL4aKxy9jDIrmMEAFEse4oUqbIlkm+O9MmhFbGLHIrcNyyVRv1AG0giuCy64wAbh5DUhWGl0TF4c3yuCNZHthIgtrHTYUFMZoqL8lpRjz0lLoayDQgghkhH12RIiiyDKHnroIde+ffuI9LOKFUT0qFiINfL666+3wXQo9jnshE8++aTr27ev5caxPaIQd955pzv33HMDayUegwYNsl5lCA3xv8bHFEi59957o9rbCusgzY4R7mpYLIQQIpmQ2BIii3CokPtFA9jbbrvNImWJCgNpyrqPGDHCIlYNGjSwqE5W4LmUSX/mmWccgXEiQWvXrrXIX+fOnbOcY7N69eq4yvdCgNKzDItkPIC4KVeuXEwLVSCCaHxMvh/7fTRsfVgHiWhhHaRhsayDQgghkgnZCIXIIljkmHEnpwf7IWKL+7GyzlHOnupx4eTU8J6xUTKYJ6qFXYyS+NgDEV+ZwXMRJIhP8sBKlixpeWBUeqSoARbOrPD000/btrAiku8V6xu/JxUp03ssFjfEHw2lYyk+sBQSrfSWQqyo7DeRgn2YHK2NGzfKOiiEECIpUWRLiDBYsmSJlZUfMGBApuJk27ZtbtSoUfY/TYJbtmxpoobqhwxcQ4XCBRT5IMeMUuWUdcf6ll3Il8HGhViqV6+eFbzICtOmTbOGuB07drT39sgjj7g2bdrYZz0Yjz32mLvyyistD0z8GyJJN998c1w0WSaaiSiiemekLIWyDgohhEgFFNkSIgwYAGOXe+GFF6xKH2Wz04MZe4pRMGhmcEmpdKoDIm4QXfQHwya2efNmE09U+qNQB0U9Fi5caBEkogtUVUS4Ydn77bffLBqE0MIKSJn7b775xnKpsObxWKjRB16DCBWFQGj8TFl88rHYVmaQu8ZgecWKFZb7xXsZOnSoq1SpUobficcXpAi36XKyw2/AvhUPtjoikOwb33//vUV1K1SokK0qhVgHqfDJvqOqg0IIIZIZiS0hwoDBJ8Jiz549VmiC3kRYv9KyY8cOG6Bi18Nqh9jCqvbBBx+4VatWWX8wBM1LL71kg1f6WFFenobLiC5ymhBSiDFeC6HFcxFoiCJec+XKlfY677zzjm3vq6++CiufjM/EoJeGyAhDbGxErajciHDi8bQg0hBMfC7EIxE3mh9v3brVIlY8nhESW5kTT2ILvKWQfYwcq3Athd46SIS2Z8+eimgJIYRIatTUWIhsQE4NUR0shQdz5CJWsGP59RhkIsIQKUS1sGghnPhLXlijRo2scAVNmS+//HLXtm3bA0UsvJWQaoI//PCD5V3RxBhbHq+REQzgEXQMeDOCbVWtWtUGwgywe/XqdaCZcXogEikYQp8z+ng1a9bMBCg5XCK5QHSzX9JWIZzGx4h4WgcQuSVHSw2LhRBCJDsSWyJuwJJHaXUGZAzUX3755cAj/4bCEDfeeKPZ8xAhWJIyExBpodcUEaBQ4H1t377d+niNHDnSxMi4ceOsXxW2wIOBDRB8jhcihcEr0QFE0u233+5uueUWd8opp1j0AKsVPYdYjwIF5HkRaQKiHdgTGezyGNvJStU6IhOIQ/JuyCWjimBG3xuRNYQT+TTkqPHbYPtKT8wxaMYOhvWR99y6dWsbVPPeRHKBAL/22mvdpZde6vr06ZNlwcX+TANs9mPlaAkhhEgVZCMUcQP5TUR1qIjHgA5rHBY6BA1QvIHZdIQN1jZylPr16+caN27sFixYYBEZykeTvI/FjiIN2J2eeuopG9gxKBw7dqyVLWc5tj5EDf2iWMZsfbBgQVwhaHgfRGx4DtY/1sGmd8UVV7irrrrK+hBhvTvjjDMCz/wf9OaiJxURJd4vIgRhhNWOv7wH7IhEhWbMmGGWuvLly5vFjvfKZyAvikICvEeseQhNClhgNaQPEgNfBBnvC9FDpCyjohOINAbJVAwkwsb3NnfuXPsesDfynoJ7bnlrIflYiC/KvfP65KzxmsHw2rxXfi8+A9tENBcpUiRdO6FshJkTbzbCYPg9+e3osZYVS6G3DnIM9+jRQ0JLCCFEyqBqhCJuoE8TkJ9EgQWscuQkMcjHrscgHrFCVKlJkyZWrQ2Bw8CPAT03okfY6YiSVatWzYQEYgThgiAiMtOuXTs3fPhw17BhQ3sttj1z5kwTcKxD0Qlsc1jhyJFiEMmglwFlWkGF8GB2n6jPwUqmxysU2mBgj2g8/PDDXa1atTKsRsjnpe8SdscWLVqYaAsWZ4BFjN+KqoQITaKP/DZpUTXCzImnaoQZkZUqhUxaMFlAHh/RTwktIYQQqYQiWyJuIApClIMICxEkxAtii+gOA3qEESIAGxJV+4g4kStUs2ZNE0lEwbgxOKXKH3lPRGKICCHIiCARJWBGHisdg3xeZ/To0bYOFdbOPPNME31EZSipXqdOHRNv559/frqDRIpVsC65V4kKn4tIHd8t3w2VD7FlYpnke8PW6AUVkS/WJV+Mdfj++J5Zx8P//D5Yxog6Is4QqmnFqCJbmRPPkS0PkU+qFJI3iKAiohn8O2MdnDRpkoSWEEKIlEU5WyKuYHDvo1pU3/PLGHAyoGNwj+iigh9RGAb1DO75n4Efz0NoYRmkbHr16tUtkoWwYh22BUSsyNkiEkauFOKBGXgCvUTCuGHxI6qF0EivEh/wWgw2Ex0+H4Nkonvkjd1zzz2W34V9kojF66+/7nbv3m12ML5DBBJ2MCyJ5L8hqIJzd4h4IVKxRmILpR+XSE44PujNRhEXIrxYZMFbB4l0SmgJIYRIVRTZEnEDgzYG8YgnelExSCdKRW8plhNBmTdvnuVJFSpUyHKGiFb5kusILwZ6iCYiAt6eRgSFgSBRK9bhhnDjeURWsAsyI09fKaJqGQmr9CAKRuU+npcs8PmxbiK8iNghnBCVs2bNsqgX3zvflf/+Ecd8hwgr8rb4zRBkRCQRs9gUEc4UEgnu26XIVuYkQmTLw7HL8UaOIm0MsOYitLDtKkdLCCFEKqOcLSHChEp7RH0efvjhfxWLSDY4TRAN3LVrl4kuoovkYWHfpCgGUUMewzKGWCOnjn5hPl/HC67+/fsfGHgrZytzEiFnKy383vRno5IoQrpLly7/EFoUnKHADXmRWHDJq2RyhdwvbMSIdSZFEGkIc3rUJdLnF0IIIdKiyJYQYUI5dKx3zOInOwgoIoFE8LBccsMmRiNlLIYIMYqHYB0EBttEOYiO0fCZXmHk2pHDg+2SyJciW5mTSJEtD78rvymFaR544AETTx5+e44ZxBW2U6JhiCqi2DB+/HgrvELly9mzZ9t+QV4m8B2EEnEWQggh4gXlbAkRBszE02+rRo0agSWpA4Neog7YJ8nFueOOOyxSQeXBAQMGWBGNzp072+CasvqU9CdvjggFVSIpgS+SF6KcCCmsqMEQ3QSipNywAyPAKTAD5EcisFavXm332QZCjIbfWeljJ4QQQsQjEltChAHiwkdzUh3yt5o3b27CinLvDJYRXRTMQIwS+cIySINk8uWwEmInyy4IXnLJ6PNEfhD2RnqM0TvMN6zGhkajZV6PqArrcUPwMcinqbMfyPN+aQHg1yEaB6xHYRbEIyAe/TpeGACRPCJ69D+jRL74JxwzPr8SIQVpXezkB2I3JacS6B3Hd4k9UQghhEhEJLaECIMvv/zSCnfI2vQ3fA9EtCiC0aFDB9e9e3ezwCFYKFrC4Hnw4MGWn4U1jDyu7EYrGIDPmTPHRC+VJ4mKkEeHCEJgIcYQU8OGDbNKihQz8dETml5T2h5x5EUU9xcvXmzb4uYjMxs2bLDnUlUPccA6tBigYAtWP9oGsD9Q6p7nIM6I4Pntir9BOPGdYAnkt+d7Iz8L+N2AdRBcRLP4/VgfYeariAohhBCJhq5gQoQBA3CEgwaB6YMQpW9Z165dzWpYsmRJW4YIYRBNY+otW7YE1g4fIiUU6cDSeNlllx2okEh0hAE8RRcYvCMGEUL0EuOGUPP2tWAo98+2uLEdoEcUhRwQbrx3RCV9w2grULt2bRMG3Mg14j792dj+Z599Zs8Xf4OwQnQjeIl4EiG8+uqrLQqJkKUiKBVIqWJJ+wGsqnz39LjDmiiEEEIkIqpGKESIcMhQhZCGyn5mXmQO3xkFNRBBlAanNxeChMhSuNUI2d6gQYNMBBEtYTvXXHONe/75560CXokSJcwuiA0NEfToo4+6n3/+2QRZ06ZNTYQh+hCECDHW5XfFFkmEpVWrVtZrjBpCtBpAPGGV9JX2KIuPYMQ2SLSM6ou+WAp2RCJf9CELlzvvvNNel4ISiQYFMF588cXAvb9hH0D88t16IQvYC3ks7eckqkXzcUS0xJYQQohERWJLiBDBBjdixAirtqbIVtbwTaTJsXr33XctP4pBNnbD7IgtLILB5eOxLE6ePNmqJVIRj2gTRRhq1arlpkyZ4jp27Hig1xfvh98xWGyR78U6wKkRm+CHH35owoxIDJUVP/nkE4u2IALoO0aUk/tYC2nui0jgtXhNbJXhQkQQsUZEMNGgCiHfvRBCCJHqSGyJHMPn0BDRwIaVVcjvYFDL4M3n0WQXSpZjbQun2SqDeAbW1113XWCJyAhsYwgYfj8sf4giRAoRm+z22UJskQeG+DnxxBMtukVki8bX9Pm6/fbbrVfV/PnzMxRbvkoiURWsg1RU9H2dsLURzWKbWNv4nz5iCAlsg+R1UfCDbfD6RNTIUUOAsy1eMztiPBH7bAkhhBDin0hsiRyDHBqiDuTKtGzZ0vJosBVREpoSzwxoqfr28ccf20CXnk40PkWkYT3D1oVtj4E7A2ZygliX4gSIMHZltk2vJ8QQRRKIOLBt1qMAAoNfohP33HOP5YXQ8wnLF4N/oiFZGRxjR2MgzXbEP+G34vfkdyRSRIU+7Hb8JvyeCC5fVCS7YovfG8HFDdguFkHeA6/Dcv4i7imygGjHjuZf3+8vrM8ycrGIwPlTon+v/jks53H+96/JYzwPeB2iWjzO+8hu1FNiSwghhEh85IESOQYDb0QSjW6xdmH5QrgwiJ0+fbpFBbBqMShHXGHPomw4UQciUOR6ECUhwZ6/mzdvdhMmTLCB77Rp0yzyQBSDRqmUA0eA0RwVQUfEgnwdGunyPCISDJJppMrgeNGiRW7NmjUHBtoZweNUtiOqIf6G73/Xrl323T/yyCNmzUPYNGrUyD300EOWH4UVLljoRAK2xW/I78yN/QJR5V+HxxA83Ocv94Nfn//Zp/xzEVf89dtDMAU/h79+mV+H/z28Ns9nm9kVWkIIIYRIDjQiEDnGypUrD/QnWr58uS0j6kFlMgaoDFQRZBQcoJACg9siRYrYjdl9olqIHJoJI8yIIlCYoFKlShZlItKFkPNRLcqCExlD2LEcaxcFDBhUU8wA6xc2NyqiEUkj+nUwWB/h4K1oqQzilRLqFI0YPny4fc9U4qOPVuPGjS1ixe8qhBBCCJGqSGyJHIEoFpEqBuVDhw61+zSgJQqFvRCBROUxKsF16dLFogY+8uAjC6xHwYK77rrLejj5SAPiKRgiGRQW6NOnjxVgwEZ41FFH/Ws97hOpovEt1resCAPydXj9g0UuiLwRdeOGyMRilhE8hnj01rS0ECXCkpfR4zmFj+oRLRw4cKC7++67TRTfcccdVrHvpptusu9aCCGEENGHCWomig/myhGxRWJL5AgUI6CMNlEhbIHkZ1HYAKHDwB3xRAEMIl6U1kZ0YdGi6AH2LMQXUSqiURRF8GKMCBN/sR4isrAHsgyxRbVArG0IMl4TgYRYQlSRe0Oxjpo1a7qePXtaCe/KlSsfEHYZweNpRVt6YH/kvRNB4/1wIiTyw2cmIsd9eghxn7yhWbNmHchfA4Qolft4DusT7SOShNjhOSwn14iy5lgvsfEhRqmUyGfh82GXpH8RYo3HWI+8NeB75z6iN7OTNM/lNbFZkmOF7ZPoXt26dS2CdcMNN9hvFWmLoIgt7FtLliyx4zYrsM9h5RVCCPE/OJcyQUn+LcWUsNpzfd+2bZvlNvN4qHBNJiWCiVrSH2Rbj39UIEPEDMTGW2+9ZcUyEFTJBEKvdevW1qQVEDZUskOQIAQpzEH1OoQUDXPJUcPqyHr9+vUzqyUijMhRp06d7PFrr73WPfzwwyZUmcnq1auXVUZEMCHSeJzXoNAHwhahiaiix9R3331nz+HE3r59e1uPZdynQl/aHkdE0TiZIxo5RfCaVBHErhkpUZXdAhnJTlYLZLAPEUHl4t22bVvbFxD5CG5EOIIZIc//nTt3NtH+9NNPm22XY49JB6pzss/w+7LPUp6fyQ76iRGlZRKE5zKZMXbsWNsv27RpY/2yRo8ebWX8mcSgAuQLL7xg0VyK0MhuK4RIZbjGkhvOuZR0BYQXk5/8z3mUiVOu+5y7eQyXS48ePWyylklYWo/Q0xNBRauTYsWK2RiCiVVSLDiXc46n4BfCa/Xq1dZaBWFHr0cRHxx6H/4fIWIAUSr6F3ESSbaoyMSJEy0ahRjixEhkiMEuUSAiUwyIiQ41bNjQToicUKm2SGVFhBjfDSdkTsY05+U5nGQpAoJY8oNbltMnClHFcxBezZs3t+ggg2VuWDQZ9CKgyJEjCsiMGvY/BC8WSy8KOUnz3rk4EMFjW+S0ketGvlwkfyfEHBcg8u7Ev8EyS8SXi25mYM8lAkVBEn5rLKfsU4hpHsOey++LxZPfnX2NtgeIefZJrLxU7SQnkpL2THywf3Ijism+hbBi32ObiL/ChQvbRZ39DVHHvsm+BNha2LfHjRtn+z5RTyGESEWYrEQEcQ1mcoq/XPu4DnNO5RzNOIDzNtdcHDa4BHgeE2nktHOOZvK0WbNmJqw47/JclnN9oJoy1wucK5ybuaYT/dJEZvyg2KOIGQzcGdglm9ACTqrYBZ566ikb+BJFIDpE5ICy8ZwMET9EGRjAIpx81TxOpBT3YBusF4yvgMd6fHeckP12gNfhhO0tjIikihUrWl8zhO37779vA3Nm23geA+7gqCKWSyJtAwYMsAE2A2u2l4y/UbJA42TspCNHjvzH/oLFhN8Zkcx+x/6HgCLKRcVI9jFEO78t2zjjjDPsPrOsXLBZnj9/fttHyM9jkMD2iboSlUSY+ws6UVmio9znf16LfZV9TAghxN9wrUZEeai0zLmViVaqKA8ZMsQmuBBOnEO5jjMBy3Wb9bieM2kLTMhyrmUijfMx13ImMJk441ou4geJLSFyAMQOg1wsVgxoL7/8cgv/E5UiOhUMJ0kiClT6Q1QROUgPLF1ELLAcMED2INqqV69u1jBmyBBz5N/Q1JcTMgNoBsY8j/ucrD0Mppkl4wIggZUYEM2iEieWQ/L8EOBcuMnZQ4QhgLAYMgvK746Q6tatmxV68aKKfYYLOX+xAHKxBrZDNBT7KjOnRMkaNGhgFln2FYQVM6xYWtivyclkkEDEjAFDVvIbhRAiFWDyi2sxgshH/BFInCeZFOMcTrsU8tc5V3PtZoKMczLrMC6gzyjWQ2CSlvMt52CEGevonBufKGdLiChAVCHYHslh5iMNnAxZjh0AuM9y1vd/WZfn+G34/4PX4/mUuGdQzUmYaoAMmHkcgrfP87nPY/71uM+J3r9GTqOcrczJas4WooYIKn9vvfVWi3wijrD2cVHHNojgIuqJdZT1iGzxu3fo0MHsK9gIEUoIfy7cFI7B6oIQp+k328BxznPJ0SJi6mdZ2Rb7FNZEhBn5gNgRqQZKVDcW+5YQQsQDXGsRWEStuOZy7mzRooVNZDEphaDivMkk67PPPms5tEyEEb3CRUCRqzvvvNOiYUS9eD75Xkyg4VighyjjBfK6OE9z3icKxiQtKQgiPpDYEiJB4cTN4JjKRtjAfDQiUZDYypysiq3M4PT+6quv2kwpEU0hhBA5BxOhtLPJacgJo9KziA8ktoQQMUFiK3MiIbaEEELkLESacAEgeIQA5WwJIYQQQgiRTbBl07sTO7YQHoktIYQQQgghwoTcrMWLF1tO63XXXWfWbSE8EltCCCGEEEKEAULrrbfesnYaVHql+rAQwShnSwgRE/r27WtV7OjvJP4NJX7J21LOlhBCxCdUE6QaLFVgb7/9dlumCqwiLRJbQoiYQN8nStTGC+PHj7du/fFS1ZFS7ZRu5yIuhBAivqClxtChQ63Eev369a3vlRDpIbElhBB/QW+qZs2aWcd+IYQQIiO2bNniRo4c6Ro2bOjKli1rPSuFyAjlbAkhhBBCCHEQyM+aNWuWNRPu2LGju+yyyyS0xEGR2BJCCCGEECITfvnlF/fiiy+6FStWuLvuussVKFBA+VkiS0hsCSGEEEIIkQ5k2yC0KOv+7bffunvuucflzZs38KgQB0c5W0II8RfK2RJCiNjDsJQKf/GCtw4ef/zxrmrVqoGlsYU+XmXKlAncE/GOxJYQQvyFxJYQQsQehqVNmjRx9957b2CJCObrr792S5Yscf369QssEfGOxJYQQvyFxJYQQsQehqXt27ePq+hWPLFr1y43atQoia0EQjlbQgghhBBCCBEFJLaEEEIIIYQQIgpIbAkhhBBCCCFEFJDYEkIIIYQQQogoILElhBB/QR+VP//8M3BPCCGEECL7SGwJIVIaKl998sknbvbs2VZOl54qQgghhBCRQGJLCJHSLF261A0bNsxNmTLF7du3z8oN//HHH4FHhRBCCCHCR2JLCJGSIKjmzJnjFi9e7Pr06ePOPfdcd8stt7hTTz3VjR492oSXEEIIIUR2kNgSQqQcv/76q5s8ebJbv369Nc887bTT3CGHHOKOPvpoa2ycO3du9+ijj7q9e/eazVAIIYQQIhwktoQQKcX+/fvd4MGDLXJ15513uhNPPDHwyP9o3Lixq1OnjuvatavbvHlzYKkQQgghRGhIbAkhUgYiVUOHDjXLIBGtww47LPDIvylXrpy76667LIdr5cqVgaVCCCGEEFlHYksIkfRgBfz666/NGli1alXXpEkTd+SRRwYeTZ//+7//c8WLF3cdOnRwM2fOdO+++64qFQohhBAiJA697y8C/wshRFLywQcfuJEjR7pWrVq5iy++2IRUVjnppJPcJZdc4iZMmGCRMaJihx56aOBRIYQQkWbWrFmuXr16gXtZh4m11atXuxdffNEtW7bMHXHEEVb0iGUnn3yymzt3rhVGWrNmjcubN6+5G3Au5MmTx87r9Ftcu3atO/30091vv/3mXnnlFTd//nx7nJzeGTNm2DaWL1/uVq1a5c4++2x7r2+99ZYt+/HHH12BAgXct99+6yZOnOhWrFjhChcubJN79HFk0o7/jz322MA7Dp0ffvjB3jMThyIxUGRLCJG0UHGQC+WkSZNc27Zt3QUXXBB4JDSOP/54161bN/fZZ5+ZrZALqhBCiPgDgYNYqlGjhps3b57btWuXW7Bggfvpp5+s+iyTZ+edd56JpO+++8699tpr7vfff7fnss6iRYtMdI0bN84EWpUqVUx07dixw5UuXdoKKPF49erVze2A8KlQoYKrVauWK1KkiBVgGjNmjLvwwgttco/rDwKJPOE33njDRKBcEqmFxJYQIilhFpHZRi6oFLpgdjE7MBPZqVMnd/jhh7shQ4bYxVYIIUR8QWXZXLlyWYQpbQSJSFe+fPksqsX/rJse2M7h8ssvd8WKFXOlSpWy6NhZZ51l0Syez+Qd2yDixTZ5jMq227Zts+sEeb9ly5Z1NWvWNDcFk3Vsj21TqEmkDhJbQoikAysJtr+NGze6/v3724UxEhxzzDEWIeMCOnDgwAMXZCGEEPEBUSqiUmTJIHqCBdXu3bvdww8/bBY/LOIZNbDHQojFEGuhF29ErNLj008/dQ8++KDr3bu3Ra1Y75RTTjGBxY0oGtvBZUFkDZvixx9/HHi2SAUktoQQSQVeeSJP+OKpOHjUUUcFHokMXDSxj2AZGTZsmNu0aZN6cQkhRJxAtInCRrT4QGwRafIw8Xb//fe7e++910QS9r70wD74/fffu2+++cZcEuvWrbOIVnrgmhgwYIB77LHHLHKFzfCLL76wbeOAeP755y0qhvBq2rSpa9CggW1PVsLUQWJLCJE07Nmzxy6wXOxoThxpoeVhphOLSMOGDa3C4UcffaQLpxBCxAGci5lwu/XWW93OnTvNTojogq+++sryb2+77TYrekGfxQ8//NAs4h07drQiSKxLnm758uXt/M66RMtKlChh20A0BbcNQbTRs/GWW25xo0ePtueSF9a9e3fbLtehL7/80nK4sB6WLFnSBCCvJVKDQ/6rKVkhRBLAxeuRRx6xClZEnXIKbCn9+vWz2cratWsHlgohhAgHhqW4EihGJP4NBT9GjRpl1x2RGCiyJYRIaLgwr1+/3kq7M7OIxS8nYXaU3ABsIS+99JJZToQQQgghQGJLCJGwYBeht8mUKVNsJrRo0aIx6YGFbZHXx7IydepU9/PPPwceEUIIIUQqI7ElhEhI8NCTeExpd/zy+PIzKuObE/jS8CREU+2KnipCCCGESG0ktoQQCQdNhSntTt8Skp3pbRIvtGjRwnqyUAqYfC4hhBBCpC4SW0KIhIH8LPqfjB071vqjdOnSxXqlxBOUHa5bt64VzKAiFiWAVYdICCGESE0ktoQQCQM9T+hnQl+Tdu3aWef+eISywBUrVnRt2rSxqlFr1qyR4BJCCCFSEJV+FylD2l09vV0/o8MhK+tmdXtZfY3sPBfC3V5WXyM7z4WsbA/88q1bt1pEq0KFCtb/JJb5WaGwfft2e99NmjRxpUuXth4tfCZ/g+D78bDc9wzL6PHg+2nX5X7w4+He/HYgO9sMfn9ptwPZ3TZ/s7MdCro8+eSTtg0hxN/Hqkq/Z4xKvyceElsi6WEXnzNnjpsxY0Zgyf9gwM7jaQfuwfczWicY/1hG66S3PCvLuJ+d95f2sfTWgYye6/+yDf9/eqRdntH20r7PrDwPWE43fopi5MuXL7A0slC6/eyzz7aGlOA/c0bwng62jofqhO+884679NJLzWboPyd//f+IsLTLg29+Oev5//3yrD43WstDvfn3G84t+PNHYjvZ3QZ/s7MdBpU0QhVC/A3nVYmtjJHYSjwktkTSwy5Obs8DDzxgFeOESA8qCDZr1sydc845gSVCRB96w2lQKcT/kNjKHImtxEM5WyLp0XyCEEIIIYSIBRJbQgghhBBCCBEFJLZE0kNki9wIIYQQQgghchKJLSGEEEIIIYSIAhJbIunxOVuKbgkhhBBCiJxE1QhF0vPHH3+4nj17uvvvv98dc8wxgaVC/BNVIxSxQNUIhfgnDEvLli3r6tevH1gigvn+++/dUUcdpWqECYTElkh66M109913S2yJTJHYErFAYkuIf8KwdNu2bYF7sYcej48//rjr3bt3YEnsOfHEE+0mEgOJLZH0SGyJrCCxJWKBxJYQ8Q2RpPvuu889+uijgSVChIZytkTSw3yC8rWEEEIIIUROI7ElhBBCCCGEEFFAYkskPXLKCiGEEEKIWKCcLZH0/Prrr5bYSuWeo48+OrBUBPPSSy+5devWBe6lJosXL3ZFixZ1J598cmCJyAkKFizoWrRoEbiXeihnS4j4RjlbIrtIbImk55dffnF9+vSR2MqEtm3b2sUklXnyySddvXr1XIECBQJLRE7AsTl27NjAvdRDYkuI+EZiS2QXiS2R9EhsHRwN+FSNMFak+r6nY0+I+IZenZs2bTLngxDhILElkh7EVt++fW1mSmIrfTTgk9iKFTm9702ZMsUGTvHCrFmzXN26dQP3Ys8ZZ5zh2rdvH7gnRGrx3Xffub1799pYYeTIka5hw4auZMmS9hjnjV27drkqVaq4zZs3u//85z+WE54vXz6NLUSmSGyJpOfnn382oSWxlTESWxJbsSKn9702bdq4Bx54IHBPpOWee+5x48aNC9wTInVAPC1cuNCuAa+++qorX768W758ubv55pvdscce62bPnu2ee+45N2DAABNef/75pytUqJD76quvXNmyZd3//Z9qzon00Z4hkh7mE9RnSwgBhx56qEVvdEv/dsQRRwS+KSFSCyZmd+/e7Y455hhzxBQpUsT9/vvv7ptvvrHHDz/8cFemTBm3bNkyW864In/+/O6zzz5zP/30k60jRHpIbAkhhBBCiJSGysXkZx122GEmpoh0Ea0Kjlidfvrp7rTTTnNbt261+35yAqEmREbIRigiDqH11atXu23btgWWxBZOoM8//7y79tpr42bW9rjjjnM1atQI3Is9shHKRhgrcnrf076eOfp+RKry448/WhsU8rSwEVKFkGgWY4dvv/3WrV+/3v5StZY88KpVq7pq1aq5adOmuUaNGtl1XYj0UGRLRBxmhPA1//bbbyZuYn07/vjjLU+DE2F6j+f0jZmzCRMmBL4tIYRIfpjXZfDKJNwXX3xht3379tkANzOILuzZs+fAc3g+59D0YKKP18hoDpltZfa4SG3I6c6dO7fbv3+/u/rqq91ZZ51lf7EeE8miUMbll19u+Vu33367WQo///xzy9vCeihERiiyJSIOXmcSSO+88041iE0Hqh3df//9bvDgwYElsUez2YpsxQpFtuKLaH0/DDXee+89N3PmTLd06VIbtFasWNHlypXLFS9ePLDWv+F68vLLL7u3337bff311zbApVriSSedFFjjf5BbM3HiRHv8yCOPDCz9H2xr7dq1rlSpUmYVEyIt7GNco4OvA0wgE9FiXw0G8b5x40bL22JSV4iMUGRLCCGEEFGFYgJUbCMiULlyZXf33XdbA3GsWZMmTTJb1q233uo++ugjixawXocOHex+8+bNXatWrSzK0KNHD7dq1SqbzHvllVesciJN2bt162aWcSIQvXr1coMGDbJiB6NGjTJnw8CBAy1isWbNGouQ0XsRUUaxA805Cw/5WGkn3Nivhg8fHrj3P8jlooiGhJY4GBJbQgghhAgLbIAMRsMB2x/P/eGHHyzKhQCj9DY5v7Vq1TJBNX/+fLOkB8P9SpUqWX+yYsWKubvuusts4kQksGp36dLFChlgObzkkktMoPnXoZABAu6iiy6yMve8nirJicxAjB/M7ipEZshGKCKObISZIxvh35CA/O677wbuxR5muC+88MJ07UmxgDLcLVq0cCeeeGJgSXIiG2F8Ecr3QwTq2WefdTfeeKPlrWQFehLRLLZnz57WGHbFihVm0ypdurTLkyeP5bMS8TrzzDPd+eefb9vnWvLBBx9YbyOOiddff92dcMIJrkSJEtYz7aijjrKIFuKJaNdtt93mXnzxRYtSYF2kyAHCC9E1Z84cex2ef9lll7kRI0a4jh07KjohMoQ8P/p0Pvroo4ElQoSGxJaIOBJbmSOx9TfYfJjNPu+88wJLRDCPP/642ary5csXWJKcSGzFF1n5fogSvfnmm27x4sW2PoUEstrQNT2xRcSJyAHRKc4HCB9yu0455RSzdNWvX98mZtKKraJFi5rYuvjii+1x/94RUbt27bKmtGyHPC+eQwTsjTfecJdeeqmbO3euTawQAWvatKkVQRAiPSS2RHaR2BIRR2IrcyS2/uaxxx5zV155pbvgggsCS0Qw7CM333yzxFaEicW+nkhk9v0wXEAY0UoDMUNO1amnnhp4NGtgASTKVLBgQbP0UXgAqyARXAoQIIyA3CpEHcUsqBLnKxfmzZvXihhQ4ILnrFu3zs6pRKt4PnlaFMpgPaLDbIdCBkS52B6v1bJlS4vKsR4RNVWSE5khsSWyi3K2hBBCCHFQdu7c6e69914TLlj2QhVaQE4VlkMiYZTQxi6IoCLKXa5cORNR3BBBRKYQWkAUinUptEE0iok8toGVkOeee+65Fu3CekhkCysi9kFytijMwaQFIo++SIgromLkfUloCSGijcRWJpC8u2DBAmtYxw3bAbYHen4cDGYAmWFj/WB8qdCMki1ZvmXLlsC9/8EsIrN5wTCbR1WljOD9f/rpp7bNjz/+2F5bCCGECAX6WnEtfOSRRyya5XsPRQLEE6XfwxFuoYDIo+gGeZm8phBC5BQSW5nACRkPOYIGXzk+cgQMFx6sDwggBBVQzQhbAlYHhBa3t956y5J1faUjQtGsQ88Qnsc2mGnbu3ev27Fjh1kafHUm1mX7CC+Sh7nxumyfbSC0qKg0a9YsW5fnsz2E1Weffea+/PJLW05JXV4Lax/P8duhBK63c/C4hJgQQoi0cP0aPXq0lVsnmoXtN6v5WUIIIZw79D6MqCJdEFvYFhAo2BHq1atnFZEQR2PGjLFkXaJdJOc+99xzbtGiRVb5yDdopHkinnGEF/aGoUOHmr8cYXT22WfbBYwKSi+99JKJnnfeecdej4aP77//vs0kktzLjB+PI6ZI8uWit337dhNe/I8IJJkeawV+dIQhDSCxelCRCTvFypUr7TnYMxBhCEEsIXjveR2SkiM1s4iYI3EaK4e3gIj/gZjm92GWNV5AtLN/5yRU/2O/Yz8V/4Z9BHsV545kJqf3vYxeDxcCDgZKiSMmKLjA+ZpzNedwCkJgZcN2xnUA1wCFIXA64FZg8ovrAutxfs2dO7f9nTx5sv3l/Mu2eH3OyTTd5VzPOZLtkX9EQ16OB16H7XJd4TU4z7OcXCom69geE2tMBs6bN8+sc5xXeM9Moj355JNWdY/1yLHica4L9JzimkPZ84yiO8HfD++B3EquY61atYqbSp1C5CQcU7QIqF27dmCJEKGh6akwQZi0bt3aNWnSxC52RI2orsRFlMgSjRoRY0ShEDpUYEIUUQ3JizESeqk2RrUlLmRcTDmoAVHUsGFDKzJBhAu44HNhZmaxatWq5mmnOSRJwRUqVLD/+cuFlcEC69asWdO86VxYGdgi4hCE+Ni56FLy9pprrrGLfXogzD788ENLZBZCiGSFczQTT0yG4QRgcMX5kqg/NmzECudC+OSTT9zTTz9t6zL5htgib4jmu4ixrl27Wo4Q14B27drZtYGKd0zcIb7YNnDeZRINMcW5lgk6JiF4TT/hhguBawjviUk3bHxsj8karjtjx461dXmc7fC6FLlggpCS7KzH47wWjYILFy7sxo8ff+BakxFU7cM2yDXu+uuvt/LqQgghQkdiK0y4GHLD+sdFzS/jYuojFyTlIoz8xduvQ+QHfIIvwgr/e7A1A3854izYF8+yKlWq2Gwms6dYDoHnMeNIpIvZTGZI0/PTI8K4WGMxpBIUAoz3wnsOfu1geL9c6Pv162eiks+L6BNCiGSCcyZCBEGFgOI8yoQV51kmz8hTIjqFSGE5xRs4J3L+5FzKMv8czsdcF3gu50y2x4QV6zFJllHuL9EwliO8OFenzS/itfz2/Hm7evXqJtA4/wPXE/8++Mv7IOLVqFEjm5jDcYCwZBvpwfWL6BnPoV8VBSgyuj4IIYQ4ODqDhgmzjcOGDTMbCFEmIl1UaULIIIa4yNIbhFlFrIHkfbGMzvbY94IvoFkFwTZlyhSzCno7C6/v88a4qLIOF0kGDlw0eYxZTUC8Idh4bZ6L+MIi8sILL9gAID24WFN+unPnzhale/jhh83+yAVfCCGSCSracc4kCoTlj/Mo51QiUc8884xZ7Jg8A4QZjyGKMoLI0+zZsy13l6gVcO5G8GDxYzIrGKrzcWNdbIacs4Ph+oK1nO354kv0oqK6H46F9GByDGHG9gDhxHndT9alBbFHMaZevXrZpJwQQojsoT5bWYDoDxdFhIr/H088thBEFjOIXMyYueSCxswi6/mLG4/5r5l1sGNwEWc7CCRmSvnLejzXXwR9dIr7CCRurMON1+Rxkpe9gOK5CCweZxmP879/Lsu4D/zPdnk+F1/EF+tkBu+X94+YY9CBXQWhiS2S1/YwAMmszxbvgcEEUT9eFyGKaAQGOEQEWcbMKzkrsGHDBnufDFT8Z0H8MesK5E8wK4wlhwECj/E+sWYyA43th214sPxQfMQPnJhBJo8BmPVlwIHtcvny5SaOgffK83iMz0UuBBZQvhdsRPzP707uHZ+RssIMhNLCAEx9ttRn62Coz1Z0yOj1iOAjnDjvEN3CcodTAMs1vZqwW3POWL16tZ33ObcgzigawWQVUSDOW+RZMTnFeZB9HKu2z4fl3MLj2MYnTJhgr8ME3GuvvWaRJ0QU5ytyq7Akcp4kf2r69OnWzJftde/e3cQSYFPkHIXl/IknnrBzE385t3N+4TlM9pHry3kTWzm29FdffdXeA8IuLW3btrXX99cfIVIdIs3qsyWygyJbWQAhweDe/48wwsfO4B7RAywjkR2BxUXKCy3gMZ7PjYukF2Tc5wLIfYSEf65fl//9fbbBc3g9Xof7PIcomn+cbSHkmA31r8H6LOO+FyncgG2zLhdcHjsYvB7r0qeErv2ICXz9/fv3NxsLIiIr2h0hxCCG2WPWZ/BCnhsWF/7HgskAglwExBOihgEKM8EMTkhEZxu9e/e2wQ0Ck9lj/ue5CCjWRxAx+8tjfE+IIh5nkIQoYsCBgEIQIR4ZqLAOr8PgBsGEuOM9EB1kPZ7Huswwsw7rE+WkyAkn5KlTp9o6fMcMphQBFCIx4BzJeSJ//vwW9ef8wbkW6yD9n7jPRA7HO+dCzq3k3V511VUHRAvnXD/BxDmVc1O3bt1M4A0cONAEmL8GIK5Yl3M35xmey18mnFiHyZvg5bwm5x3yftnekCFDTFRxDud9sz0v6nhtzlc8l+cxKYbIuuOOOyxChzjj3JcerM+1QQghRGRQZEtkG5LHESDMChP5Ia+MyosZRbYQaAwwKNDB7C3ihkFD3bp1bUCArZHZWIQSgxwGDUSLEDDM8vsBzYwZM6xSV+PGjS1ZvUaNGiaKKBTCwIbZZQZDRLWYeeb1yEVgwEElL2aAmb1msDJixAibQWa7iDAGO8xaU5kMew5VyW666SaLBDLry/8jR460WWsGYySmsy5Cr0GDBvY5+U74nFhJg8WsIlt/o8hW5iiyFR1isa8nEvp+hPgnimyJ7KLIlsg2zAIjrB566CGzRGKnIdKVno4n6rNkyRKz3WGRSRv5QZwAz2UWGdsOYo4qj2lB3DA7i/0n+LVYl6gX+W389VbJtBAJQ5Ahhpg5RriRCE/UDOsgUTBvu0wLr4t9EvsiEboyZcpYBI4ZZg8iUVUchRBCiMSF4jOMbTIaDwhxMCS2RLZA5GCrIQpF4ja5DSRrpxfRYl3yprDfkFxOfzLKKQcLJax83EccYfdDrHiLYVqwuhDFQrwFixoEEBEyKihiuUHUETlLC6KM/mTklyGUOJliY+S9FSlSxCxA2HbSg/eH2KOPGTkefOa8efOaSGM7iEqiXETohBBCCJF44NgZNGiQWYBxq0hwiXCQ2BJhgZhAxHASImcL6x92PPrLEE3CGpY2DwzBQ8QLux95XzQIpIgFgob8LBLFiUaRA4FVENsgOVHkQ/iE8LQgwrAaUj3LQy4dtj6iVtgZeS+Z5SBgMUQ8YWckgf2KK64wKyTbJmqVEUTCyB9DUCEgEVy8zz59+lhlSk7ORL+ykg8nsgfClu8dcY09FJsoYNnE+tG3b18T7R5+V9bFPopQJ3rao0cPW8aNwgPsq1hI2QfZPkJ80qRJB9bBVsLvzz7ml9FDKT1hL4QQIrFgIpXxDe4XxjqkM5CKIESoKGdLZBmiReQuIbLIUyKSU6dOHRMZCCMvaDKqRsiuxqyQT9rmPlEg/ieKBDxG8jgDVkSK3z1Zxy/z4oXHWJ/BsN8u//MXMcg2eR4FQvjLYyz3VkWew/9sj+Vsj1vaZf65bDft83gNPrd/jPX4/DzPV51Mi3K2/iaSOVsUTiEXsE2bNiaq6H9EtbWJEydafyQmAvif/D6EGNXfWBexRC4fwpqoKu0agN+OFgcILlo8YC1FkJHXR3SW53fq1MmEGoKNPECOAfYDX4wmuyhnKzooJylz9P0I8XebhbvvvtvysykGxjiAYlm0v8GVw7XEX/eFOBiKbIl0QSwgGgih09eLfCwGnZyAaKJJFIFIFFY6ojqZRY48DEAZkHLS8vcZmCJcyHXixiCX5ZzEvIjhxnNYzy8PFjg8xnZY5kWQ3ya5Vf71+Mvr87h/L/wFtsVz0lsWvN20z+N1/fsAXoPXJBrH80TO4H8XfnPK+PN7MTGAVZRCJ0Q76W2EbRVhRjSTiYBLL73UopjALCb7O5MKiGby+Cj4smjRogPRKvZPfl9+d/8bc5ww+cDNR9SEEEIkJlwHGPNQwItrgB9DcM3o2bOnOXJIm5ClUGQViS3xL8g7wg7FrM6YMWPsxNOsWTMr937DDTdYPyoGol5wCBFv+MgmAsyDxdNHNxFMgCjDBsrFFBFGP6IFCxYcKKqCQKOQCsdARmA9Jar25ptvWgRMCCFEYkJKAtZB0hxIeUg7aYrgYrKZSTj64gmRFSS2hM3GM+OPsKJBJw2bsVVhYyL/isaYNPhVpEYkAtgBEVpEuBA/VJIi+kT+FYVPiHSRf4XownI4fvx4i1yRq0eeX7t27WwyARBjRL4QUxnlYlE1kxYC2AqJmGkSQgghEg+cO/TFu/baa+16kBFcHxBc5IbT05NriRCZIbGVDShfjn+XAw0v77Rp0wKPpA+ihua3eOKx5DEjznNJsKcqHjMlzLx7yAfxPagiCdtjQEpPKrz5nDQYiFLCnbLtiCwSQslzwSKnwaOIdxBFNMLu0KGD9UGj6Ti5TjRzfeSRR8z6QY4hYgu/PWX5b731Vtv/sRLSvJbjl2OTGzYRlhEZI6fs8ssvPxANY5lvHssEBBdojhuex7Ec6eNVCCFEdMHBgHUQ906wdTAjiHBRVImxEz0/ZSkUmaECGdkAsYLYYqDFLDozHCRT+tAyifnDhw+3EubMliOcmHEnCZ/nMqArWbKkNeD1s+kMBDlw6S9FRAlBx/MpqU4FtbZt21oeyrhx4yxhv3379vbaWQFrFGXSycGCM844w11yySX2HvxAMhJkVCBD/I0KZPyNmhpnjgpkRIdY7OuJhL4fkWqQr9urVy9Xt25dq4YcCjgnaDOD5fyaa64JLBXinyiylQ2Y+WCwiAgiUgREr2iMS9Wy559/3vpAIWqYNaf/EwckYGUiskUlvwoVKtisOwn9CDAKTiDUWB+7Ez2s6APlhRxlqRFICK+FCxdmGsIm2Z/XZsYGiyCz8NidGMjxt3z58hEVWkIIIYQQiQBjIlrWYB1kPBcqTJLTWoQJ9KlTpyrCJdJFYiubUJWMPA0sTN4+lD9/fquKRllzejGVKFHCxBh2PC+M+J91sOlx8/lQiCOiQUSreJ6H+4g2noMYQ3QRVSNKkhnYG3lO06ZNLdpEiBxh56vrCSGEEEKkGmmtg+GOiRBcWNVXrlypKoUiXSS2sgkHZ5kyZazsM5Y/QMgQ9UJE7d6925ZTcIKcqLffftvWofIZpaMRTsGQJ4JAwkZI0QoP2/QQSSMXhchU2uenhRwVEj157YOtK4QQQgiR7GAdZAKaqoO0s8luATBfpVCNj0V6SGxlA5LsqURG7x0sfTVr1jRBU7hwYRNbhKVfffVVs/3RAA+BlCdPHvPEk2/VsmVLO8ARRMyMIIhonvfJJ5+4CRMm2HZ4jEjZ6aefblE0IlxYEZcuXWrrUSVQaXdCCCGEEAcH6yB9Qq+77rqwrIMZQXuR++67zyyFU6ZMUZVCcQAVyMgG5D3t2LEjcC82YBGkqho5YPGCCmRkjgpk/I0KZGSOCmREBxWAyBx9PyKZwTo4aNAg17BhQ8upj0ZLG9xJ2BPLlStn+ffBziSRmkhsiYgjsZU5Elt/I7GVORJb0QHHARVeRfrgmJg7d27gnhDJAw2L6R0aTtXBUNm/f79FuRBczZo1CywVqYrElog4EluZI7H1NxJbmSOxFR2w9uiylzHkIZNvLEQygXWwe/furnXr1paukRMFwhBc/fv3dxdddJEJLh1XqYtytoQQQqQMDHiw9eiW/k0DQpFsbN261T344IOWJ0+rnZyqxEwOF42PyeEif19VClMXiS0hhBBCCJF0UHWQNjl16tSxImXRyNHKDAqpYV1UlcLURjZCEXGwEdJA+eyzz1bD5HTg+1m0aJF74YUXAktij2yE8YdshEIIET70N+3WrZtr06ZNtvpoRQLSByiaQf/Ua665RhHkFENiS0Sc//znP+7zzz+3ZFSRPrQLCG5aHWsktuIPiS0hhAgPqg4+8sgjrkmTJpajldMRrfSgSiE5XJdeeqmrX7++2XZFaiCxJYSQ2IpDJLaEECJ0sA726tUrR6oOhgpFM/r27WtVColwidRAOVtCCCGEECLhwTrYuXNn17x5c5vMizcomsFE2gcffOAmTZqkxscpgsSWEEIIIYRIaKg62K9fPyvvXr58+SzlaP38889u27Ztbt26dW7fvn3WFoLtIIZ+/fVXu61fv95t3LjRhBH3P/zwQ1uHlInffvvN7n/66adZbilxwgknWJXCNWvWuOnTp6tKYQogG6EQIiZWLi425PaddNJJgSUiGGZohw0bJhuhEEJkAsNYrIPhNCxGZD3wwAOuTJky7rjjjnM1atRwEyZMMKF27rnnuoIFC1olQe43btzYyrjv2rXLffPNN+766683kbV69Wr3008/WTStSJEiWS7EEWwppA9XLAt4iOgisSWESPkB79133+26du3qTj311MASkVNIbAkhssOff/7p2rVr52688UZXpUqVwNKs8dFHH5mYQjhxHsqTJ4/Lnz+/u+SSS9zw4cPtL2LqwgsvNEFGpeXixYu77du32/0VK1a40047zSJkCLMbbrghpGIc33//vW0TIRfqexeJg2yEQoiUh4sjF2whhBCJBREhHABbtmwxW18oEG/APohY+vHHH61dDf/TogV7Hy1sqlWrZtWVN23a5M444wx38cUXu5o1a5roQmhddNFFVvHwsssuc//3f6ENq3fv3m3WxNNPPz2wRCQjEltCiJSHC6TElhBCJB6cv3EmYOmj6ESohi0iVw8++KArWrSoWfrmz5/vbrvtNle6dGmLYI0ZM8bythBeiKrJkye72bNnm8ijf9e0adOsbyY5XFmF9/jll19aw+XrrrvOXlskL7IRCiFS3spFUjWNL88888zAEpFTyEYohIgERKYGDhzoChQo4Fq0aOGOOOKIwCMZg4hCbF177bUhR6WyAwU2sA926dLFImUiuVFkSwiR8uDRV0d/IYRIXI499tgDhZemTJli9ryDcc4557g6derkaHGKjz/+2Boud+zY0ZUsWTKwVCQzEltCiJSCYL6/YfvgL82Dc+XKZVbCtI9xE0IIEf94wfXJJ59kyVJ41FFHuVNOOSVHxBbvhRwthFaTJk3MspiT0TQRO/QrCyFSBhKe586dawnR9DjBwkH5XaAq1K233uoWLlzovvvuOzdkyBD31Vdfuddffz1LM6RCCCFiz/HHH+/uvfde98UXX7ixY8eGXDQjWvB+uOZ06NDBVa1aNbBUpAISW0KIlIBZRXqqUNqX2UT6WKWF7v6UAsb7D1y0aUCJLUUIIURiQFXB7t27W25UVi2F0QTrIPlknTp1knUwBZHYEkKkBNgCsZZQqhdRVaFCBbOcBMN9yvgiyrz9hGU7d+60/4UQQiQGnLsRXFm1FEYDXpMmyIMGDXJNmzYNqzy8SHz0iwshUoaD+fJ5nBK8iCssHxCLC7QQQojsgzuBqn+xshTyupSlx6Iu62DqIrElhEgJmE0sXLiw27x5swko7lOFEIH19ttvW54WjTGpSli5cmVXsGBBW4dmlnnz5g1sRQghRCJBhKtbt25mKaRHVk5ZCmmCjHXw9ttvl3UwxZHYEkKkBIiqCy+80O3du9cKZBx99NHW44mZT7r3U5GqdevWlqOF0LrjjjvsovzDDz+4s846K7AVIYQQicZxxx1nlsLPPvvMLIWhNCAOFSbzcEcMHjzYNWvWzF166aWyDqY4+vWFECnD4Ycf7ho2bOhOPvnkwJK/I15ceKlGmBaEF+tTHlgIIUTiwsTa3Xff7bZt2xZVSyHbJ5KGdbBKlSqBpSKVkdgSQqQ8y5cvN4uJEEKI5AVLITlUCKJoWAqxDg4YMMCcEbIOCo/ElhAi5Tn00EOtobEQQojkBkshkScshRMnToyIpRDr4I4dO9yjjz7qrrnmGle2bFlZB8UBtCcIIVIeLooSW0IIkRp4S+H27dvdmDFjsm0pJFJGThh5wLIOirRIbAkhUh5FtoQQIrXwVQoRXBTNCNdS6K2Dd955pytVqlRgqRD/Q2JLCJHyILaiWZ1KCCFE/OEbH2/ZsiVkSyHWQYSatw6WKVNG1kGRLtorhBApj2yEQgiRmpDD1bNnT8u5CsVSiHWwR48esg6KgyKxJYRIeWQjFEKI1IUIV5cuXUxwZcVSiHWwf//+rnPnzrIOioMisSWESHlkIxRCiNSGCBdl4TOzFGIdJKL12GOPueuuu85dcsklsg6Kg6I9RAiR8shGKIQQgiqFmVkKydHi8Xbt2rnKlSsHlgqRORJbQoiURzZCIYQQkJGlEOvggw8+6O666y5ZB0VISGwJIVIeiS0hhBAe3/gYS+GECRPc1q1b3eOPP+6aN2/uSpcuLeugCAntLUKIlIcLp3K2hBBCeHyVwp07d1qkq23btrIOirCQ2BJCpDyKbAkhhEgLlsLbbrvN5cuXT9ZBETYSW0KIlEdiSwghRHoceeSRdo2QdVCEi/YcIUTKIxuhEEIIIaKBxJYQIuVRZEsIIYQQ0UBiSwiR8khsCSGEECIaSGwJIVIexJZshEIIIYSINBJbQoiUR5EtIYQQQkQDiS0hRMpDgQyJLSGEEEJEGoktIUTKo8iWEEIIIaKBxJYQIuWR2BJCCJEeXB/OP//8wD0hQkdiK4L8/vvv7scff3T//e9/Ldn+559/tv8zgsHd3r177cZz08Ljv/zyS+CeECJaqM+WEEIIYDzG+OuHH35w3377rTU1vuWWW2w8x7I//vjD/v/pp59svd9++y3wTCHSR2Irgixfvty1bt3afffdd3YbNWpUhgchB/PLL7/sBg0a5AYPHuwmTZr0r5n1bdu2ucmTJwfuCSGihSJbQghNbgrGZgsWLHA7duxwjzzyiOvbt69bvXq1PcYE+j333ONmz55tE+sjR45033zzjZs3b57dFyIjJLYiCLPjJ598slu6dOmBWfJPP/3U9ejRwz311FNu0aJF7rbbbrP7CCkO4Guuucbde++97rDDDrMI14gRI1ybNm3co48+agc2fP31165fv37upptucsuWLXMzZsxw3bp1cy1atHCLFy+2dYQQ4SOxJURqwnG/ZcsWu/b279/fPfPMM27Xrl2KdKcgRKs2btxo4zgiWGeccYZr1aqVW79+fWAN50444QQTYl9++aXdP+aYY1zevHndhg0b7L4Q6SGxFUEOOeQQV6NGDbd582a3c+dOW0a4+bTTTrOI1wcffOA6d+7sLr74YjugmzdvbhGt7t27u1y5crnjjjvOlSlTxmZSiIgRoubgX7VqlStdurR7+OGH3Ztvvum++uorV6pUKdepUye3detWex0hRPjIRihEaoHIQlQRnUBoFSxY0LVr186deOKJbsCAAe65556ziU6dF1KLL774wh1//PH2uyOsmIjDqeQ5/PDD3SWXXGLiyu8bxx57rNu9e7f9L0R6SGxFGA66SpUquddffz2wxNnsCCf2X3/91Q7e3LlzHzh4iWBhJURQEe2aPn26nfiZafOwLhcAnnvUUUfZa5x99tn2lxOBECJ7KLIlROpAZOLxxx83m9iFF15oEa0rrrjC5cuXzzVu3NiuybhNHnroIUsHIG9HpAZMvDHJzeQ3Yvv777+3yFUwjL+wG27atMnuI7qYbBciIyS2okDhwoVtZoQIlOeII45wZ555puVpvfXWWzaL9t5775m4QphxoHLAMmtSsWJFE1cM/ljOxWDJkiUWBTvppJMsWVMIETkYWElsCZG8cHzjOnnyySctT7ps2bImpqpVq2bX3WC4xjZt2tTdd9997pxzzjG3ieyFqQFVB5n4RmBhEXzttddchQoVLIWD6NW5555r4znGabiUmKjDUpg/f/7AFoT4N4f+dTK5L/C/yAY+cnX00UfbwYewwj546qmnmvBi2emnn24zJYUKFTJBxizaxx9/bLlZl19+uTvllFNsW9gHuRAguBBXRMYAD3H16tUtosWNCwTr8BqKcInsMGvWLFevXr3AvdSD5OYVK1a4qlWrBpZEDs4NM2fOtAEeidXvv/++2VC4YHsYwL399tt2TBPBPhi8Xy7+5BYwMEzkWdVU3/dEdOH4Y5A8ceJEm+jEkt+yZUt33nnn2fGW0bHDcpwkDK4vvfRS2wYTnvv27XN58uSxa30iH3fi3/B7Mqb67LPPbDyGSwkxjugitYMxHKke3mHE/4z7sBTyf1rRLoTnkP8SLxXZhhPwlClTcty3ixi7/vrrzZooRLhQ1pYiLqkKUegnnnjCZrojDXmbw4YNc7Vr13YXXHCBe+ONN2xypHLlyu7VV191e/bssVl0lvsL+QsvvOAuu+wyV758effRRx9ZBLxOnTo2CQPkfz7//POuVq1aNiBI5It8qu97InpgF+S6TA513bp17VgJnuQIFaoVUqCKysOIMPKuuQaL5AZBxWQY51shwkFiK8nAR6zZFREqqT7gpXwv+RsUoYk0Xmwhoohmf/LJJ65mzZoHolPFihWzgjlEtIoXL26ii0gP0TAi2azDfaLg3vL0+eefmyWKvAKiZOQZJCoSWyKSEMmicNScOXMsQtGwYUM7RiIViWLIRB41gotI9UUXXWT5XjhQFOlKTsjbwgRGjr0Q4aCcrSSCQd3YsWPtIqB+IUJknUhUI2SQRysGJjzSg0Eagz+S7YlwIfCKFi1qvn8swjzPCzCS94leYTEmGZvqaMzIe7swyxBeRLoSWWgJESk4/ohkUdCCCoPYBB944AGz6GMDi5QQ8lYzItUMwLHyMklD9UKi1MrpEkKkRVfpJIIkfyopMeBjcOYr5QghMgcRw2AtOyCiyD/KaLBVpUoVKy1NNIpqo/xlcEjSPfAeyL/C6sQMaocOHSw3hBnzIUOGWF6AGmcK8W+wCT722GN23DCRgR0YMcQxFk3I62nUqJFFxTl+EV0IPdIKhBDCI7GVZJDAeccdd5iXfMyYMQcqKAkhMiYSYmv79u0mjtLaeJkJp6IZAz+sTNddd51VIsU+SCNzEvfJ2SJaRQUsIlZUP6MhOrmYCDKO6SJFikR98ChEosDxipUWiy6l2slx9NUFs5OXFQ5YhH31QnK5evfubS4TRKAyNUSysW7dOnf77be7tm3bWj5xRk4qjlHGobg0KE5DkZFURTlbSQxVDefNm+eWLl1qs+VUWuOiEIqdgkHh8OHD7Xni3xBp4MJKdclEJtXzZrhY0Fx86NChgSWh8/TTT1ubBkoCi6yjnC0RCgzgmECkuAy5i+Q/UkgmniYisAhTUGHBggUmAsm9ZCJUlt+swbD02muvjZviI6RokDPLhFc8wDHAeI7iaDkNggmbe4MGDcyq+9JLL9nEIa4MIrzkHd98882Wh0yhJ44F7nPMEm2moieNo5mUaNKkiT2fY6VLly4WlU7WY0RiKwXYv3+/mzx5siUNM6tesmTJwCMHhwRgTjT169cPLBHBMHvJiYbSwIlMqg94yZe68847rQdPOCC6+/TpYzki5IeIrCOxJbIKkSIGa/Q1oigFFT3juSAUVewQheRRE92+4YYbVL0wCzAsbd++vc4LGYBwITexX79+gSU5B5V7x40bZ5EtPwnPZCUCjPEl+zrXQKJf11xzjTk3atSoYRP3vuATVR1xXVFhl3QXKoVile/atavlQCYjmmZJAUjmZUBDvggN+ph9YGZBibxC/A1RYGbsGByFw/r1680GKKElRGTxdkGiztgFiWI9+OCDNnCL98q7vjkyg2Ka5fbq1ctsVbIXiniFfRORS8uR9KA2ANdJf62kdyw3IlLkMBYsWNDs8UzSc59olS/shEjMlSuXLacPLVEvIr70ikVkZVRcKhmQ2EoR2Nlppty5c2e7WJFMzIwbJWyFSGVIZmcCgosDtgf+hsqHH37oSpQoEbgnhMguiKxt27YdqC7IoI3IMTbdRGoozPs8/vjjbTb//vvvt4ElhTSmTp1qETpNeop4AKHz7rvvWnE1orDY/NKDyXtyiRctWmQ2XvrYUU0XEbZ69Wq7IbgQUUS32CbHMrBdKvIyOYnwIkeZYlE0+mfCk+M6WZHYSjEI+3KxIpHY944grOsPBiFSCY4BZsvxnmODwJc/fvz4kI8HZt65kAghsg+z64MHD7ZG4+TD9u/f38RKoheIYUafvl+ccxicMskzYsQIs/oLESuopMv1b/78+ZaDTh4kUdn0IIKFHZaJAiyCFKRhIoS8LOoDUD2XGgFYAxFbWAVxfZQrV87+knaxatUqi2TxP7fXX3/dbKNMSiQrytlKUnbv3m2WQXboAgUKWDNVZhqCZwOZUSPcO3r0aLNjcHCkTQBVzlbmKGcrcUFoMVNODmOzZs1s8EOkl0EeUWAStDO64ATDDB1+cyYwvF1CZB3lbAlggoO84hkzZthfkudLly5tx2A0olhc27g2ch3kxgCQ12N2ncFjtGHoRUSAHBdcJjRHvvLKK222P1GidtFCOVuZE6mcLcZ2S5YscXPnzrWCG+RAZlbJk9+FghZvvvlmYEnWIRpGnhcT/Fxr27RpY58h2DpIkQzstsmIxFYIcDGgfOWLL75os9iUvcR3Gi6c4JkJQOAw44UHdtq0aSZ60kui5cB4+eWX7aBAOGUGIVkSD7FhkJ9F+Wh2aoQBFdO4yBx77LEHckxWrFhhswsMMnl93g8nfImtzJHYSkywDjK7zLFHTkXwBYYBEDPpDLhI+M0sL4TTJ81MmdRgBk+EjsRWasN1levTzJkzzZZEBItZ8EhHsbAznXDCCXbNW7NmjfXEO/PMM63/Hcf/ypUrTWwxEOS6jNWJax/nAqr6YpuiQTITM5HOFSN3he1TvZBrCdECcltiVZmNZup8RiIe/D6MN5hIYszCuZMIBPc5V/J9MraIpAVMYitzIiG2KHTBxAbH3k033eTOOuuswCMiGhz6l8q8L/C/yAQOfvIyqKhC1TFOhJyAGWi/8sorluvBSQeRw0kb0YRvlZM4lQC5z4wVfm1O5KzPfU5SCBtO/ggpeutwsuWkO2HCBDvZsh22iTeWGb9SpUrZRSMzOFESzsWCUbZsWUsmLlOmjL0eoV22T/Nj/mLZyJ8/v4ksxBlecoQfz/3kk0/sBJsTM32JCP0j2BeIHCYyDDzq1asXuJfcENHCvoN1kNK5aQdOHLMcMwz+ON6Ycc5o0MNxwvFNXzu1RwiPVNr3xD9hIpABtS+R3rp1azsuM5tdDxdySTiOmURkgMn1jddk0Ml1EcHjI9lMsmB5QlAULVrUHm/RooW9T3IzI32s+2gaIotrLuMDxgJMfuZ00R0KBTG24bPz27zzzjs2BmHsQuSf6AOTwYxbqCjH90h0hDEEQjVS6LyQMYhcxoRMvIcK4znGm7gxmGxE1KpCZvRRZCuL8DUhfvwJmh2WgRazPOQ8kUxIZAhLEoIMXzb3mTWjUgsz3xwcnDyYTeAg4YTPTB5hUwQYnejpgE8JairBEIFi3ZYtW9osBrYm8kk6duyYrcE9n4UZO94/4pB+CBx8JC4i4rjQcWHi5MoJlL4JimyljyJbiQVCiyR1JiwoS5uZ7c9bColiM/hKz1LIMcz3hs890rPdqYIiW6kLhSKY4KNpN8Iis+MxuzB455qGUNqwYYP9RUTQjJxjF5HjK4ryXrBKNW7c2J5LQSmiCVz3ySOjSEC04NpMwQCu+YgXBCLfS/Df4Fvwsoz+z2hZ2vsMuvmOEFLk5HBjMpHzJmMXcsuwSzMuYLyCKGSwztiGaBffj98mf9P7P7PH/P8I4ttuu03nhQwIN7JF2sjzzz/v9uzZY+NIfme+dxF9JLayCF8TyYDMumFx4D6zC/xFIFFRBaFy9dVX2zJmqGgGTKIhESlm8Ji5IsLEuggn1qNfgS+BycwZJxciTLwWM1sIHyoIMqPGrB9iC193NCIpzN5xcuVA5gLICZ+8LyJ5ElvpI7GVOPiqg/xe5INkZfbcWwqZZCF6lVZQcVwyYcKESKrnWYSLxFbqwjGJvY+cESYXseJi7YvGAHD69Ok22OS4R9AgLBBNCAkmUrzYQjDg/qA3UJ48eUxgILy4ltPj65577olKJIDrL9dd0hR4T7z+JZdcYqKQ94Sdj79p/0/vftplB3vc3+e7YdKVz0oaAhNOiCgmlZhw4rugkAJjEAbsrNOhQwezXPLevSD12+Zv8P/pLfM3xkP8Lv4+6LyQPqGKLb5PnFmI4woVKtj4NKcjpqmOxFYW4Wtau3ate+ONN2zGhQEW4XUEFEIKix6iih2Zx+iuzYnC2wDIkcKTzcWEED2+b3Z+hBeRLSJLDOZI2EfY8BgzSc8++6y9HlE1fLU0XSVXLKdsa8rZyhyJrcSAQQOz6IgmKikxe5pVGPgg0hiIIaqCn0uZXI51BooiPCS2BNY18qGphobAYeKRiEokQdiR3I99n8gM1j0mFLFSIWjIT0J84fjAYs8EKOKDiVHu8x45f3C+J985kjAO4BrP5A4RI8YTkbTkZRUG5aQ84Mgh4ofDhslgJpKpMIfYIrJHoQOKejBuYTIKccr3RqXjSMB4SzlbGROK2OL6RTQLMUzFQOVmxQblbGURZq1JEuWES2I9JyIGbYgecq2Y5UFYcYJkhowTUadOneykzowagoUcKhJwKS/NSZ9+V5zMOdlzomIZj1988cXmgeYEjIUJayKP02uEqBriLKf6EShnK3OUsxX/ILSYxCD3igmNUIQWMOvNDDNRXi5YCCuOcyp+MoHCxImiWuGj3AzBMYkVnwIUHEsMJLn2ILwY6Efi+EJQcW3FncI5GwsV+Vj+f59TzX2Od8QF12heH4HF+YPzfFYi4lkBYYOFnwlVIuRE2xF2DIZDPUdFCr5nzm3kqjLuoFIiA3siWW+//bZ9T6QeMB4gAvnLL7/Yd8PkMN9rJCN+Oi9kTFZytti/EMN+0p/qf/x+ulbFBkW2IghfJTNgDM5IsE8GFNnKHEW24htmq5kc4TfKqnUwI9JaChFaTLoQcRbho8iWSAsTJORC4yRhYF+7dm0b3MdKhEQS7IK4YZhcJeqAZY/xAmIwHmCQTr45YhOhCUy4Yhlk0J72HMpvxbgH22OkhKgiW5lzsMgWv8mcOXNMBLdq1cp+N+VmxRZ9+xGEGQNOUMkitIRIZLjgILQQRxTDyO5AgFLUd999t+VSTpgwwWYNKR4jhIgsDPIRWNh0EVlDhw61IhVUDkxkSDFgwgYRwVihb9++Fs2LF6EFCNqrrrrqgNACBupE9NM7h7Ieka9ICS2RPYgIU7AJwYoYI+IooRV79AsIIZIObx1EDIWao5UZJIt3797dbDYk9jMQFEJEBwbwV1xxhR3LVAHmLyWrOf6ItiQCOEMoIEHeJ0WzKKL14IMP2ueJRV6WSE645uG0YSLwrrvusglGVciNHyS2REzhgkmSMuXuu3XrZmFvZmSwWpCoS/SA+z4PDouDfx6DXXp+EG0gv418Ovp+YD/hOXiaKWoiUgsS4SmGQX4GpZsjbT3yggtrBnlc7KtCiOiAY4QcZSJBiBQiLES6GFgiuvw1Id7gvEAUnOp99K4k35r3T9sJRKRyZ2IPLQDIDfNQjZn7jBuwMWJxxh1BsRQsreQ9saxnz55mIWecwW+MuKGQGTncOb0/MhaikAn7GSksXJvI+4tUNIsaA1TcJj8P2yvjsKxe8xi3LVy40L6nVEdiS8QUqhtRjpSwNyXuaRBNbgylZrGMcPJiZpBlnNw8PrJAmLxHjx62DYqUcLL0JX45QTLwFqmDrxyIdZDCFdGytnhLIWWSaccQrwM+IZIJLGu1atU6YC8kUhSP9kLsgvSjGj16tFXoo30KYjGe7ILi72gQYw0PgmLnzp02LqFYGXZPriWMQyiIdOONN1quFDnsFA/h+UwKcy1AkFBEhLFJTvHzzz9bqwAmHpo2bWouDiYDI8mPP/5o+clMijMWYxzG9Y52DQg77vOdkd9P5JnvgOOTXq2M21atWmXLEbaMyTgm6B9L/1naKJC7mArXT4ktEVMoocvJjBMVFRg5WbBs8+bNlvvGTE1awcRMDlErvO4MeqmARKVHnsNzsWdQlj9RbCYiMnDhQ3xH2jqYET7CRYVCrBtUDBVCRJ9geyERI/5SkjyW9kIGjNgFBw4caCKQlhDeLig7V+JBOXtKplPMhLYfgJBgGe4Zqldy7ucxqvwxViHqSiGRnABBz/UOMYS4iVb7Ea6jVIVcsWKFTWYDkTQiXpSSR5AipPhOmAghMsi+j+sD0YqYRQgizhCsRAKp9okLiRYPvtdeske/VPpdZEq0S7+zbUr+UiKfWRoEFyV2iRZwcDKjREgcGwkzKByk2C840Jnl5IQH3D/55JNthoVyqNgAGHxTyjeafSVU+j0+oOoggxwsOlgHc2pw4yuPYq1g36OUdLRFXrKhEs8iHLgOkPNED0v6W2Ijnzx5sg2A6Q3FZEhOFAbAUsVE37hx42wWn+uPbwvDuUB2wfDIifMCQgABwLgCEAe4FWjzg5hh4g4RwEQaURpggpeS/QgIllEZkGq3/M5sj/WxmEcTXrdjx44HIrpY9Wi87XvVcWMZ4pCJZ6pFMrZCEHFD3Lz33ns2ac0+yziGG2kbjJ0QmggqRBRiDvhM3Cf6x2QHE9u0RuA5jLPoJ8s4kfU5Htke4zqiuazH6/l2AYzx6Eu7dOlSO3YYA1LII5mPFUW2RExhVoMLJAcy5dM5iTAzxMmO0Dg9SJhRobeHhwsoTR85mSCoCE0jCrnoAicBrBupEp5OddgH8NVzoucCGC3rYEawv+Hh95ZCRVSFyFmYeKOEerC9ELdEtO2FDMiJXo0ZM+aAXZC/sgsmPvQ4rVatmgkGvx8hEmghghsHUcJj7AM8zmQxYxVEQ05ABcg6depYRAsb4/333+969eplaRXkkCHGyC8j+oT4p2AGDbMRsDyPz8a+yriL/GaEJddQPjcTBblz57aIne/pynrkxjOxjbgibQMrIDf2dyY404olxl88hzEagpXJSa7PrMv7ZoKUXDdeM9lRZEtkSrQjW8yGEJFisMzsC00dOSg5mWEN5CDmRMZ6zNDg9WV2BQshgoxEaWZMOnToYCcABt6E9Xku9kIEGOtFC0W2Ygu/NxcZGnCG07A4UvgIF9YJLr40KlelsayhyJaIFBz/vjkyx9+TTz5pg0OuBwiySMycM4DkGoQNigk/BrFct7jWKKodOXLivECUhX5U5IqTY4TgYB+hmTbncpYjKri2EMFkLMH1HrcMOUw4GTjXI+xZv2XLliYcoh2hYVIaEcPwnfeF2Oc12ffZzxkvEYEjust9xkKMsxBPRH395+BzcmzgEGIMg3hkP2YMVbBgQfssPjrLfbbPeJDoLRHkp59+2sZebJP1EGjkdbENrs18T3zHM2fOtGOE1+VxtsP2sEEy3mN76Ym1ZEJNjUWmqKlx5qipcezAOkgxDGYbmbHL6YhWemChoI8Os5vXX3+9cjWygJoai2jBgI9oAwNhJgyJfjGgDEcUMahlgItlmO0SHSAi4Gf+ReRgWKqmxhkT3NSY74oJaQqDYWWntQCiUdee+EI2QiFEwsFgB6GFFQFbRzwILZClUIj4gVn9GjVqmL2Q2XsiXYMHDzbrUyhQeAO7INEsbxckL0VCS8QaokFEqdq1a2cTfETqaH0S6j4uoovElhAioUBoMaNHRAsveqh2PWxAJADjIyc/MDivj/9ZhvUhXLBu4JvHZkHOoaoUChFbmIwhxwXBRAl2zh/0JcLym9GECOcCigQg1LCrEz2n6qGqC4p4BXsek31EcJmMnDhxotrfxAkSW0KIhAHrIIMfCqQw+Aml2hh2C4QaeYj0ZaMXGxXMvA2DaBTVqJ577jkbhNGzi6pTlP4NFmRZAb88ZeGptERDU15HCBE7iACQW0llNHpglShRwg0bNszyXbAH+mMcuyATLvTv4lxA/hcijcmdZM8rEYkN+yaTj0wIILrI3WKCgAqE2ZlAFNlHYksIkRD4hsXhWgepFkVDRfIQEVEkGS9YsMB6h0yaNMn6p9BuwFdcYhkVLZkBJ0oVKlgKiXAhuCZMmCBLoRBxAvbC6tWr28QNhQFGjBhhRZooesDglDLu2AT79u0ru2AQnIMRokxUde3a1QqEeJisIp+N8xy2yw8//NDOo0xwiZyHYhi0QbnzzjutKTHWQiYORWyQ2BJCJAQILSo/hWMdBAYIzEzfeuutrkqVKoGlziqLYb9AGFEIpnTp0lbwhEEWVZUQdQwywsE3Pkbc4aUXQsQPHNs0RybSVblyZYtgMUDlL82SVVH0n9CTie+EiSgq7yGocAMARRuYVKJpLRNYiC8iKwhYTTTFDgrCIIyvu+46y1nk5kvZi5xDYksIkRBQvpY8K2w+4eArkGEXIsrlYTnbxOrnZ2EZQDBLS2nc7PbMoUIhr8dsuhAivsB6hehCXFGaGrsggiIZ7IJYpLFMUzyBqp/Zub3++usWGeE8Rh4qEUFs3H7gznmU4iEIMt8Xk1LgiDCqCqa3zcxuInLw29BOp3fv3ia+sMjSBBl3h8gZVPpdZIpKv2eOSr/nHIgWEtXJhyI6FeqsMwMEKgT63Cw+M73bKJVLE1QEF5XLyNdC2BGNQpgxEPMRr1AhOZk+YHjosT6GkmOWKiTCvidSg2TbFxneEVmn2e2JJ54YWBoenH/JYeM8Rq4b/ZXIR73qqqusLxN5QRQeovcUfxGuDRo0cNOmTbOiJPRzyiq8b5V+z5jg0u/hQKVCfheucZ06dTJnh4guuvILIRICcqA6d+5sF/2RI0f+IzqVFRBNrVu3tgsUgwVmsBkw0HiR3lh0s2fggJCjASMNI7kxG1iqVKnAVrIOQovO/nTql9ASQuQ0kZxLp7gIE1xYAplgpKEt0T9EFUWHvFWQ3mPYCJncoigDf5kgE/EDTYiZWLjrrrtsAvKJJ56wPDsRPXT1F0IkDFj6br/9drM/EFUMpaw6AwPsFGyD3C3Ej7cLIcRY7pfxOLfgdUOBwQaiDvFWu3ZtCS0hRI6D2OL8FglLJOfFggULuj179lhDZ6JVTCIhwnbv3m2Fi+rVq2f3iUpRgITCQkS9JLbiD65JTDTec889rmTJklYkZs2aNYFHcxbcU+RUJ7PRTiMAIURCQdI1gouiFVQX5EQdTxDRIkpGiWl6+yDWhBAi0cEN4CemOL/RTBchd8EFF1j1O3JcuU+0ixsCrXjx4hEReyI6UGmTglFMDp5zzjmBpTmHr9bLtZwom8/3SzYktoQQCUewpZAZuVAthdECoUV/E1kHhRCxJtKRAvK+iG4Fg1sAYZUeDN7JfxXxDwKa6rnB+D6T6eF7Vma30iT7DkVXeC162iVrmwWNBIQQCQkXhzvuuMMEV6iWwmjgrYN169Y166Bmc4UQscTbCIUIFa6nVOSllxqCiussAov/qUCJOKLIBnl5XPvWrl1rk57c6FXJMp6zfv16+5/nMRnJesGl51mOhbBNmzZmO03W/VViSwiRsDAL5i2FVK4Ktyx8duEiQtNIykfLOiiEiCckuESoUDADeygVeWm5Qk81miMjpp599ll7nMq92AApWIXwwgZIXzVs9ES9aDvw2muvmfuE9bhPyXn+0moFiJZSrIMcQHrdJSsSW0KIhAZLIVWVuAiEU6Uwu3jrIAnhTZs2lXVQCBEXJHPBARE9yINesmSJ27Rpk9kI33vvvX/sS1zjEGK0NCFqRYGNPn36WOSLtiplypRx5513nrVWoTgKyxBbFE9BXNFiJdUmJNVnS2QKMxn0IDr55JMDS2ILA1uSbuOluhGVmeijRBJwIpMM/WUQWUOGDDHxRRNPTuzRhgsNES0uHrVq1VJEKwzUZ0vEC8m2L2IF69u3r7v33nv/lY8TzzAs5Xwai4IN6UF0h3N93rx5A0tiC1EhBA2tS6IBkawnn3zSIk24RTZs2GDl/unPReNqenw1btzYRBg9uqhGiX2eZslly5a1cRp5y48//rirWbOm2Ql5PiJu586dZiW88cYbE2qfzC4SWyKheP75561HBFEEETmSZZBBJSMvuLgQIcyjBRcUcrSoysWFRxGt8JDYEvFCsootmhqr/Hr4YFOn5+Kjjz4aWJLcYAVcvny5TVoitrAFYvN75ZVXXO7cuU3sNW/e3AQZ11lsgdgGEVyIL3K2GjVq5KZPn245X9j96XH5xhtvWA4XgqxFixZRvT7HGxJbIqGQ2IoOyTTIYIDBjBoneC4W0ahu9O2331rDYvrKkKOlnIjwkdgS8UKy7YsUL2BCiMiWxFb4pJrYQhZw89c1/7+vPMj//j6TjDzO/1SmhODnEhXk/+D1+D/VJic1FSuESCqwD1KlEFvhmDFjIl6lEMsEAxiEFlYXf1ERQoh4gsGtEKHixRF/g/9HTHELvu8fJ0qVdn1uLE+7Hn9TDYktIUTSQTSrU6dO7ocffrCZ6kg1PsY6iKUC3/oVV1yhHC0hRFzDIFcIEVsktoQQSUlwlUK85dmtUoh1sEePHlYMQzlaQoh4R5GtyMCk2qWXXhq4J0ToaLQghEhasBTSh8tbCslhCAdvHaxfv74aFgshEgKfO6PzVdah+AM5WhRbolAEDXdpoN+sWTMrYb5r1y5bjzLnvtR5pJwTInmR2BIJRenSpV3hwoUD94Q4ONm1FAZbB+vUqZNSFZSEECJVQJxSlpyGvbNnz3YzZ860Snu+WT59o3A3kAdM2XMq9m3cuNGa+wqRGRJbIm5hUMxJj2o2zCBxUqPvRr58+exxqtrQ/4EeDvR/oDeEEOnhLYVEtugbl1VLoayDQohERTbC0EBE0Xz39NNPt/EG1wyWffXVV/Y4dsILL7zQvf766zb+IGJ40UUXWQQsXNeESA00chBxy/bt2922bdtMRA0bNsxOcP7iwYmOhsu9e/e2yAMnPWaaFM4XGeGrFHLxfPrppw96cZR1UAiRDOjclTWYhMM+iHuB6wWTa0z2+nEF32P+/PlNdDHBC6yH9RDnhBAZIbEl4hLE1OrVq915551nAovGsWkrv+XJk8eVKFHC/j/11FPtLwJNiIzAe4+lkAtqZpZCIlqyDgohEhmfsyWyhncuMNbgu0NQ8f/JJ59s97lxLWDcsWzZMrt+IMYYr/geU0Kkh8SWiEvwSJOYesIJJ7hcuXK5k046KfDI33BSLFiw4D9sXZwQffKqEBlxzDHHHLCHpGcpRGj17NnTrINNmjSRdVAIkZAgDkTWofEzYw4iVddff70bMGCAq1q1qj02Z84clzdvXleoUCFLZWjatKn9xQFx2mmn2fOEyAiNIkRcwiwReTbkagXDDBL+af4Gw0WFQTKCS4iDccQRR1iVwrSWQm8dbNCggVkHhRAikVFkK+swsVa0aFG3Y8cOE1KjRo1yxYsXt+sFhbmKFSvmypQpY+tWqlTJ1iWvvFSpUopsiUyR2BJxCaF6TmwkqyKk8Ekzw8SF48MPP7RBMutcddVVFvXCFoZn+uyzzw5sQYjMSWspRMRjHeQiitCSdVAIkcj4yJYEV9bgezr//POt6EUwfI8UwUj7PSLOKlSo4M4444zAEiHSR2JLxC3nnnuuzRbhiSZMX6RIETvZkcdFOW8eY0aJCBgD5ZIlS9oAWoisgqWwc+fOJt7bt2/vatasqaqDQoikAJEgoZV9SGt49913A/eECB2NKETcgnAqW7bsPyIMb731Vrp5WUS08FILESq+8TEW1Fq1agWWCiGEEEJkH4ktkVBQ5l0lVkWkQdgTKZV1UAiRLCiyJUR8ILElhBBJxOeff275BRSRoeH32rVr/1VQJiN27tzpnnzySbu9+uqrZuGlz92mTZsCawghEg0JLiFii8SWEEIkEevWrXMPP/yw+/LLL62aJ82/qdS5f/9+K3NPfiMCClFGLzsqMNIQnHW3bNli65H0Tfnjl19+2YQaOWz0lPnoo4/chg0bsizehBCxwxfIEELEFoktIYRIMsh1pOmmH2ytXLnSol3btm1zc+fOdYsXL3YTJkxwM2bMcE888YR788033RtvvGEz4AUKFLCmnXXr1rVqoJ999plbvny5JYi/8847bubMmSbUhBDxjWyEQsQHEltCCBGnYOP7+OOPQ56hvuyyy9zXX3/tNm7cGFjyTxiAVaxY0V199dVWxZMKjL7XmIdoFuvx2kSyPvjgA3fFFVe47t27u3POOSewlhBCCCEyQ2JLCCHiFGx9L7zwQshi6/DDD3fVqlWziBWCjRv9xBBgWAnhuOOOs78ZgQ0R6yANPRFdFA/BWrh3716zJQoh4ht/3lB0S4jYIrElhBBxCAOlOXPmWP5UKIMlH5GiHQJRKwQTTTeff/55a53A434dbv5//vKa48ePt55j2AubNGliPe0QWhdffLEbNGiQ69+/v/v+++8DryaEiFc4nkM5dwghosMhfx2MyqAUCQMDRhocV69ePbBERIJbbrnFPfXUU4F7qUm8fQfkWZFHdc899wSWJCfa90S8kGz7IsVwRowY4Xr27Gn9BEV4MLl03333uUcffTSwRIjQUGRLCJHyMOeUO3fuwL3Yw/uh9Hr9+vWtciD5Ur/++mvgUee++OILqwwYPFe2fv16t3Xr1sA9Z+vzPJ7vYdDAsuBedVgLqUqIRdBDAQyqDnp4HV5v+/btgSXOcrx4XrClkIqGLKPkvIf3ml4jchE9qDDZp08f165dOzdx4kSzkGYEgn7evHlmOfUWU5EccNwqsiVE7JHYEkKkPL///rvlIsUDDJBWrVrljj/+eHf++edbFcCOHTuaKPJMmjTJBtPB9O7d25Z7+Dy33XabVRL00C+LZZ988klgiXNLlixxnTp1+odoeuaZZ9z9998fuPd3oQ4ibM8991xgiXN79uxxHTp0sLLxHgQay6hi6Jk8ebJVMBQ5A7/Va6+95qpWrepGjRrlTj/9dLdixQoT3ewjAwYMMFGFAOb+ggULTCRzDLDvIbwogoKLgH3o7bffNtG2dOnSf4h7Ef/430uCS4jYIhuhSChkI4wOqW7lYuYfMUGeUqzZt2+fu/vuu21QfNJJJwWWJi+yEUYW+qRhHUNUn3DCCYGlzo0dO9aqSCLGiDYSmaRqJULsxBNPtIbW9erVc7Nnz3atWrWyXm0NGjQw8eVz+G699VaXN2/ewBaTj2TbFylyM3r0aNejRw8rdCPCQzZCkV0U2RIJBTOysrqISMOsPhX84oGFCxe6MmXK/GOgLERWodAJ+FL+TCQQocImSqGUCy64wKKkiHruFy5c2KKowHrsd4h8CqwwyDzllFPsfv78+f9hD80K9HObP3++CTyR82guXYj4QGJLJARcNCiDTUPWl156yXJHdCERkYKKfVTcizUktGP7a9iw4YFBsxChcOyxx5r9lIgUUa7p06dbv7WjjjrK7J3k7J155pkmpmhYvXbtWrMRApZDRNiOHTvsMSJeCDDOtzTEDnUCAGGHGwErrM7XOY++cyHiA13NRUJALgg2L/JIyC/BFsHFX4hIQGQrHsQWA+PKlSu7k08+ObBEiNBApNetW9cKpPTr18+iUrQPoIz/unXrrPhJs2bNXO3atS1fD+FVqlQpV7p0aZcvXz5Xrlw5N2HCBHtegQIFbL0hQ4a4Ro0ahVxEBss35+wXX3zRcr5EzkO+lnK2hIgtElsi7qG62fDhwy2P5dxzz7XeQZ07d7Z+P8zYCpFd4sFGSAEDClgw2PUwM/3pp5+6rl27WuGJqVOnWhQuEhDRIPohkgsE1O233+6WLVtmtj+qWpKLxD5EtArBRcEVJq+IdFGNkHws9i2sh7gHcBGwHz799NNuzJgxth2KbVAsI1QQaEyQMZGQtoKmiC76roWID1QgQ8Qt7Jpc9B944AFL9r7kkksCj/wNF/4pU6a4Xr162YysZu/CJ9WLFLCfMdiMVU8rxB4FCYgilC1bNrD07/Ltjz32mEUqChUqZIPiFi1aWOVAKgZWqVLFisWQF8NAmqgGUTEqzVHMAEsYxw/rEdnAgotN8frrr3eLFi1ya9ascd26dbNqgcWKFXMlSpSwwhzVqlWz9XNCgKpARmqAE4F9GaFHoY54PF8n276IHXTcuHHmBImXnNRERAUyRHZRZEvELVgH7733XhsApxVagN2KiyMNG4P7/wgRKrGObDHjT8QKK5eH8u9Qs2ZNG6Q+/vjjrnz58u64445zL7/8spV+p4Q7xwlRg6ZNm1ohAqxfCK4PP/zQBloDBw60z8fkBCKsb9++9lkpDY6djGanvHbFihWtJxPrU4Tm/ffft9cXIhJQYOOOO+6wSBlWRpEzaBJSiNgjsSXiEqyDw4YNM6GFdTAjsBTedddd7sEHH5SlUIQNYiNWYgvr1pw5c1zjxo0tMoVgeuWVV+wY4D45NY888oiV4SYqRRSOx+iFxD5PlTkKEVDcgBwZ1qdIAtsh2sVkBNYyCiRQFAH7bXCjYwZjLGd9LIusjwVNFeREpGE/u+mmm0xwqdF19PHGJQkuIWKLxJaIK7g4kEcwdOhQ17p1a1e8ePFMLxQMRokGNG/e3Gb+6R8jZ6wIlVgWyKDP0THHHGMWPvZ1BNJbb71lUaf//Oc/lnNDVTnEFLZCRBMFD2hIi+2QKNahhx76r+OEiBXHD+tR3ZD7Rx99tFlyfSSY7fEafHa2y3tgfYTdqaeeausIEUmYGEBwUXRj9+7dgaUiGnAtlNASIvZIbIm4AksUOVgUw0jPOpgRWArbtWtnz5OlUIRKLCNbRLEQQ0DpdyrBUcyA3kcIJBrMzpgxw/K1yM9isMr65GwhkM466yw7Vph4KFq0qFWRu/DCCy2K0LJlS5u4QKxdfPHFlnuAVRDLIM+jrDeDsSJFitjrkQ/G+j/88IPl1QgRDShNz7725JNPKsIlhEh6VCBDxA30f6HbPVXXSNYPdUaOGXrsVSQ4U62QQanIGqlepAB7HnlTRFNzCh+1QtgQmeVUTDELhBB5WqmCCmSkJuzv5CUy2YAVPB4iqcm2L+L0mDRpklmO46G1RaKiAhkiuyiyJWIOF12sU+RoZcU6mBHM7DN7T6U1ogBbt26VpVBkiVhEtogqUbSifv36tr+//vrrLleuXO7yyy8PrCFEeHDeo8gJVSupSIldNNxzIZMCB3s+j5F7GMprsM9zvr7qqqusAAzHg4g8fM/hXE+FEJFDYkvEHKyD5ImQmB+KdTAjGKy2bdvWimvIUiiyQixytl577TWrLoh9b+XKlW7x4sWuffv2Zh0UIjtQNIUS/lRzpSAKbQW+++67wKOhQY8tIlCIroygmAq5h7xuKDBBRj8vbODk3AYXbhHZJ1yBLYSILBJbIqZQXtpXHTzvvPMCS7NPqVKlLO8FWxZiTojMOOGEE6yKX05BJPfjjz+2qNbOnTvdtGnTLOeQwWcwDHCJ0L755pt2e++99w466GV9InUZwev99NNPgXt/wzbpg0QEw8NAjXUZbIvEA9FODitCi95tvq8alj3OjVjMZs+e7dq0aWPWOYQSlr4777zTWgs8//zzlj9LJUuqVBKFpW0ANm9st0TM+vXrZ+XcaUHAbc+ePfZ6rOOfR0Njer6RY5geRF3IRbz00kut6iaWLREZJLaEiA8ktkRM4CLAhZgEaayD4eRoZQaDVgTXDTfcYFWv6OuiC48AoliIEnKlmO1HaFDRkogowoLH2FewRfE/60camgjXqlXLqgiOHz/eXX311ek2euW9IcSYMGBwy3vmvSGWiAL494pljMf5y/pff/21DVp5PuvwGDfuI9oQUXw+1vHL+S5YF8HFMgbfvB5/EW+8Hq+r4yix4FxI+wwq/9FiAJs1Vm2EO6IfwUTTa35fhDoTVJyP2TfoxUZ7DfYNXxGTiTGiWGyL/RZXAoVaeJxWBHnz5rV1Fi5caMuI3JIzxD7pYZ8KPq44DurUqWO2Qvq8hRuFE/9GNkIhYo/ElogJDB5pykpn+0hYBzPCWwqx08hSKBjkUVYd8Y29ioEiESZgcMmsPoNEBnsjR460ASjrI0wiBa9N1UEmA+g3RLNXSrlnBgNRmhYz+P3yyy8tx4UB7UsvvWTRBLbD55k/f74JJCoOEtXgsyGuGEATzaDRsYdt3H///a5jx44W8SByweedMGGCDXinTp1qEQwiXi+88MKBKAmvLxILxDU5ify+FExAFOXJk8eqWuIsYB/hMUQ37QGoFkg7AsSVx/dp4y/7GNtESNHbDYEFiHGWnXjiiSag2B6VMen7xvM82BIHDRr0j3My769JkyY26UDOrSKq2UcTI0LEBxJbIsfBOkh5aQRQJK2DGcGgtlu3bjawlKUwdWHggajIly+fiR3KnTO427RpU2ANZz2r2EcYTMJxxx1nA0caCUcCIk9YtijJvn79eos2IKLS2gfTwsQEdi2iEUQV4Morr7T/qeJ5xhlnWGNvcsDYFhFdCg8wIC5cuLBF0SgLz30Pg2miHExG+OUIKYQldjF6bQEDaCIeiDOOJY5fEf8QjcQ6iFWQCQSsepdddplFcRFITDwgsJmQQmBRDZD9kzYDTz/9tEU5g0H8sB1yDQsVKmS2v3nz5rlnn33WlgNW3HXr1tkkAEKNfSw9ypQpYxU3sQ3OmjXrgH2VfffGG2+0tgSIwGBbqwgdznmKagkReyS2RI7BiR9f/4gRI2yAx+AvJy4EXMCxwvgeQrIUpibMstMw+5RTTrHfnzwtZt+xOnkYHDIYRZSxvl8WqV5AtCZAwLHfM6gllyV4xj8jmCjADssglf2Z981AtFq1avY/+OUMnIkuHHHEEbacyBz5OWlzYfj83Px6wGfmxvujYIg/Trjvt69jJ/7ht2vUqJHtW4gqWgswyUCENHfu3OYmoDBFpUqVTGBRoILl1157re0PrMcyRA9927jPpAPtNFgPIY+wR8gT1WI7devWNXsi1kKqajKRUaBAARNz7GdMDnh4f+zLTLgROWX/ZuKBfY8I1zXXXGPiDyEXyajywaD0uxBCRBqJLZFjYF1hxhz/PgPanIYBAflhXOB37NgRWCpSCQQDAzoECTkkRLCCC2MgKhhA8hgCBRAXPC+78FrkahF1YtaewSkD11AhusR7IsJExKlgwYIWjSOyRfn4tGKIz4tdi0HswXKuiEYQwcAuiJ2Q5yI2iZxx3GD/4vVFfIMoRvg0btzYrII4CNi3sfMRUUJIIcQQU6xDThcQsWK/xNqKUEJgsR6PY+8jt4soKRMGvIa/zz6C9ZCiHBdddJEJK56L6Oc1/DbSwv6PwEGgYSt88cUXbTnr33zzzSYUn3vuuUwLvoQDAo6cYezCTMARoQNyxjj2yUfjtbFWYr3l+OH/RINjnd+dmxAidqipscgRGBjSsPj22283D3+sTv4MHrl4UpiDqly8F5EajWU51SFKyHGiOhtWKaI9RJfYJxiQYoeiQiAFIrBL3XTTTbaMQWh6g8VQmD59uvUSYh8kX4YBqY9KpQcRNyICDAgZzPo+YHwO+ifx3tkOkQjuI6QQSwwkGeR6Cxavx+Ms86/HoJjH+cvjWMa48TqILV6byAKPsQ6vSXSP90OkI5LHr5oaC+C4pMk3f4lscbyxjxLdQiRieY3Ufof1lmMBy6O3DiPu2LeZFGRCkGgbr0tVRQQqy8mZjMTES06BoKSyJDZ6Ca7w4VyrpsYiOyiyJaIKgzSS9L11kDyZWJ70uVAGWwrJxdF8Q2rAfsfsOxdOZq3JgaK0NYMtIjeIC6JOiBJm9inFzmCPdbmfHdgG+TEII2xTV1xxRbpCC8GDqEF8MKPP6xMh8EIL+BxYIYkYIIT8fWxi3Gd99nOid9wYMPIYy4lIcGN7/i/PQWR5MYag4vOyzK/D++b1+K40aBPRAOshzgNywcaOHWuTHexrHJNMUnA/bR5ZOBAlI0+TiDbRKibc2Pd9sQ6OHSJca9euPVCkg0kMIl7BlmMhhMgqElsiqjAbyIxQrKyDGSFLYWpCrki9evVsBtvD4AqLX3rlphEerI8gCRfEPOXdsfsxgCO6m14DZQZ7VGFjEoAoG5MT2KmESBU4FmvUqGGVL4k2Yy0kKnvbbbfZsTN37tzAmuFDyXlEFMcW4s1PtgVPfjDJwMSgr97JY5wDEq0kPZ9NkyNCxB6JLRE1yO9g8Eh57exUHeTiSAQqErOawTB7Sel5xKCqFKY2WIWoUBgNKMiCbYniHFQhpBJcMFQlHD58uJWaJ5eG44XCFww8hUhFmOTo0qWLq127tlUsJBcRuykuCfIeswMTHQgtCoNgVUTAIaKI/hJ1xjoLRMGJfGHL5Rrky9onEnwWxJYElxCxRVdzEXGYTcOmMWrUKLNiZSVHi+dwYcOvj+UKqwe2DWY1uWBg/WId/mIpIRLBelwkfblqHsfmwX0upAeDwSzJ3OTlEE1gMMw2ROrB/pZetCm7sO9S2ppCFhQToPgG8HoM7CinThPiEiVKWJSVKnHY94RIdTgeOR6w+hL1JcpFVUQqhb7zzjsHRFGoYItl8o92B0xq0DuM6DWWW5o8Y2ckbxP7LVUcEXxcm4iGB0fEEwGuZ5q0ESL2HHof0/pCRBCsgyQX03SVilgHgwsCdg0as/oGsoiuCRMmuGXLltmFEb8+A1VmOd999133xhtv2MWRohs0ciURmMpWRNKoLEUlOWyLWbnQkItCoYGHHnrI+tAwq5oTIBixMDJoGDx4sFlXfHNQhB9FRagAxmdBQFK0ASsLlpZIX0ARBAw4UhUGb+yr5D5FEhLwyVfEGkWeIL8bUVpysti3Wc6AjgFfcF5WKpHq+57IHEQPLgSiSjTrJuK0dOlSOxdy7g4HzvFM1JG3RXSLfE2uQ1xTEFvcZ4KQ1yZPkYk/Il85dW2IFFw3ON9wXRPhw8QuhZIQ3kKEg8SWiChYpigbjdBCHGXVvsBAE9HBxQxRwV8ufPSCQYAgxkjS5+JH00tmIClqwH38/DR7JbGaqAADZi4y9IFJrwhBeiC2uIgjErnoEongIoXo4TNxH9HDjYgEM60IJWZHudEjhtdEJGJH4+LMjSgcs6JE6PhcRN648b6wWfI5qRZFL5rly5db7zE+J49RLY+LJK/NazAI4HMz4xvpi36qD3i5kDKgo4hEJOnXr58NCjkesAtOnjzZJgt8SW5EVqpbfCS2xMHgGEHscIxyHFFEZvHixRZpIhcyVDgmOZ8Gw0QI7ROoPJgWBFeiWQiBaxLXD66NInwktkR2Uel3EVEQKA888IDr2bOnRaSyMpAkF+uVV14xwYKQwGLVrFkzawBLLhXldolWEaniIktfl2eeecYuvPjosWdhWeSCQpSLSmqIId5DVqMFCD1ea8CAAdZnBsHDMg4P/qa9pV2e3noZPZcbF3QaPHPyJqJH0QT+0m+GwQMndvJ8EJTk+FCVjufQhwYRixBDsKV34ztk4MDftMv9/2kfnzRpUkSSzxMV+r+RE+Iji9mF357IJBUPuTFAZJ/CtkQ1TAZ74m9U+l2EAufPBQsWuClTptjk0+OPP2528EhE+5NtX/SWy44dOwaWiHBQ6XeRXSS2RMRhYMkMIScnokUHg4sns9tYCGmkiQhgxp/oDonM1113nfVfIaLFyc5Hv/DvB4utChUqWE8WxAjRIypaZXVQy2ux7YEDB2a7zHdW4ORNrk6jRo2swW3nzp1NQDZo0MC+A8QWM5IIL/LfEAFXXXWVmzp1qolOrC+IVG6IU/9/RreDrUPuEII3VSFf6s4777QSz5GASCZ9gdg/iVoyeUB1s0gMCJMNiS0RDpzj6Zc4Y8YMO3dz/s8uybYvMmGHXblDhw6BJSIcJLZEdpHYEhGHXYq8LWYcaRhbqlSpwCMZQ7UnbHdYB4lGIbgYsBINwNpFwQuiZFSiwprHcnJdiMrwP4NahBmWPf98cqCyElmjEh32Lpoc07w2J2xd2BKYmcVKNnv2bMvfQnTSU4bPwIwtlsUmTZpYLhmJ4jTBRaCRvB1pG2E8DTKw3lF1jN8vpyB/g9eLlBhCwLI/sy9hdWIfDRX2eSy5kYq2xSuJPsAlQk1OKb83E0BE3FWyP2tgp01bnTMUmETiesCxi6U8uzCJF09FMLi+kfMZLkwirly50o4xET4SWyK7SGyJqMFJHrsbIoYIV3ZFDIKKiA8XoDJlymS7mAHihigcopD3SL5UTsFhRySP74VkbGwxRKwYeJD8TQVHBBlRNnLEEI8IMmyUFStWjHiEJJ4GvFzQsHL6yn2pCvmDN998s+WqJDOJKLY4fomsUJKcfFLswBRbeOmll+w817RpUyveoEhm5iS60I422f1+yGUmukVVYBE+Elsiu+hKIKIG0RjyVYhUMPubXSh+QXSHgU0kqsZxEerfv7+dRHNSaAEDMmbAEVTMylIggAgGg7MLLrjAKit6OyN/KeDBLG6kchOEEOHDRAnnDiLynD+IyJNjyvmuevXqZm/DFpxoTXBFcsGEIpOTQojYosiWiCrsXuQcMSOEpRCBEQ9gHaQoRNeuXa28ek5YB+OZeI1sMZBFqOekpTCWEL3FOkiURJGt+AJrKEV0iF5RyY4cSqzO5Dpi6yXPlAp5iK2yZctargw3ItEsk7Xw3yiylTnZ/X7Y/7D0t2rVKrBEhIMiWyK7SGyJHMFbCikEEUpJ+EjDTN9HH33khgwZYtZBihaI+BVb9B8j6pcqlkIEFgMjopkSW/EBl0gsgxSnoQUDFUOx/s6ZM8fyhci7xPZLrihVUKnqSc4l+Ujkm/q+fzRPZ2IHS7D4G4mtzMnu98OkIpNVLVu2DCwR4SCxJbKL/EgiR/CWQgaQkbAUhgvWQcq7U+pbQksIkRnYfMnL6tOnj0WuOIcRLWDiiCbYnEdKlChxoMUEwrh169bW++/NN9+0dg6U+7/22mstkj506FCLhgmRE8hGKER8ILElcgxmfxmcPPLII9aDKKdhlo/BD2Xpkz1aIIQIH/IjycHifEVT8+7du1t1SCqDklPZq1cvK+mfEdhAsSgTzRo3bpxbtGiRCS6alNNmgHLlzJYLEU2wvirHV4jYo6NQ5BhYB7GDtW/f3o0ePdryH3LCxcrsHhXDGPTQ3FE5WkKI9OB8hBWQyBW9/Wi9QPEcCl6QT0ejdJqqU2b8YOcQ7IJMMPXu3dsEmm/CSwNzysTT04+msxTZECIasD/rWidE7JHYEjkOlkIGHA888ID79NNPA0ujBzPUFB3ACpTTVQeFEIkBlsHnnnvO8jlpJk75dvK0iMJjH6QHHlVCQ4VKhRTIQHQdf/zxloNDQQ1y81588UVrKL579+7A2kJEDiJbshEKEXsktkRMYMaXhFNmd6NpKaQ6GFE0rIO+lLoQQniwDNK/jxYVgMii/x7Ci9yrTp06WeuF7HLkkUe6Bg0amOj65ZdfLFpGPhfWwieeeMIaqyufS0QSXB2yEQoRe3QUipiAtYGGvpSDRwwxuImkpZCLDBad8ePHWxRN1kEhRDDM+u/YscOi3kz4XHHFFWYVnDVrljVNJ7eKCFekIwP0CGzevLmdlyjY884771iFQ85/5IStWLHC/frrr4G1hQgf9imJLSFij45CEVNKly5tgw4iT5G0FGIdJGrGLLKqDgohgkFUPfvssxZRqly5spVyp1/WGWecYeeMSpUqWSQqWjAAproh7ScoHU+TZApxNGvWzL399tsmALds2RJYW4jwUIEMIeIDHYUi5mApxMLjZ5izCzPFRMuYJZZ1UAjhoaIglsFu3bpZ3hRCa9q0aZZLRU7nlVdeeaCMe05BHundd9/t6tSpY9ZFenNR6ZAy8c8884z76quvAmsKERqyEQoRH+goFDEHe995553nOnToYFXAaDocjqWQCwsRrYkTJ1q0DAuQrINCCGb4N23aZMUo3nvvPRNV69atc1u3bjXhRS4VIidWIPAoHEQea968ed0bb7zhLr74YnfEEUdYI1V6diEUI2m1FsmPbIRCxAc6CkXcgKWQ0uxEpMKxFCK06OFFDxxZB5MHCWaRHfbt22cVAIkSFStWzP3444+Wz3njjTdaAQyi3/EyICXaVrduXdejRw+7/+6777py5crZ+411Q3iReMhGKER8oKNQxBWIJAYVAwYMcKtWrQosPTjeOti/f39ZB5OMcGfzBw0a5K655hp3yy23mCWL3kaTJk1ymzdvtpwdBt88RuPajz/+2O5ff/31rkqVKtaQFsHPjRwengtMBNCcludRTY7qcVSzo4Q30dQuXbpY82yWxRoivdhyGaBT6Y6iDOQGsZzvFAHCZ+C9Pv/8827t2rUWQfnhhx8CW0hsiAS9/PLLdi456qijrNEw5wl6Z9Gk+Nxzzw2sGR70x1qwYIGJt/TYu3evvTbvI1ROOukk2xexV7MPsp9ddNFFtv+SZ0Zhj0hHufjdec/sH7xm2vfN4+SR8Tivz0A+nuH9kYeHoCZ6uXLlSiuxz4Qc1SApQkKT+507d1r/tJYtW7q2bduapZPflH2FSpSU6Mfeyfp8L7QsoVckx84333wTeLX4hN9Kpd+FiD0SWyKuIIrBIIgIFxfCg1kKuZh46yC9cEg6VyREAHk4DJwQFfny5TMRRC8l9hmaXDNYZsDUrl07G4gR6cDGddVVV1n+IPsSYoVG3FjQAKsZkVO2edppp1nkgUqaDN4QdxR6waa2a9cuWz+WENFhIEm0ZNu2bTZI53MHD6IRkQhNvhcGZeQPLV++PO4H0pnB74pwZNLmiy++MFsezYT5HREvRLdoOOzXnTFjhg2ehw8fbgPqESNG2PmHSoEMprEeIr6xHPI705wYscbvvn//fvfdd9/ZRE+bNm3cnDlzDhTfYFC/Z88e+y45P2GTRpyx/wXz/fff22vcfPPNVgnRn++ISFC5kPPaddddZ0KHoh00VGb/nDt3rj03EvA9LFu2zN4b+zzHDfuPh9fh+0G0A/sVwiNe4TvkN+f3924Hfi8+B7+hh9+bdemFxvE7atQos7TzXXO+4JzAsc5+wLawd7Zo0cL2ERpVU8wk0qI3kvB76nooROyR2BJxCfkK3lLIRTMjEFpcJLmYUmhDiPRg3wgemBLdIkeGQTcRD6I+aQsjMGhmMEaka/v27f8SIERhGWwzIVCqVCkbCDNoo7JdPIgtCisw0GLAhUhkkM53wGcCxFXJkiUPCElAQDKo9OskGohHhAuROkQWvzN/iVzUrl3bvoNgEBmnn366nUP4vfktyZPy0TAEyFlnnWVC6IUXXrDH+U6JlLA/sF8QDaJX1uDBg83u50UY4grBTzSF9ThHEVnksWCIorCPIQ4RMGmjouyjCEQEEOtRtZD37AUl4iitgAsV9hVECBE1Pn/a5u8IyrJly9p+hAhkIoLPGc8Q0eV74zfnfSOS+D3SA2HJd4l9E6GFO6J8+fImkolsc3wjfBFW9FzjO+D45/diH4pX2C9kIxQi9hzy18kjfqdlRErDronQwhqIFYScrmCweWCrueeee1yBAgU0g5cNsMUxgxsPUBCAvBUiEQxg69WrZ/+HCrPUDIIRFDS3ZmDE4INKbwxUjznmGFerVi0b3DJTT/SLwfn06dNd586dLQrEe2E9hBQD7JkzZ9qAl0EcUQpEFQM4Br+8FhD5KF68uN1ChQFfq1atbLBHpIQBcFqBkFUaN25sA8FLL73UosTYpKZOnWq/NaJw7NixJkIZjLGcCB+97zimiHblVIPdRYsW2W8SCRDM/B40C+Yz8R3wG2dUYRDhg7AiAkXEb8iQIVatkN8Wuyi/L+Xg2YdGjhxpIoTzEvskgpTvFRFCJIv7iBX2XSKJ9evXt++Yz8akEIKeiAjRkty5cwfegbPBPWIPmx4DeSaYMquIiODjWOU9sV/Omzcv0/WzAgVCODYoHMLnIBqEpY7P7iHSx3GEtQ7RjqAlipsdsCMSzYs0/EZEnfhdsY2yjxOZZIIBAcXxDfweWI2JTPK7UDSF/f6GG26w3zBXrlx2DGIj5HdkX0V4c07g8ddee83u+0hppMnueZn3zWfgeBDhw/6O64HrgRDhILEl4h5mbqlSiODygx1mkBlM33nnnYpoRYBkFFvDhg2zqAQz0Ni7EEMMphg0MThiIMKAmEETkQdmvhn4IrYYUNIQG6FCrgyDLAaGDL7Z3xAlCK+qVauaSGOwXbNmTRNuDPIQStj3QiVYbPE/Azm2Hw5EK+bPn2+DTT4TN/o6EXkjGsPMP5ZdhCOCA3Fx3HHHWVNdvvNoDSDTEsl9j+gUvxWCiUEmAoZIDb8znzWtKOG359zC52V/IE+K3xgxxEQPkT6+J34DIlQ0O2b7RN4ZyLNPIEj4n+gHlkT2I/Y3Iqf89VVW2T8QcVgSgwX00qVL7TsvUaKE/Y9FkfccDEIIEfDqq6/apAGvyWtTcZXPxvvNzmQT+z3nVLYVLLbYVxDsiAsEoxdbRBBff/11EyXZIZrnHb4vRBRCg+MSsYiw4reoUaOGiSgm7Pic2In5nYhmcl3he8BGiFWQqBjHOs8l0omgpkk+IpfzQ9pJwEiS3e+HiR/2Fc5TInwktkR2OfSvHei+wP9CxCVcLBhUMOPLbC42Jwbh7LrZTXIXf8PsMgPOeIABDWKGgS6DT4QW/4cKgymiUxs3brQmtQyKGMQSPeBGNIqZaQapNJMlSsAMOJERBq/YxIhOMUBHOLE93gdRMbbJIA4hxsCZyCoWMQahCCRESzgg1Bi0M8Dz/4cj2oDoFQKB2XwsUY0aNbJjydue+E64z+NE6/xrVqxYMez3Hw6R3Pf4rTgnIHSIzn355Zd27vCChv0qWOggIhBkiC4+N/sawoPoEe+J9RGtCDDEKJZEBvEIHn7/k08+2fYRnsOAHjFGzg/fKcv43tkm3yd5gQhfRGCwMGLwzrq8dyaTsLXyfA/7HYN9xD+PcZ8cIvYzonZsO7tRfY6LDRs22HvltTkW2Kd5HS82OTZ4r+wzWBl5DpMZ2SGa5x32f+yOCFx+Q34/rIAsoxAM0WyEFt8fIovPy/98x9gmEVKISy9C2a+YuGG/Iq+RSRuuR9F0VGT3++G9s49m93dKdchpZQIHK7IQ4aDIlkgI2E2xeJHgzkWeBqTM/kfzQpdKJGNkKxGJZGQLfP5PcJTK5/cweA6GYwwhxqA/J4+raO17fE6iP9gi+VyIIiJ9DJAZPIcj4LMLAh47IoIdEAT83oj2tBBhIvJCdIyBPoIAkc/xQJSW3zRSvxO/PQISoUXUxoPoQNwxMeFfi8+A2CASl1EOVFaJp/NOPJLd7weBXqhQIZtIEOGjyJbILsqcFAkBF3ouGuRvUXpXOVpCHBwG5GntgIistEILOJ6YyEiW44rPiGglPwfbGLYwIoV8H4h4bHBpi1VEG8QMhX8YQHOjQmRaocUsOhEJ8riw7jFQJvKF2KKAAxHJSAtitkVELlhoAVHVtJE4PkOFChWyLbRE9GHCIb1jXQiRs+goFAkFs/zYWIQQIisgUrDz+ag4AqZy5cpmHWS2Gttq2kqTsYLcwYEDB5p9DBsbRTuwrZFPRIENcqiEyCpELCW2hIg9OgqFEEIkPeRqIViwIFNFjzyepk2bWi4G+aDkdMUKcsso0kDZevLnmFCi2EbDhg2toAZ5Z0KECpMIEltCxB4dhUIIIVICBp4UDKBnFQUuaFKLTa5cuXJWXQ6xQwEen+sWbSi2QZXIxx9/3IpvUDWOHC3eI3bp4AbMQoSKbIRCxAc6CoUQQqQU5DxRZIIefeQezZ071wpo0DOLlgGUBycpPlog5oioYWPkdSg5T7VCCmDQzoKIFpX/hMgOEltCxAc6CoUQQqQk5HBhJSTSRXn32bNnWz8lqv/de++91nsr0qKLCoOILPo+0bOKIh28Dk2n6YMW3PBYiOwgsSVEfKCjUAghRMpCpT0KT1Bmnya9CC4iTO3bt7fy6zR8pt8SDZPDhdLzNEmm+IVvGk1PLfK0EHaIPd+fS4hIIbElRHygo1AIIUTKg9BBAPXs2dNdcMEF1g+LJrg0vl21apV78MEHD/THCoV9+/aZqBozZozlZNWsWdO98sor1teqd+/erk6dOjnaRFqkDhJbQsQHOgqFEEKIAEceeaT15aKBKdbCESNGWC5Xu3bt3Msvv2yii3LslNXODIpfPPvss65v3772fEQbzYAnT55s9kEiZ4g5IaKFxJYQ8YGOQiGEECIIrIXkc7Vu3dpE1ttvv22l2MnnIjo1adIkK6Kxe/duG9AGQ47X/Pnz3cMPP2w9vrp06WL9s5555hmrLki/rzPPPFODYBF1JLaEiA90FAohhBDpgLWQXCqshVgMx40bZ/Y/el8VKFDA8rmIdvl8Lvp3UbJ9w4YNJrIKFSrkhgwZ4n788UfXo0cPKzePABMiJ5DYEiI+OOS/B/NCCCGSnltuucU99dRTgXuxBftW3bp1XeHChc2GtXTpUos0pAI0s8ViRsGG+++/34o25MuXL/BochJP+15mcKn85Zdf3GuvvWb7ZK1atVylSpUs/4rKgpSQJxp20003mfgi+nXMMce4G2+80SoMpso+HAqJ8tvHiux+P0RXqbaJ6BfhQ7SaCqJcm4QIB4ktIUTciq1URmIrftmyZYs1H/7qq69cixYtrG8X0SuaEdMcefXq1WY5xDZIDphIH4mtzMnu90Pklf3wnHPOCSwR4SCxJbKL4stCCCFECBQsWNAKXFx99dVWtXDWrFmWl/XQQw+5ww47zAZmpUuXltASMeXPP/9UOwEh4gBFtoQQcTXDPH78eLdkyZKUt13lzZvXLIXJXrEu0aMbDGhpVLx582aLImAdlGUwa1D6fs+ePYF7Ii3Fixd3HTt2DNwLHaLjrVq1cvnz5w8sEeGgyJbILhJbQgjZeUTM0L4nRHRAILRp0ybprcihwrD3u+++c0cffbTlWR4MiS2RXWQjFEIIIYRIMqhGGGkbIb3niEjedtttrlu3blZ5M7M5+88//9xyGDNah7zHPn362Pa40UA8mvCdUOCGJuNUF/36668DjwgRPSS2hBBCCCGSjGiUfv/mm2/cSSed5B577DHXv39/K2TEsueff94tWrTIRJW/v2bNGhNn7777rpsyZYrbsWOHbWPx4sVmF1+/fr3bt2+fbW/w4MHWAPzNN9+0YjM8xnMoRsPnWLZsmfWqQ5z9/vvv7o033rC2C0SovvjiC/fqq6+a/Xzbtm3ujz/+cOvWrbOqoORTsh164gEW37PPPtv9+uuvLleuXPbaIrLwO1NJmN/rpZdecj///HPgkczhd964caP74YcfAkuSB4ktIYQQQogkI5JiCxG1f/9++3/v3r3uo48+sqIwLEf0YMdDKDFYnj17tjv99NMt6kXkCAHE49OnTzfxtXbtWnt85syZB7aHuNq0aZP1oWOw/eKLL7oTTzzRWiiQD0l0jBL277//vok31kVM8Vq0Xvjss89MZNFQ/MsvvzRxxuv4Hni8N0BsnXDCCWZfLleunPqQRQF+S3Ix6U3I/kFTeH4T9gd+D/YBfk9EGL/Zxx9/bL8ndk1+d/Yh1vP7BMKY7RElpc8hz2f5b7/9ZsKb9XiM/T1e0V4mhBBCCJFkRFJsMTAeO3as/b9z504TMwySGQgT0ZoxY4aJHsQQ4qp8+fLu2muvdaeddpoNuulJh9Ch4A/96hhUM0AGBs9sjwbg9K9j0E0/O8TZ8uXL7XkMvomWXXzxxTYYf+utt0xA8XoM2C+55BJ7HSJYH374oTv//POtITnvCVEXXIiFnnj0MsyTJ4/EVpQ499xz3aWXXmrFWRDcEyZMMFHOPjNx4kTbX1jGb8XvSr9CxDH7AiKeiCTtNUaPHm3W0hEjRtg+MXToUIuKspznsmzatGm2byK6MrKrxhrtZUIIIYQQSUYkxRYCiygCXHTRRe7WW291tWvXtohVyZIl3QMPPOAefPBBG2CTJ4YIY/CMcCJa5WHgTMSqV69e1uwbSpQoYa0Ubr/9douCsE0qez7yyCPu7rvvtgqfjRo1stYKDMwRSuR3DRw40F1//fXWboFiF1gCEXdsgygY1sIGDRq4du3aqQ1DBGAf8HbMg0FOHNHDBQsWuPr169tvyG+K5ZNtYOEkOopllN+uSJEitl9RgRNBXaZMGfs92X+xirIPNWzY0NWoUcNVq1bNValSxX377bdmF73jjjusDcd7770XePX4Q2JLCCGEECLJiKTYwgbGAJlBLxZAD0KncuXKbtCgQRatQuwguBBTK1euNGHFjfV4jIgH0SbWRWwhzPz2ypYta9tH1CGo2Ab2QIQS0Yvu3bvbQLtChQpW5ALxRVSLQTmDeV6DiBqvx/PpdTds2DAbkPPaInyIIpFXl9X8K6pgUmW2Z8+eJqa8IOZGn0IEdt26dW1/qF69uoku9gvg9yfXi/Yn/I5Eq9gH2DeIcgbf2H+IlPJ8XiNeUel3IYTKb4uYoX1PiOhw1113uX79+pltLrtgAWOgfMUVVwSWpA6pXvqdPCk+O+dqopgHA3sn3xnRSEAQY/NDXBG1xAKInfDyyy93xYoVM1shQooIJEVOWJ9oFnld55xzjolmRHerVq2spyH2T8Q/uXcILopx8D+RUYqfsCzekNgSQmjAK2KG9j0hogP2KioGHnvssYEl4TN8+HBXsWLFLA22k41UFltY8xBD99xzj0UisyJkvKzw66YnM1h2sG1lZR0IXi8r68cC2QiFEEIIIZIMBqGRsBGyHSIJRBRE6kCJfgpQ9OjRI8tCC1gveF1/P/jGfpne8uBbVtbhFrxevCKxJYQQQgiRZEQqZ+vPP/+06A65UCL5QVwT0aKXGYVQzjzzzLgWMomAxJYQQgghRJKBSIqE2KKyILk2kdiWiG8Q6JTVp/Q61sHgYigifHTkCCGEEEIkERQYoDcVf4lUZAcvthTdSDwQ3PS5QkQdDApTUAhlzZo1rkuXLla0QkQGiS0hhBBCiAQHUcWA+d1337Uy6ZTYpk/VvHnz3G+//Ra26EJsHX744RJbUQIhRJU9eodRMIiS9ojkjEBA0Uvsm2++CSxJH9ajxP7IkSOtlLrvk5YePEYPM6r+URWQ6n4ickhsCSGEEEIkMAgirF+IKxrJ0vCXCnpDhgxxmzZtMvH1wgsvWLQrVGQjjD6UQqdBM5VZ7733XnfcccdZ6XOE0o4dO0wor1+/3ioDbtu2zW3cuNHNnz/f+o/R+2rPnj32GOLK98KiB9VZZ51l/9PPKqM+VOwTo0aNcrt27bJ2ARJakUdHjhBCCCFEAkIEhMgV+TUMuNu3b++6det2oJgFvbEocsAyol6IMUTZt99+m+VIlyJb0QOh48XRhg0brDAFlR+JMBG9Ov/889348ePd1q1b3aJFi1z+/PnN5rd//36LiGERJCq2bNkyawK8efNmE24enk//KS+60sLr0/iZfYHIGr+ziDwSW0IIIYQQCQIDY2xfy5cvt7LcDL47derkbr75ZleoUCGLaARDRIqKckROWH/79u2uZ8+eJtIQUgcTXT/++KP16pLYijwIXyKPsGXLFrdu3TqzBxK9InL13HPPuQ8//NAiWUSmKlWq5K666ir7PWj2W7ZsWffDDz9YWf5XX33Vilt48QannHKKCW/+pv39WO/xxx93J510kmvbtq0JcxEdJLaEEEIIIRIAbxckkrVw4UI3YMAAs36dffbZWRJDRD+Ifj3xxBM2yEd8kauTmb2Q6Mlpp50msRVhfvnlF8uv47eDK6+80rVq1cpdeOGFJpCaNm3qhg4d6jp06GARLX57SvC///77JqCxdgK5WQgzilrUqVMnS78Tkc3BgwebOG/Tpo2EVpSR2BJCCCGEiGO8XRAbIHZBbw0kKhEOwfZC7Ghsd+bMmRZVSRvpYhmRERFZVqxY4QoXLmy/ISXWydPyFClSxERTx44dzTKIIDvmmGMsD49IFk2GEVtEuBDCBQoUMOHNOmkjm2nZt2+fGzFihLvoootckyZNDrq+yD6H/HVQZa8mqBAi4aECEom5QuQ02veESB9vF1y1apUVPzjvvPNco0aNbGAd6SjTzp073YwZM9wHH3xgEZWKFSu6I4880l6HgXm5cuVcqVKlAmunDvwGCN1+/fq5Rx99NGLfO/lzgwYNcg0bNnQXXHBBYGn04bPwujVq1LDfWEIrZ1BkSwghhBAijvB2QSrTURihf//+rnPnzlboINJCC7y9kBwe8oOIdHl7ITbCU089NbBm6kC5fHKgiBgherH0ke8WCciDw8qXL1++wJKcgd8X0Vy5cmUJrRxEYksIIYQQIg4g8sAA39sFydfp2rVr2HbBUMGG5l+TqA7vg8gaAi9VjFDY9BC4vXr1ssp+FB65//77zdpHdOuZZ55xn3/+ueVKhcvKlSstNwsbYE5yww032O9JdUORc8hGKISwJobM2gmR01BF7emnnw7cEyL1YBgWbBekXDf2MooixLq3FfZCcrkoyoC9sEKFCu6oo46KSnQtlvAbYO2jtxW/AdUb+bzkSgX/BlTwmzt3rpVbx87ZsmVLd/zxx4f0O/E6VIOkoMUZZ5wRWJpzUBjl2WeftXwwPqeIPhJbQgg78XIxFf9k8eLFrkyZMpa7IKIDA0su+kKkItgF33jjDYukUOiAia+TTz458Gj8gJ2QiA79nyg3Xr9+fYuCJQPYBelpRUQR4UQZdApQZAaCiesDVkuKXFBoIquWQGyaNCPu3bt3YEnOQzl5RCWVLGMh+FINiS0hhMgAKnVhJfENQoUQIhJgF6Qa3Zw5c1zRokVdtWrVLFISz3k0VC3cvXu3CcOlS5ceKLKAOEzESBd2QSYZyY0jglWzZk13zjnnZPk3YPhMKXZ+x9mzZ7tixYq56tWrW0Qys23QO4vKg3Xr1g0syXn4LbEyIvqIsNGnS0SPQ++jjqQQQoh/8eabb7rLL7/cbDNCCJEdGJxjF6S3EoUKyPnBhkaxAkqrx9oyeDAQVER+EBWUDUeoEB2hjDyDdZruxrvo4jcgKoVlk98A0duiRQsTjkQWQ/kN+Ky4HhBoXCcQoogXbHpUGKQ0e9rvg9dHbNGYOJaTeLwvIlr8ZpMnT7aiGeFEKokKcuM7ZZuh7sOIPo4Dnpv2u/Lwnfl1vvrqK7Nw8p1ntH48osiWEEJkgCJbQohIEGwXpKcSVrV4tAuGCvbCcePGuU8//dQs1+SaxWuD3HDsgqGCmF6yZIl74YUXzCKd1l64Zs0a2w+4tsQLRFd5T8ReQi3Ecuedd1ofMCJ1tCZg8uCEE04IPHpwKNTBpCbNnDOKBnLsLFu2zJUvX97t2LHD1iMKnEgosiWEEBmgyJYQIjswEGUmftSoUVZ57pprrnF16tRJmnynww8/3F1yySUW6dq2bZvldSFqcuXKFTeFNLALMljnNyCS0qxZM1evXj0TXJEGIUB5fq4bRHvGjx9v5eIR1rzeiy++6CpVqhRXhSkKFixo73XSpEmWjxfK9Y7cL6pXXnfddW7Lli22v/P7Uy4f0YngpH8bghPrKbbL5cuX2+OsS0T0iy++sMqbPA9hRfNuom7kkk+dOtUmJxDz2DOJHE6ZMsX2L1oS8JuOHTvWol9Ud4zXaJfElhBCZIDElhAiVBj4MXDELvjEE0/8wy7IoDtcuyBCgcEof+GXX36x12J7vAaV8hhsMuD3A1fu+/fDgNqv721ffj2Whfu+2E6wvdBX9IulvZDPyWf0dkEG+TfddJPZBekZFu5nzQp81rT2QkQWUS0iMw0aNIir6B/fRaFChazvFxGuiy++2CyQWQFBRc4h+zWWzL1791r08MYbb7QJBUrk892zDyDMKCbC5EOfPn1MfPFdIYaBiBiviw2T34/H2A7RwrVr19o6vFcKKiEMicLx3FtvvdW99957FlmN5u+aHSS2hBAiAyS2hBChgHDBlsWsPANP+lVVrVrVBobZFRyIGGzNDEgZuE6YMMGiBOeee66bPn26DUCJAPh+UAzwd+3aZSKM+19++aUNSok2EA3A+jV69Gj38ssvmwgoWbJkpoUdsgKiq3Tp0iZqsOu99NJL9j1gMSMKlhMgIBcsWODGjBljnwurW+3atWNSyIPPTP4W+wAimd+QSBdRmlDsdtEGkVK8eHGLTiK4EC4IpIMRLLYouIHA/eSTT0xI8d2XKFHColAIKPZb9gP2UQqrEAnj92DSAHFK3iL3+X7YD1mGgEe0IZq5DrPP8nrcxwLK/oaopR8a+53ElhBCJBgSW0KIrOLtUQw8vV0wkk1rsVoxmGW7RI74S9SE89O+ffvMAkZUAnFDhTwEBgNgBvZEc4gSEFVgwOrXZ0CLWGOAfNlll0VMEAXbCxk8Dx8+3AbbvFa0IMrBIN/bBfkNqPgXDbtgqHh7IdFNopCIcYQNAgPRFS8iAWHIPkV0CvF9MMFFzzHELfvmRx99ZCKbqBSiiu8dCyDRrJEjR7oqVarY749AwwKI6EKMUfQCQcXz2Q7P530QGea9sB6WQ4p4cIzR+43fmgqSTCSwf2/YsEFiSwghEhGJLSFEVlm/fr1FjhA8zL5z3ohkJIVBKYNMZvIZsDKYpYIeg1AGt+vWrbNBJwN43guij3wcxJWPsCB8sHZhG0NwLVy40LbN/0QbIiW2PIiMb775xgbOFDUgehJJGJhjM0NUDhkyxL6fnLILhgr7AuKW34TrCsKC6CNRGX4/HsvpyFta+L2IfCJ8eF9ESTOLdvKe+X353hH/fDY+C/sY+yFNsH3xDLaFsGT/RUDVqlXLxBf7MKLc79usx/r+tyXHjRwu9l+2xfd27bXX2u9L1IzXYRvcj/X3lxGqRiiEEBmgaoRCiFDAEkWj2w8++MAGkI0bN46YXYy8FQQV26TaHcKJPJmmTZua+GKwyoCTCnjDhg2z5xBNwhLG+6LcOHlDDzzwgHvqqafM2sVgn4Etlq8ePXpELArE673yyismPolAtG7dOqJRPiCiQgSGSTFsmjfffHPC9YtCTNAcGbslApjfMqvNkaMN+wi5ZZTGF9lDYksIITKAmWRmzTKb2RNCiGCwsDHbj2WP3KFy5cpZs1ssVdmZeScfjBuCiL8IJAQMs/vYrDhf8T/CAysh74H7CC6sa0QFGNwTxUKUsQzBRnSCKByTStk91/GaiAfytSjVTQQHARTJCBOiEhFHbhyRFOySCLpEPU8zDPefaebMmRbZYX/BdhjLz4RgRtTzfrCEivCR2BJCiL9gsEIJWuwIDz74oFkcrr76ahscYXlg4HTDDTfYAIekcwY0DJ5YXwgh0gMBRF4LuUQ1a9a0QTRiKV7tTuHAMJJ+W1gFGZxjoySKljdv3oh9Tl4DoUgjZcqBk6dDhA9BEgurILlzkJUiEqHw448/uvnz51vEDttl8+bNbcIvVnZIJg74rAh2ET4SW0II8RfkLnBxoyfIlVdeaRWZ/IWOGcdBgwa5u+++29YlmZxEZyqCVatWTZEvIUSmBNsLKQqA1S+eqtGFS6raBekFhRBBQEcDby+kUiR5TPFkLxShowIZQoiUh4s5FzYGQeQ0UJWLBGFKyxK5oiISlhvWY4aP2Udmb0nKpjllsjQoFUJEByIgnF/InyLaRel17HycYzh/JFqkC7sgE1KUjmeSiqa2TDxhSYwUWOvIRSN3CGFDUQQiZpESqZzTyVmbNWuW/eVcjqAjfwrLJcvHjRtnlk2idOTB0aSYwiNEK5ls4/fDCfHcc89ZAQeuF5H4LZnAQ7xiw+SzU70Q5wWTf/FUvVBkDYktIUTKw+wsF04qZVFalr8kj9ORnplUbIP0qGGwxMw0ScP0/9i4caNdhJNhhloIEV0YhCOsGJSTA4M9md5YTOJwHomHanSZgRGKiaZFixZZKXfOe0SZmJzi/0haBpn8QtxQ2psCDdgvI11dkNfB+kj1PZwKlMvn81GVEdHEtaBNmzYmwBBVWCXbtWtnvxOCi+dhJee5RJ/oG0V+U6S+B7bD5B55aVTkIw9v2rRpdt3hteOpMbLIHEljIUTKQ3I4F1CsG/TqePzxx23Wk+RyRBj/AwKLCy4znQg0/kpoCSFChUH69ddfb82GqSjYt29f98wzz9j/8QjnO6I3vE8G+9iq27ZtG9G8rGCILiFMGzZsaGIjWlZtxBv5X1wD+IxYIBFanOexRj799NMHSpcjsB5++GH32WefWbQJscb14bHHHnOTJ08ObDE68L6wLCJsyVujKqVIHJSzJYQQf8GFlR4z9Meh2SQXXC5wWAURWSQJI6yY+eS0yTrffvutVdyK59loIUR8w8AdWx6WOXKBIlW9MBLwvohkUbSBnknY2ojyRNPGxvmV8yyl7rH3ETXCokg0J5Kii0k0BC7RMybbEI5EjzinE0VDaCGyONcjdHA1ILz4Tfi7efNmE2is+/3331vhExopR1oYYjelwAoRNhoN813wXpUrnDhIbAkhxF9wceeihm/fwzKiV/jk04K1EDGmyJYQIlKQz0UuFINrGvNWrVrVSrLnpOjyYgcbHQUaaJpMrhSNZXNa/HH+pTgGNwROq1atTIRGQmggtsiF4vvlPI6Q5LzORBuvRVNfmkTTL43oF98HDXWpVIvIwmpOvtrq1ast+kYkjjyrSAhRfgNEINZGBCeWdqrjcn1SvlbiIbElhBAZoKbGQohYwGCe6oUM5ImsN2vWLGINhzOD16W6IBF9BETLli1NeMQanAVEliZOnGiVCCmWQcQrOxBRxJLH5yQ6FS8gMF977TXLW0Nc3XTTTelO+InEQWJLCCEyQGJLCBErEANYlbEXYiHDXki0Kxr2Quxz2AVpwoxdkKIP5KzGUxTFR3vIk6JQBCIJu2Wk7YWxAmeF/62xC/JbYxdUJCvxkdgSQogMkNgSQsQD2AsZhDMYZxBepUoVq5SaHdHF8I/y6tjjiGbRzoIeg7GwC4ZKWnshEThEaKSbDEcbfgNfjIOiINgF69WrJ7tgkiGxJYQQGSCxJYSIJ4LthRTzoSBDOPbCtHZBrGo5YVOMNNgLsQJSDZDCHZGwF+YU3i74zjvvWMNi2QWTF4ktIYTIAIktIUS8gb3QW84opkE5cKJd2P4OFpFKBLtgqDCMxV5I9ULshWeddZZ9H1QSjMdIV1q7IJUOiSYqkpW8SGwJIUQGSGwJIeKZtPZCxBP2wuCBO8M87ILLli1zr776qtkFr7jiioSwC4YK0SLE5MKFC81eSENkIl6xFl38BtgFaaJMRJHmx9gFlZOVGkhsCSFEBkhsCSESgWB7IQN57HTYAr1dkJygQoUKmfhIRLtgqHh74ZQpUyyX67rrrouZvRABOGfOHKsuSAl5fgPZBVMLiS0hhMgAiS0hRKIQbC+cO3euFVugFxR2QQpqIDpSKYrC8Bax6asX0hMLy15OVS/kt0BgvfXWW9arjNembL0iWamHxJYQQmSAxJYQIhGh+W7nzp3doEGDktIuGCpElyhEQa4akb0bbrjBhE+k7YUMqb1dcPr06RZlrFu3ruyCKY7ElhBCZIDElhAiEcFG16lTJzdy5MjAEgHRtBcG2wWJot14442yCwpDMlsIIYQQIon4888/k6LRb6QhklWmTBk3YMAAs/WNGDHCDRkyxK1fv96+s3DALjhr1izXo0cP991337kuXbqY0JXQEh6JLSGEEEKIJALTkmxr6YOl8uijj3Zly5Z1Dz30kCtWrJhFurBcbtu2zaJfB4PvlwqP8+bNc3369HHbt293Xbt2tWiWLIMiLdobhBBCCCGSCKI0GvAfnCOPPNJVr17d3Xfffa5q1arusccecw8//LDbvHlzYI1/g12QEvqIrHXr1rm+ffu69u3bW2NifeciPbRXCCGEEEIkEVQm1MA/62AvJNLVv39/V7t2bbMXPvHEE/+wF2IXnDlzptkF9+/fbzm92AVPPfVUe1yIjNCRKIQQQgiRREhshY63F5LThb2wRIkSB+yFFL4gkrVz584DdkGqPOo7FllBe4kQQgghRBIhsZU9sBdWq1bN7IWVKlUy0YVd8JZbbpFdUISM9hYhhBBCiCRC1QgjA/ZCIly5c+eWXVCEjcSWEEIIIUQSQbW8VG9kLES8ILElhBBCCJFEKLIlRPwgsSWEEEIIkUQoZ0uI+EFHohBCCCFEEiGxJUT8oCNRCCGEECKJkNgSIn7QkSiEEEIIkUQgtpSzJUR8ILElhBBCCJFEILZUjVCI+EBiSwghhBAiiVA1QiHiB4ktIYQQQogkQjlbQsQPOhKFEEIIIZIIiS0h4gcdiUIIIYQQSYTElhDxg45EIYQQQogkQtUIhYgfJLaEEEIIIZIIVSMUIn6Q2BJCCCGESCJUjVCI+EFiSwghhBAiiVDOlhDxg45EIYQQQogkQmJLiPhBR6IQQgghRBKhAhlCxA8SW0IIIYQQSYQiW0LEDzoShRBCCCGSCIktIeIHHYlCCCGEEEkE1QgltoSID3QkCiGEEEIkEaeffrorWLBg4J4QIpZIbAkhhBBCJCi//PKL+/XXX93evXvdp59+av8XKVLElS9f3n399dfuxx9/dP/973/dt99+63777Tf3ww8/BJ4phMgJJLaEEEIIIRKQP/74wy1ZssR99dVXbsyYMXZ75513LGfr999/d0OGDHGTJ082QTZp0iRbj/X3798f2IIQItpIbAkhhBBCJCCbN292hx9+uImuI444wt1yyy1u48aNlrMFxx57rD328ccf233WKVy4sFuxYoUJMiFE9JHYEkIIIYRIQPbs2eOOPPJI+x9hRW+tn376yWyDcMghh7iLL77YRBmRLmA9LId+HSFEdJHYEkIIIYRIQBBXRLEQUPv27bNb7ty5/9HQOFeuXO7UU09177//vgks1keECSFyBoktIYQQQogEhIqDRLdOOeUUd8EFF7iJEye6K6+80q1du9bshEWLFnXHHXecu+SSS1zt2rUtCrZ9+3Z7nkrDC5Ez6EgTQgghhEhAiFqddtppbvfu3e7qq692gwYNsrLvLM+bN6+rW7eu/X/MMce4G2+80XK2qFBYrFgxRbeEyCEktoQQQgghEhCiUxUrVnRnnnlmYMnfUHWQW1qOPvpoV6dOHRNfQoicQWJLCCGEECKJ+OSTT9y2bdsC94QQseSQ/6ocjRBC/AOafn744Ydu9OjR7vLLL3fVq1d3+fLl+0fSuRAi8eFY//zzzwP3koe5c+e6E044wZUrVy6wJHzI76IAR6ry/fffu/vuu889+uijgSVChIbElhBCBKBK1+rVq924cePMltOwYUO3fv16t3TpUpcnTx7Xrl07G8AIIZKDN998002dOtWVLFkysEQE895771nvLqyKqYrElsguEltCiJTnt99+cwsWLHALFy60GVwGF5RKJh+CUyT9aWgCOmnSJFekSBHXoEEDlz9/fiWYC5HgILb279/vmjRpElgigqG6IZEtiS2JLRE+ytkSQqQsWIiWLFni7rnnHvfZZ5+5m266yd19991WzcuXRUZQUcGLwcbAgQOtvPLjjz/uxo8fb/YjomFCCCGEEOkhsSWESDkQSKtWrXI9evRw77zzjuvQoYO79dZbTUhllpd14oknulq1armHH37Y/h8+fLh77LHH3HfffRdYQwghhBDif0hsCSFSBuyCJI7fe++97rXXXnP9+vVz3bt3d+ecc05IlkAag2Il7N+/vytfvrxtY8iQIe6LL74w26EQQgghBEhsCSGSHuyCixcvNrvg5s2bXatWrcwuSDNQbxcMFW8vrFChgtkLL7zwQtkLhRBCCPEPJLaEEElLsF0QsYVdsH379q5w4cIRLeMebC886aST3LBhw8xeSGK1EEIIIVIXiS0hRNKRnl0QwRWqXTBUsBfWr1/fRBcRr65du7onnnhC9kIhhBAiRZHYEkIkDZnZBXOqTDuvc/jhh1su1yOPPOKKFi1q9sJnn33WbdmyRfZCIYQQIoWQ2BJCJDzeLkihCkq5YxekV1ak7YKhgr2wZs2aFuk6+eSTrXohvVpkLxRCCCFSA4ktIUTCgl3w9ddft0jWnDlz3AMPPHCgumC4hS+igbcXUkiDfl1dunSxaJfshUIIIURyI7ElhEg4sAvSH4ucLKx5rVu3NsF16qmn5phdMFR4X4cddpjZCwcNGuSKFy9+wF6I5VH2QiGEECL5kNgSQiQM//nPfw7YBZcuXWqNiLELnn/++TG1C4YK9sIaNWocsBc++eSTbvDgwSYihRBCCJE8SGwJIeIebxfs2bNnXNsFQyXYXli5cmV31113WbRr69atshcKIYQQSYDElhAibiHSs2jRIrML0ii4TZs2cW8XDBVvL7zsssssulWiRAkrFz9u3DjZC0XCwrH7yy+/uG3btrm1a9fa/0B0mmU//vij/b97926bTNm3b589nizw2bZv3+5++uknu09RnG+++cb+h/3797u9e/fa/3z+r776yv36669uw4YNB74r1uEcwHLs0qwHe/bssf95jU8//dS9//777uuvv87xCRrOTfxuvJd169bZe/Tv4ffff7f7/OXGe+a78N+HEKnEoff9ReB/IYSIOVysGUQwgKB0OoOUm266yVWvXt1KuEcykrVz506z8u3atcsdffTRbseOHdaUeP78+fYeJk6caIMgBg3kWeXOndudfvrpbuzYsW706NFmAcyfP3/EhB+RLqJ1VatWtffy4osvujVr1riSJUtaOflkEZgiuWHwzSTJCSecYJMGDMQ5vgoUKGBCgsj0/7d3HmBSlOna/s4xixkDCogBQTCgKAZQRAkqhmMOoGJA15wwp901i5GgYkLELKKAgoKosK4JUFkUE2BCWcXAypp1z//v/e6UZxwnMqm7576vq6+erq6urq6eqv6e73kDYoz/9aFDh0Z7hJdffjmtvvrqcQ7UJZmYadu2bdGSmmHhwoVReZRjwDXipZdeSjNmzEgbb7xxPE/OKSKU3E2uQ48//nhcX0455ZRYtuaaa6YxY8bE8enQoUM69dRT4zg1adIkDR8+PLY5bdq0qL6KkKHlBeHUyy23XGy/pmCfuc7x3ZUEoczziMaxY8emqVOnpm233TauVYi/Y445Jm211Vax7ogRI9Jaa60VYrJFixZ5dS3j/3nSpElp5513LloiUjV0tkQkZ/j+++8jXJDeWNwzKMuaEdd0uCCzsgxmyPlq2rRpDLqoDvjLL7/EIIgBEANDBjrMHg8YMCCeI8SPkvIXXHBBDC5YVtMw4Nxrr71+E16I21V85lgkF+H/c+bMmeE+M1GyyiqrpAMOOCC9+eabRWv8J2cRscX5Bvy/r7POOmn69OnxuBDgetK5c+cQmlVxcxBas2bNCjcIMYMwAYTUU0899avrhaOEcOH6xY1wZEKs68oJzybEEI9cL3fbbbe04YYbxr5ncJ1EDCJmAQHJ5BVCVKQh8V//vjD6yy0iOQGO0l133ZX233//1KNHj7TkkksWPVPzIOyYeT7xxBPDzXrxxRdjhpYB0pAhQ1KnTp0idHG//faLQc7o0aNTr1690gYbbJAGDhwYAyEGD5deemnM5NYmhF0xwz1nzpy09NJLx6xwNjNcfIa4+PKMksvKe1x8OZS3LhR/XHw5lLcuFH9cfDmU9lxF9xk8rmjdkvdQ2XVL3kNl1y15D/xd8nFGWc9VdA/8XfJxafdQ2rolH1fmHpgU4YYTQtEaBtuEyE6cODGdfPLJcd7hWO+zzz4xMH/nnXdiOU4ITg1CrLTt8ndZy4vfQ/F1ofjjksunTJkS5zHneU2BUKLKKE4OnxFHBPeJa8aBBx4Y63BN4TMffPDBcX4zucQ1b+TIkXE9wd1GzCBOuB4+8sgjqWXLlhFyzHUAB4nJniOPPDLWZ9sPPPBAOuGEE2r0eoS7j8Br165d0ZL/sPzyy8c1k8+Da7XllluGWOb6uPXWW6fPPvss3XzzzfGZCIdkwgpROH78+IgOyKdcW8TyhAkT0uWXX160RKRqKLZEJGfgR53wI0TXsssum4499tj4YS4+QKopmJmlGAWDvrfffjsGSAwQ6INF6BPOEoOgnXbaKZ5nMEH4TrNmzWIAtPnmm0fozBlnnFEropBLM/vEgAoBygzynnvuGTPdxS/b/F3VxxllPVfRPfB3yceVuQf+Lvm4MvdQ2XVL3kNl1y15D5Vdt+Q9VHadko8rcw/8XdHj0u6huuuWfAyEshHyS1jgvffeG4Nvzpm99947xBYhuZzbr732WrrnnnvSLbfc8mtIWpaXlG2r5D3wd8nHlbkH/i7+GBeOdgw1Kba4bvCZcOsQGtzj9HF9ycQWYX+EL/O+CBEG87vvvnvcc83DteJaxPnPOqNGjYrJHkQcg3+WcZ2k7QUTMIhWxCrr1KSQQWxxjBB6xeEzEerMdRKhyHfNPvMdEw6JuOQYIP64buK4ESJJuCRCjQiBfIHfH8RtTYeaSsNBsSUiOQdCiFlS3BxmhxmgrLvuujU+G0qoz+233x6hO4ThMDBE4Ky//voxuFiwYEGIKsJznnjiiZiBZ1DBjC37Rf4EuWQ1LbYIu2FQQnl7Zt0pcd+oUaOiZ0VyG0JwcWV23XXXEAmEEDLQZtBOWCHiYvvtt49BLOcV5x45WwgS8pLqEhwmBFFNiq3HHnssriNM5CA6Bg8enLbYYov4rBTAIWyZx1xvmFRCaOIAIWBwADkGhBDzugcffPBXsYVAfffddxOp9oQ18zeClTBMPgPCC6FTkyC2uPYi/EpCHhpCjzBv9qdNmzYxIYR7hcBGKHbv3j3+H9hXlnEM9t1331qPBhDJJRRbIpKzULGMAhEMNHB0EDZZKE0hQh4Gg04GJIi8Ll26hJOWTz3ERJgsYaKAPCMmJ4ChBtX5CBOkaERxOM8JSUOA1XWBjNoQW0zScI3CwcHRQUxRIITPz7HB+UPAsB7LeIzQ4jny3HhMSDPHjgqGhDmzj4hRjiPb4zneg1BnXsN1gkIWNR0FUJ7Y4nqFqOY6lU2E8XkR04QTlpwcY3KLz9y+fftaiVYQyVUUWyKS8xBaNHny5AibYdDCDG9NVyasL7gEMwtO7ggDG2a1CcVh8OSARKR2qQ2xVUiUJ7ZEpHIotkQkb6ir8MK6omS4ICKypks3i0jZKLbKR7ElUn0UWyKSdxB2RDL9o48+GlXPCC8kbCVfwgsJvyHfgcRyQmoo7264oEjdo9gqH8WWSPVRbIlI3pKFFz777LORqE1p4VwtK8yllv0lXJAKbFQXpJKX4YIi9Ydiq3wUWyLVR7ElInkPSdkU0qBkO+F4uRZeWDxckPDHY445JpLnRaR+UWyVj2JLpPrkf3a5iDR4CL8jHI/S7OR1nXnmmemmm26KktMIsfqCcEEqC5599tnRG4fy16eeeqpCS6Se4TpBnyv6U4mI1CY6W5LX8O/7yy+/xICavxl007+jrLAs1mFd1qtoHSrEkQPEzTCv3IXv6osvvkgjRoxIH330UZRM79ixY/R1IbyQ6oU4SXUVXsj/D04W4YL33XdfhAvSR8hwQZH6A3HFtYKS6jQUpnn6K6+8EjfCenW2SkdnS6T6KLYkryEH5oorroheI/Ru2XDDDdPRRx9dZqEE3IVbb7019e3bt8yqbzShpNEtvUwISTvooIOiB4oD5dwCMUyRCcrB4yAxWNpmm21+U2SCwVUWXkgDYsILaVhcW99l8XBBGpfyv6iLJVI/cI14//33o4LpnDlz0ieffBJhg/St4u+FCxdGg93ddttNsVUGii2R6qPYkrwGsXX99den/fffP7rYAw0emalkIE5HfTr204Ufp4P1JkyYEAPy77//Pp122mkxGKeqHa4HnfmzYgu77LJLiLhZs2alH374IbbzzTffhIvy2WefxewoQoz1WUaIGFXyhg0bFuufdNJJIf6k5mB2mmNPA9Rp06aFW9SjR4+45zsrC76X119/PT3yyCNRvXCnnXaKhqs1Vb0Qscc+jR8/Pm2xxRa/VhfM15L0IvkGQxmuz4QG4nC//fbbcf3OmigzeYbAomkyVUBZ98ILL4xrNJNwiq3SUWyJVJ/F/j24/FPR3yJ5B87FpEmTIoTsueeeCzcBccTgmp5FI0eOTEsuuWSIq8MOOyxCDhFJPIfYApwHZjZxtOjAP3PmzNSpU6f4m1vLli3T1KlTwxlhu3T0pws+A3a2Ryd/RBc/9oiBzp07R+ga6/La8mB9Zl8ZlOuclU52XPl+7r333nCOGjduHMK5W7duaZVVVqlQNPE/gPhBBPG9jBkzJsR469at47taFFHEfuFk4WLdcMMNEb56xBFHxKCEmXO/T5Hag/OP6y/nMxMvDz30UEyazZ07N673hO/SDgLRxXmKqGKi5tVXX437PfbYI/35z38OAcbzbdu2LdqyFIcWG/wOMkklIouGYkvyGsQWP7S4SAcffHBaY401oijCY489ll577bUQSAy0l1122bTJJpukRo0aRTgJYooZUNwQBsv8SDP4xiX5/PPPYz2qxjHjSRjKxx9/HIN1HAxcK96XH3LcLoTY6NGjU4sWLeKHnZlAXI6NNtqoQmcL0XbjjTfGPjF7WJ47UyggmubNmxciqSJBwrHme7njjjvimPK9EZrXrl27mLGuKgzCcEC7dOkSs92DBg2KECO+awYUlRVIDM74zu+6666YIT/nnHNCZLFPiiyR2oMogueffz7OP5zkp59+OpbvuOOOqU+fPnFNRkBNnDgx8rOYCON6TbgxyxFjPXv2TFdddVVMirz33nuKrXJQbIlUH8WW5DX8iDIYR9jwgwDMeOIWUZ2OgXCbNm1CkBFGQighcfo8R4gJ4uatt95K2267bQgpiisgmgg1zFwwtsdr+FHmhkggfBEXjXAVXodQwn3hhxwRhlvCehX9gPP+7DuDAIopIO4QjLy+EGHAg6tE6CZuVPPmzX8nTjiOfFf0zyIcFMFFgQl6UpFvVRPgZJGPhwuJsOZ9qEpGHh/fW1lOF981n+GWW26JghsM5Lp3794gRLJIXcN1lokZzk3E08MPPxwRDEQjbL311iGwdt9997TZZptF+PioUaNinSw/k1xbJtKYLOPG5BbX2wsuuCCuPaDYKh/Flkj1MWdL8hrEFm4SPwRZIQIG6/xAEA7YtWvXtOqqq4YrQvgf7gPOFYN2QkkYJCN0CD0kpAyhw/r8uBNuwg8yle0QW8ymMkDnhxwxRygboWMMAoAcLwYGCDRmV5k1zX7QKwOODzO1CBEG8Lgv5BdUFmZ8L7vsshBsiIUTTzwxBhZlweADccigpTJhdAgNipEwYEEoHXrooZV+bQbid+DAgSGwaEDMMcpej7jlGBAOhIjdcsst4xjgOtU2DOqoTkZIKsecAiqEh+KEcYlE8FFd8IEHHojwpD333DOcTl2swodzHweUQTkQGsx1hIF8eec3YcpDhw6N85nJk969e6cOHTrUyf8M1zT2Fye4KudnVeG8wVnKJi04h2l1sNVWW8W1tCpwnnE959rK+f/yyy/HNRgHmusuUQLkWXL9zc5L1uVzEkbOvhAmzDHmeHMuM2nGRBj7yO8Ckylct7i+ZsfFPlvlY86WSPVRbInkGAzuGDwgFnfeeecYQFTGOWGAgkPTr1+/X0UaYTSE2yAc2BZCDMGACCPkjYEGgxnyz3D0EI44fbvuumsMbIoPDHGbqOR41llnxaDq5ptvjpLqDOxIOCfvjYEozg/ilVAdBqTFQRAyOGKwhDOYCVdCOZmxZv/IpWDAVFPFK6oCgz0GxxQ5YbC49957x/eAe4q4ouAKx0saHhRXISQZJwWHnAE9ocj8ryMGOIcIYcaR3X777WMCiOI9THpwPjLJQJ4hLgHnJP/7TNBwvpNbigPPJBADf0QcEz6cP/w/EspMGDSTSEzkMBHBOUOoNOcZIoICMLwGl57949y+5pprYhkTQAcccED8D9ckTEIMGTIkHX744bHfXD/eeOON+MyVdaHZBq/hszEBxIQME1kINm6IuJJk70UINyHiOMxcr4Dr4PDhw+O7IsqA4849goHviX0tjmKrfBRbItVHsSWSgzDoR5iQe8bgAcFFWfPSBh4ZH374Yerfv3+E2yEUCIthZp0cJXrJMPvMYJBQSbaJE8ggD5cGQcHrGPDgJOHykAdXXOQhti655JII6WP/yDNDwLGP/BAjuBhMMrONG8hMM+9ZETiTiBk+Hz/qVXHzagtEH4NXZsezwhocl9p0CSS3KS62CFXDAafKaa9evWLQz7nAcv5X+L8hf4hBP8ID8YAIo5gD5x6Dfs5FwuAQQ5yruOIIB5xjHF0cXraJm3zIIYdEiBxlyhFO5KfyPOcMrj1ODecy5yZhugg/RBoTF+w35yGuOdVXcZNrikxs4RYxEcP+UMTm3HPPLVVsMdwgwoDPOnv27BCq/J3lvyIuEaMch5LnGhM8iE4cZj4bQoz3Q7QyMcO+4GBx4zrE9ZBjxvdEhVDOaSZLSk5cIbYQrnxv8ntwBxH0ii2RRcecLZEchIEGs9XkluE4McBgNpyBErlCOEMlYXaWH0aeJ7yRQQiFJQjFYaab5YTpIapwthh84FwhjBj0MCM+bty42AZCiRBMtpPBjDOCCpHGvjBDzACHASXbx+FiW4QmMvjkx5mBTkWwDjkX3NeHm1UafG5EFmGSWTEOQwYbNji+nHc4KAglBAG5PggcRBT/95xTuKGcT5xvCClEAevyN+cV4gIXmP8ptsNjtkF4Ki4XYoRzngkQnGLOMcQS5y7nJK/BXWUiBUHB+zKBghCkOicuEeKFMEaEBdcSnGomUtheSWf2pptuir6CVPks7YZ4Q5DwHlmodgYCiHxYQrC532effeJYsP/kPpYEscQ1iX3mfOeagzDiusFrOCZ8juLnGseMiZ3BgwdHMRsmjxB3XBv5LKzLRNB1110XoYIIU66XCF4mSBDHXNNozVGaK813w3En5ysXbrQSwf1nYq205+v6RlQEkQblTfSJSPnobInkCQwomDVm0EXICwKluBgqGUZIeB6hfogrXsPAi8HTCSecEIMXxBlhUMzoMivOIAbHihlmXvfHP/7xN4U6iocRMphkAMPMO7lsCC/cKZwpBi7MTjNAKxmyI5KvlOZscT5RiRKXCbGEe0W+HwVUKNDAcpwtziOqjmYDf0QRggDHC2eX1yCcyCNFkCA+2Dahf4TX8jpCi3G0qICJc8XreQ8mUxBBvA6XGlHCRAfbxdFBdCBArrzyynC2GDxXFq4huHcUEzr99NNDmBQnc7bYPvvF/vL4yCOPrHYxG0Qb1xAmbjh+hApyjSrueHG94nthHa6JvCdVBhG9CDdEGftz5plnRthyPkBBDz4vIaYiUhjobInkCThdzJITcsRsM+FEiC1CBplxZ+DDrDiuFY+5MZOLQGKwRMgSbtfFF18cg0Zmo5lrYRCSVWJkwET4IuE8JKQXF3PMMCPayB1hoIlgY/DDgIxZZbbNgJPBGYMkZtOrmiQvkqtQWIdzkHyq7G8cCAQWyxgcM8gn34/CFExakFOF4ELwMKlBrhXnJE4SIJZ4TF4RIgKRRQgvbhfbxInKnCLObcQE7034HGKK9+Jc5RzG1SFPjAkUzkuuD+SO4TgjOLK8ppLheWWBkCFEGEfujDPO+J3QAt6T9+NawjWFyR7Oedzg0lykimB7XFfGjh0b2yLcEqeQY4tTWNzxYsIHd4/XZOGB5Mgx0cS+0kuRaxEClHy4fIHvlesu372IFAY6WyJ5BqcsAyHCdhBdOFQ050QA1RRs/+6ifmHAAIZZdcJ+ROQ/1TkRUjRLL5kHlO9wjaHQDblM5G6WlufFOgjN+++/v2jJ/4GwJJetMrCdrKogOVaIS64zCMrSQhGZ9OF9mdDBWcflQxAiPBGjOPA4hYg1RCehjfkUAqyzJVJ4KLZE8gROVUIFSQ4nL4NBCTkjzCqT91CTie8i0nChoA6Dfhyt2ryu4AQWb7mAMMIVKwuqFeK+4/wQDo0oIY+UbeDMk8/GPiMUySMlTwvHLZ9QbIkUHootkRyFgQiJ5Nyyyl2E5hDGx41ZXx4XD/UTEakO5D8RPohoWZRQwIqgqAaiCYFEERDCnqmmiDNf1rWMSSWcLEQUDjv5qrjvCBMmnwgTJPQSF45CIBSZIMcM0ZJvEP6JQCRkXEQKA8WWSA5A3gHhMQwqGCyQ/J6ViKYqHtXFuDHLXNmcCxGRqkC7A4p/HHfccZGDWVMwzCBUkGsaoYL0/6PSZ0UVS3kdYYEUHKGwB0UwyN1iWzhchFCTs8ZkFE3SKZtPcR8crZruKVbTcM1HMJJbS1EhnL1MHCJI+T3gcbYe133CIVlfRPILxZYUFPxA0bSXpG1gxpRZ0KoIFF7Ljx8/crhHZRV5YCaVQQNFIRY1J4BtMMBBYPGeiC0KUzCrSXigrpVIbkCIGu0PODc576kcSLGa0uA6RD4XxSmAvC4mTuoCithQTIPrSFUgZ2rQoEFRbbQm9xWHnjBBHBsEBWXuuSZXBNdfnCsmnqiomuWLkit3ww03hLtPqwiun1RZZCiDG4dQLC8UMVfgePNbw+ekyizFTaiayDWfwiqXX355FDfif4jfB/7X+B2j8IqI5BdWI5SCgop8JGzT/JMfJRp5UtWJ2UDCVniecsv80NGzhcR2ZhHJf2IgwMwrP27E+1PKnIECVcF4LT+MCC9mGclpIG+KKn84ThSrYADGLG1Zwo73Zn3CXmi8SaUsyjYTqkNCOYnexOnT04RZXGcwRXIHQtPuu+++GPRzrnPucj2g/xYDZs7vl19+OQbLXEu4DpGDxPWBCSDED9cGSrlzXeFawXUHMcFjzvfsOkToMHDPdYbJHO4JL6PSHhX7eIzTzXtTIIIb6zFQZ18p+871jIE6peFxScqaFOIz0G+LthH0plrUyaMM9olS9oT+cczo0cQ1mf5ilSnBjlNFpUGuzVQazIQj+0nl0x49eoTootw9Lhb7e9ttt0XFVcRwVSbX6gOODy0zEFD8Rh1zzDHxu4ObyHeKYOazISB5TAVKKlUS4omT5yScSH6h2JKCgvCSrOQxIoaBBj/UNOslHAWRxI8XTXn5IWcZjRsZ1DDIGD58ePzgsYyZawYJ/PDzY4dIotxzFubHwAixRv4Bs978EOKEsR1+THGpWIf1CZ1hpjv7AcW1oncOg4+slDqDqFxp6isiv4UJGgQL1wVC2bhngMx5z4QMfbA436mUl5V979mzZwyOWY/zHocHEcI1gUkfXps5F7hhXEsIf+M6hPhCqHAdoQgEAoLrF6+jtxQhdAgsrjn8jHOt4trH9Y3tMJBHQHFNZDKoLBHCBBChd/Sk4rpUHaHFZ0DgEfZHJVOOS+/evUOgsl8VTSDxeo4Rx5Ly+fTt4nNx7BCXlMzH5SIigBvl3flOuLaybcIMc11oAcKcyTwcPj4X9whJfnuYaMvcScQ8/1M0qGYdctx4vmRzaRHJbXL/qiRSRRg80G+FCn1ZXxsGIQyOuNHHhB9wZkaZ/S3txxnRg0hDCDFIofcUs9mE+vEjT+8XwmFwuRiE0cMG8cTfwKz3ZZddlq644ooYIJGfQFPR888/P/Xp0ycGEvxo5sPAQET+AyHDiJzMeQJcaZp4M/FCM1/EFWKnJIQgch1hHcKbccGYpMH9wlEqOYDm2kDxCAQb78s1hkkcXoOQ41rGtQVXjOsJQgNBQ7lzBuZMGCG4uN4wWOf9S4MWD2y7ffv2iyy0mLhCEF566aVRgp0ee/Tz4zqJOKwMXFevvvrq+EwXXnhhNH4GPjMl6BGeJ598ckxYcXxpFs0xwz0jEgFRly9wnLMbQhJhxW9J8ZB1vn9EO6KM48t63PzNEMk/PGul4CBsh75TxPUjepgZJh6eQQ2DCkoEE7LHgIdwviyMMBNTxWEgw488gwcGPMBMKusj1vjhI+wnG0hlzhRCjYEBM87MviL6Cq0Xj0hDgzA+3GicakQXMHHDcq4jiBqKNBQvN545VrhhkF1rcLJZj+sTAoLX8hwDb7bNtYVtlxRATB517tw5XB8q83FdQXSUHIRzneJ6xjWM9yjLVSIMj+tTVWHgz8QW4ZLkGiH+CPm74IILQuxV1qXn+Dz++OPp2muvjfBA8q+IIACOCflMhHEjSBF0XGfZZz4fxw0nEeHF43yB3wwm2/gNYdJu8ODB4WjyPT7xxBPxPL9ZOF2Iedblu+R/obTeYyKS2yi2pOBgEJPNChLbzg8yP1jE+hM+yHMkXhNiww8cjTBxvmiCyY8dg4QsN4LZZ37oCF9BUDHLSk4VYTJsi4EPzhdO2sSJE8MpAwYLDK4YCJUcLIlI/sG1hBuDYJwkxAbXCUQMzhYODiKA60eLFi3C/aL8OPk4TABRnhyH++yzzw6npmvXruFcMTFEZT2uRbgYhBAisrLrUDahA1xPmMhBlA0YMCDcoCxHjOsMz/Nats9+MZg/99xzY6KI5aXBNaykUCsLPjPiiFBIBAIFHLhO8plw0Pjclc0nYlvkwV511VVxrBBsXFuz1yO0Bg4cGOLq6KOPDlFH+B2TV3xOPjvvf/zxx5dZxChX4bvCdeS3iWN24403Rngkn53/A/5feMz/AHlo5PISNUGYZ3EhLyL5gdUIRUREpFxwxxCDOC+IABy+rEJgVWHSasyYMZHXteeee4Z4LQ7uHmIOYYnQYLILEFYILdw6RCpOGKK1kCAPj+PLJKCIFAaKLREREfkdiCLcJ0QRuVS4MIgjXLzMbasqVFIksgCnjQqFRA5kMBzheUK3ydkiZ5biHbg5CC3uyW2i8iD7QE4YwqSQ4NgQEonIFJHCQLElIiIiv0IFQ/LMxo4dG3lZOFjcqLS6qBB+SLg2pc4RUuTMFgdhR2U+QgPJ/SLskrxbQrspKoIAYZ1nnnkmemvRTwuXq9BQbIkUHootERERCUGEi0X5dYYGhOmRZ1ZRyfaKoMUGfbNwoRBJCKiSEJ5I4RGKCvE8YYS0xKAhdJanRG8qepZdc801i+ys5TqKLZHCQ7ElIiJSC1DIgiIIuDT81OIW0XuqPPFCPhIFKFq1ahWFFPibogmVLTyxKNDri2JAFNYgVwiRxX5WtxgDDtmECROiyfKBBx4YVQpLfg6qONJXi2qGhxxySLwnoYMUveBxFiZIEQ0KSVAso5DzmRRbIoWH1QhFRERqAfKdzjnnnAjFQ0RRFIJCE5R2p0Q8QoMy8BSEIESOG84S4oPl5CdlZeapxMfzbIfX0UeLSn0Iuuye5axLE3YeI/CyBu08VxxcLATMoEGDQsTwXmeccUZU+0PMVEdo8b5UC8SBoskx2y1eaTCDfSX/in2kaiOVDdkfhF6vXr1+FVp8FopkUO7ewhEikm8s9ic8exEREalRKL0+f/78cLSorEdOEk2PL7roohAaiAyEDrlM9FSiKfGUKVOi9DetJnC0eIwTRiNjiknQd4peS5R0p8ExztG0adPi+TXXXDOdeuqpaebMmdFjEGGCeKE/FX2acNjYFn2rKDdPWB49BxE2tMqgZUV1W1UgtOib9fDDD0elQJotZ32zioMgpOk7n5GcLEq9k6NFSXR6IhYvAU9rDcTadtttV/CtNGi6z2dv2bJl0RIRyXd0tkRERGoJXBqEFGF6GU2bNk29e/cO14diEDTlJdQOUTZ79uwQIogs3KayQDhRoY/tI7BwonCv6PWHk0S1P8QYDYtpGIy7RnEJemKx/PDDD0+XXHJJFL6obrhgBiGT9DPkc9FjjObLpUFoJP21KB+P0MPlQ3Qi+GjyW7zCIGF1iDVCGyvbD0xEJJfwyiUiIlJL4MQgOmbMmBEiCmiCXFxQsA6OEA4VRSFwuHiMQAL+RkjhdhFOCOQ0sQ0KReBWZUKE5TgjLON1xaFc+gknnJD+8Ic/pHXXXffXZsjVhZBExOKQIUNCMPEexUu6ZxAGyXFgPcIGOS6EVeK+tWvXLvXs2fPXfDb2nZBKQh2POOKIX5eLiOQbii0REZFaZLXVVktdunT5VTxlECpGlT4q7+FA4Wrh9NDLCvFBVUAEygorrBCuFKF55GxVFtwvBNxZZ50VPbLY5tprr12joXiESZKbNXXq1HT++ef/rqR7BuLpscceix5aOHkUACGU8uqrr0477LBDFIQoLkBxvwiZ7Nu3b3x+EZF8xWqEIiIiNQw/reREUemPwg+EBFLogfA+3CmWsQ6FMBA/uFnkJ2V5U7hFuD78TXU68r9wr3Ct6C/F89zzGp7nHqeq+HLeg7wwHDGcJkQN+V41AU4buWAIwrIqDWawLwjFWbNmpZNPPjncO4p60FNr++23/10uFqXiL7300liX/LWaFIe5jtUIRQoPxZaIiEgNw0/rSy+9FKIiV+jUqVO1xRafiyqLd999dzhO5FiV1eyYdRGWw4cPD3FGOGAmAHHDyMPq2LHjb8QUApPS761bt0677rpr0dKGg2JLpPBQbImIiEiFMFwYN25cVE/ceeedIzSyPHDjCBOkMTKhkYCTR3VBKg62b98+lmXg/uF2kdN20EEHFS1tWCi2RAoPc7ZERESkXMihQiS999576bTTTouQxPKgzP15550XIouqg0C/r5tuuinttddevxNa5KY99dRT4ZplwkxEpBBQbImIiEipkAM2efLkCO3beOONo7gF+V9l5VHhfr3yyisROkh5eVwtcs1wuQYOHBiOGMVASkJ/KfK/KBlPqKGISKFgGKGIiIj8DkL+brnllqgSSKl2iniUB2GAFAWh0TLl32myDPPmzYuGxX369EkbbbRRLCsObhZC7Nhjj42qiQ0ZwwhFCg+dLREREfkVQvrGjh2brrzyytStW7cIG6xIaFGSftiwYSG2KAGP0GIul7BDXLFDDjmkVKFFpUQaHFNog7L0DR0qVnJMRKRw0NkSERGpJlTdo2lx9pNKCXccIe6zhsPlQc8pHI0ll1wyhAtNfCnlXpew77hM9LeiRD0CqGnTpkXPlg37i3O1/PLLR8VBPjPbouw9yxFalIYvyc8//5zuuuuueN2+++77mz5bDQ0E7ltvvZX69+8f/y/0Rttwww0bVNl7kUJlsT/9m6K/RUREZBH4+OOP0z333JMGDBiQ5s6dG0Jp4cKF4fAgnMoDJ4O+UpRlR9zQ/BfxVhmhU5OMHz8+Pfjgg9H36oADDqhUM+GvvvoqXXvttWnTTTeNhswIRqCn1nXXXRc5Xm3bto1lJXn88cejNP5RRx1VKUFayMycOTNdfvnliSHZNttsky677LI4po0bNy5aQ0TyFZ0tERGRGoAeUZQ6pzAEYXf0olp//fWjVPqCBQtSz549o2DE7bffnv72t7+lgw8+OHJzpkyZEq4Y6xx66KFp9OjR4Swh4Hr37h0CaMcdd4yiE7zH/PnzU7NmzcINO/PMM9ONN94Yy+hlhfChoAVCpmXLlpXKtUIcjhw5MlwU9mm11Var0FFh6EBRi/vvvz/tscceaYsttgjBxHI+G8txuXBnSsI6zzzzTOwnDg5OWEPm5ZdfTnfccUccC/5fALHK/9Jxxx33u8qNIpJfmLMlIiJSwyAovv/++6jmR9GHCy64IL3zzjvp9ddfD8eKPCaq9iGScDWaN28e+TqUR89ej7sF3BNmxrYQcrhliDKqA/J61j3nnHNC2CDQ3nzzzci3QmSx7YpApOE+nXTSSeVWGsygEMarr76aBg8eHOF/HTp0CKHFPvIZhw4dmg477LBShRawz6NGjYrP0pCFFseLEvkcLwqKII459txatWoVBUPoO8b3yXcsIvmJYktERKQWQRwRVohYQlDhWmU3cqRmzJgRzYL5e9q0aTEIz+DvrGACzX4J7cvuye/Klq+44oohXBBODMwJ5yMskbyoilh33XVTjx49Kh3KR7ghTsxFF12U2rVrV7Q0penTp4ezhttWWjEMwL0j1BJht9566xUtbZggoggdPOOMM35zHDNwC08++eQIKZw9e3bRUhHJNxRbIiIitQhhhITpNWnSJLVu3TrcJkqqL7HEEuFEde7cORoA424gWHCyeA4HiFLguGGVBcGFECN/jPdBSNUUCDkKWsyZMyddccUVaY011ojliLvnnnsuwhz5HLh0pUEhDZoad+nSJZybhgyhg5S7v+SSS8LRKos2bdpEHhcVG3FCRST/MGdLRESkBsCF+uCDD9Jaa60VlfUQUu+++24UgUCAbL755tGwl3Lo3CiEgGvFMkL+EDMIGRwvRBM5WVT0I4eKHC3EFy4ZDhjvwXZZj35YhCZ++umnsS7hi4g2Sqkjtmqi+ASFMMhBYz8pnpEVwiCkkPci3A2HZoMNNojlJeHYIMbYNwpiZK5cQ4PjgAgmBBNxTRGMykDY5m233RaOIAKsolBPEckdFFsiIiK1BOILsZPPPaQQeTgriEXKuBfnL3/5SxT8oJhD5nSVxtSpU9MTTzyR+vXrF2KyoYLQIizw4osvLtfRKg3CDqla+ec//7lMUSsiuYdiS0REREoFsTho0KAohEElxayMPUMHcreefPLJyNEqr0z9a6+9Fq4YoYd13TsslyB0EGF67rnnhuNYVXeKY56FcB5//PGR0yUiuY85WyIiIvIbCA8kR4jwQHplEfKYCS2ee/7558OpOu2008oUWogDqiuSP9anT58GK7QIHaQIyp133vlrYZBFCQPkNbhhhB8i2nDJnC8XyX10tkREROQ3PPzww1EZ8ZRTTok8seJMnDgxCncQDldeDy9EGevssMMOcWuoIIqyhsU1Ff5nSKFI/qDYEhERkYACFjQkpjAHjhZl5TMYLowZMyYcL0RY48aNi575PTRfpjw8rhdNj2uiSEc+8tJLL4ULdf7556d11lmnxgpb8F1QZAUxi9NlSKFI7mIYoYiIiAQ0GybsjcqCxYUWlRKffvrpEFoM7ssTWryeEENCCHfbbbcGKbQ4Bn/729/SsGHDolfWouRolQfbWn/99SMsETFHc2TnzkVyE50tERERCf75z3+m5ZdfvujR/zF27NjoF3bhhRdGqfryoC/YAw888DvB1pCojdDBsuC9CCmsqGeXiNQPOlsiIiJFPPvss1GenDA4+mRR1KCyZOXNKwN9qxiI9+3bN/Ju6JW1qDz44IPpnXfeKXr0H7799ttomktYYFUoTWix/bfeeitC4SoSWvQAo/Ex1fIaqtAidPD666+PEL+6ED9t27YNscX72fhYJPdY7N8X+z8V/S0iItKgodQ5leNo2rvKKqtEU+J27dql++67L910001p6aWXDgHz+OOPR4gYjYRHjBiRvvvuu6i2R3nvkSNHxut/+umnNGDAgLRw4cJwjPr375/mzZsXTgcFJtq3bx8heYiSWbNmRbjdlVdeGQ7ShhtuGMKN0L3Ro0eH8COXitCxCRMmpKeeeiruN9poo9jHVVddNQbavAcBKwsWLIhKgvTGYjl9stg+g//KhvX9/PPPsQ/vv/9+Ovroo9MKK6xQ9Ezp0GSZ9zn00EPjM9Zk2Fw+kIUOkqtGeF/r1q3r5BjwHvyvtmjRIkIK6em2+uqrN7jjL5Kr6GyJiIgUgRDp3LlzCK5//OMfsYzco7lz54YTNXny5PThhx+GmKG/1PTp09NRRx0VYom8JgbcNKzF5WK95ZZbLm2//fZp3Lhx6Y9//GNU6GNA/vnnn6eNN944yqlvttlmqVu3biGsDjrooBB3/P32229HFT/WYzv0ucLBYnnHjh1T9+7d06RJk0JcIcYI36O5MPk7zZs3T7vssks4VVSuYzn9rih8UVkohsG2KIax4oorFi0tG8Rghw4d4vM0xIE+7h9i9/TTT0+bbLJJ0dK6A2GNeKcPF/24RCQ3UGyJiIgUA4GCyME9wt3BmcI5QnDgQuFY4RDhZOE04fgsueSS8dpWrVqFMFp88cVDeDVr1iy2gUA6++yzQ8Rlz+F2wQ8//BCV5RB3OBI4FIgy3m+ttdaKe6r6EcKHOGvUqFGsw34W3wau2llnnRUhibwevvnmm1iffWRblQ0rJBQQp4q8q6y/Vlkg9uilxX4ecMABRUsbFi+++GK67rrrQujUZ94UIYWEE3KjdL+I1D+KLRERkWLgyuAuIVRwtBBaH330UeTisAwxVZZzg6gibA+xgxhiPdbHiSI/a6uttgrBhpgjFBE3CkeI8EKEGYP2F154IcLCeG1p78M+8B64TrwGWB8H7Q9/+EMIPoQZwopwRlw49p3PUl4VQUAY0mML8XbYYYeFMCzrswKikX3mc++9994VCrNCg8+Pu3n33XenU089NURwecertuG9qXxIBcShQ4eGuLcOmkj9Ys6WiIhIEYgLhAuihLwpHCXyj3CGCMPbZ599YhmCifVwjWj6yz3LeR2DbxyezA3jeQbhhPyRT0O4F4/J83r++eej/9JOO+0Ug2QEFNveeeedY5u4UeSJsS2W00QY0cQgn33q0aNHPM9rWfeZZ55J2267bbgriDKWsf9/+ctf0l577RXvWx4PPfRQ5KFR4GKJJZYoWlo2hEoOGjQoXXDBBeU2OC5UCB3EzTr33HNTmzZtipbWP/zP8X9FRUTCOvlfFZH6wdLvIiIieQLOE/lc2223XThmNQVDgdtuuy3CISlwURmHijBDKh726tUrhGlDA7eQY0YuHjlyNeFoUQWTgiQIaMR0dUQS3ylimDl1GlRvueWWRc+ISF2i2BIREWnAEG6IowUHHnhgDPQrAlGAo0MxEVy5hgSuIkVOEFo4gBQwKQ+GWeTWUe6f0FIcQ8JGyc9DTJFjRxEWnEueo/IlziauKO4nIZ2Eg+KcUljl66+/DueK9SsDTiuVKQkx3XTTTes1zFGkIaLYEhERaaBQQZHcHoYCxxxzTKUG4uSjDR8+PIQAr6lMuGEhQXVH+lrRH60yDYs5tpT6nzJlSvqf//mf9Oqrr4bwotAKJeIRbZkgO+6446IKJEIMcYUzhTCbPXt2CDvaDFAxk3BVXlvZHLms8TE3irqISN1hgQwREZEGCIN9KugRjkjxjso6HjR+xolBGDQ0oUXVSBw9+olVteogpfhxpChuwv38+fOj0iWFTXjM90GYaAYuGEVHcLVoM0CoJoVWmjRpEkVPcNgqC1UK6eF20UUXRc5fvsGkAO0UEPk4f/SWqywcV/Itix9bkbpEsSUiItLAYJBPk2YKZuy7776VckhwXxAKFPUgJK2yzZELCcr9U+kRsVnVwCBysCjAssYaa6T11lsv7brrruESTpw4MQqZZO0DMgjVpOAJFSxxoyjGQXVBhFlVqz6yr+wzwrrk++QDCCUcP4qwIDap4EnPOI4RPe6oFor45P8aF49wSz4zIZo8Zn1EF+0VeMx9Vb8/kUXFaoQiIiINCML/EFqEovXu3TsEQGUgzI2GzYQOUhCiIYJg2mijjaKPFSX2EU6VgdL4CAUqBCIMKHJCgZFOnTql8ePH/9objWbIuGdUoqQqJC4O65N3RVgh6+JAIj54bWW/O0TygAED0iWXXBLCLt/A2aLFABU1OUa4fVTu5NhQ5TMTrPTGYzkCDIF6ww03xDq4eV26dIn+cTxPKCdVGhHPIrWNOVsiIiINhG+//TaEwhZbbBEhapV1pxBaV199dbhgDb3IAsMm8qioQtinT58IAywP1sd14Zhx42/EEkIJh4q/WYe/+T6ydQGRwXM8JmSTdfmb9Vg/W688CPt84IEHoiohrlBlXlPX8LkQl2WJeIq49O/fPx177LEhcHH4aOKNS4VLiKDCAWQ9jhlCFCFFLzu+oyFDhqSuXbumW265JdZDvJ522mnmr0mdYBihiIhIPQ1rhhkAACDWSURBVEDz4qOOOipC8miIywAyg5n3J598ssxQJ/pmcasKOCkMWBls7rHHHpUWWoRq4bDQ6JlbLg7W6xI+Py5Tv379IjyNXKLy8qdYPxNS2d9UfERs8ZiwPoQBj1knE2HcWM663PMc96yfvbY82CcECUU1zjjjjAg/rOg19QWhqexrZcABxClEOOLOIraoiskkAMIXx3Hy5MkxsZAJW0IIOWYcA54nhJPedSJ1gWJLRESkHqDIQc+ePWO2nXAnBos4SIR6jRs3LvJOCC+jghxNg/mbKnYUaCBcitdXFnJZKIZBkQUq4lUlb2fkyJGR47LnnnsWLRGgiTEi5vrrr4/QtFwDwU7D6fPOO69SVRPrC8T82LFj04477li0pHQIf+WznHLKKVEgA6cKB2vChAnpscceC3FFmCUuHi4gIZtsm/OHc6lZs2YhsO65554omFHWRIZITWMYoYiISD3AAJPcHXJQqDy3ww47pAcffDBtu+22kbfDbDwDRMKmKAaAYEJwUVmOPk/0aKIvVkUglBik7rbbbiHuquJu4Lbh3pxzzjnR90l+C0Oov//97+nCCy9Mhx9+eIUhhXUFhTUQHeTY8f+Tq44WIJxwTgnLLGs/Oc44WpmDmDl/LM9CK3GueJ71eA4nkMfceJ5lJZ/P5eMihYPOloiISD1BWBNuE7kjDABxttZee+0oK87sPA4UxSxuvPHGaG6Lm8WMPY10Kyt+GMziZvXo0aNKg8s5c+bEIJhwOYVW6XA8KcyAw1WZkMLahvd+6aWXwo2kXHyu5mgVh2PWoUOHokelw2dATHE+cONcyZbzmHOFv1mePZ895rks7LLk8yJ1gWJLRESkniDfBCdr8803j0p3uBA4JR988EHM2DMQPfroo9NBBx0Ug0RyhXC5yFnB6aoM5GjtvPPOMeisLLhhgwcPTvvtt1/kxUj55EpIIaGDfG/nnntuTocOZhD6R0jfdtttp/iRgkWxJSIiUg8QIvjcc89FgQxuOBJU+6OgAUKKcEHC0sgxoUjC6quvnrp37x75XDymBHltMXDgwHDCqFroILhyrLvuuumaa66J/Du+17qG0MFbb7019gFRng9Qzp3/Y51TKWTM2RIREZEAN23UqFFRQjtz06Rq4DpSmIKS41tuuWXkBtUm5CBNmTIlRDnlzAlBzRcuv/zyCHGtzYkDkfpGZ0tEREQCSnBPmzYtHXLIIQqtRYQcPPLccLjqIqSQMDxy+ihiUlWh9c0330T/tOOOOy7aD1B+vaw5eAQ4BV0o3FIaVP4bPXp05BZWBt6b3lqE0ooUMootERERSW+++WYMlimsYOhg9SCk8Nprr40crqr2Q6sKhA6edNJJaf/994+iDzT0rQoII0QUbQFoekwoK4/JFbz99tuj1cD8+fPTE088kV5//fUonY5ThyAfPnx4+vjjj6MoByKN8uvZ63HaKBhCyfWyoIjH7rvvHiGxIoXMYv8+uf5U9LeIiIg0QL7++us0ZMiQKF/eokULxVY14fhRzh+Xa+jQoSFSqFpYU8cVgUO+E60CevXqFaII1wnBM3369DR37twocoLwITQUgZRV7CsOvat4HftHYRaKr7DfiKbmzZtHDyteN2nSpAiJpL8b1TIRWlTQnDhxYuRb8TyP2SecKtaj0iaPN9tssxCCxeH/jX0/4ogjqlS4RSQfUWyJiIg0YKgI179//3AZqIooNQcihkqFNKJu3bp1VJusCV555ZXIC2MIRzXL9u3bR1NgerUhknC4Pvzwwwgx/Otf/5omT54cLQPozVYcxBb93hBvtB2gFxutAh555JH00Ucfhfgin2rZZZeNYikIuZVXXjnyxGhyjYOFmKMgR5cuXaKKJk4VlTV32WWXCEulWfcyyyxT9I7/AUfss88+swqhNAgMIxQREclzZs2aFU5GVWHQjPOCW7H11lsXLZWahJBCwvS41URIIU4ULiTbo6JlcRA15G117do1HXbYYVGOnsbGl112WThPpcF3T3sBXCb+XmmlleK1AwYMiCqZOF0IqEwU8fwXX3wR/28INBw77rnNmzcvLbfccuFc4baR31Wac8V+kq9ljTZpCCi2RERE8hQcCRoPE5LFAJw+S1Vh/PjxcU9BDB2G2oHjSnNhCljwPZHfxPdWVRDGL7zwQnr00UdjW7QCKO8747mSt5LQ7Jdwv+LP4ZKRa3XiiSdGGCJiC4FFKCDvibhCLF1yySXhZhFe+OWXX0bzbdw7buSCUYKeVgWNGjUq2vL/gcPHe+OciRQ6ln4XERFZBBj80teI0CogZOzYY4+NMC4gPI8wK3plMbDMWLBgQTSepdEwDYerA/vw/vvvh9AiPwh3omR+TGnw048bdtttt6Xzzz8/BtNS+8yZMyddeOGF0XR44403LlUAlQbfF6GDVDgkJDH7H8tnCDGk6AbuWWWPg0g+Ys6WiIjIIkDRgQ4dOkToFQ7AWWedFeWscZoom86M/rPPPhsFAsidoXhB1siYvJi99947SoOznKIUNDLG9eB58mIQQBQgYFDKewA9sBigEiqGgGMfEE3sB++Jg1KZku3k1uBMEGJWMo9Hag+OdadOneLYN27cOL73ykDVwWHDhkWZdpyoQoD/6bvvvjsmHMgJqwgEJ84t5wX/+/zfI9JK5oMVh3L0VNnkWNd2vzORslBsiYiIVAMS/SlGQPjUvffeGwUFqM622mqrRVU4BpJUZUMgUUKbHB7CrgilQoxtsMEGady4cTEwJB8HQcYAEdGE8MIxI3yMQgTkwSDEGGSyHFifbVEFrjJCi+IJ5Gkh9lq1aqWrUMeQ00TRDL4DREB5VQpxLvnfGTFiRJTkL5mjle/QAJpqhhyDikBsccxwBDmGnEuEOHLDXcYx5txgwuOtt96K84k8MkQqRTo4d5jkAAp4iNQVynwREZEagIIBVH6jvxB9iigAALhIOFQMmHGyGCgyuESkIcB69OiRllpqqRhY43pQXY6Z+9mzZ6dtttkmdevWLQaO5Mswmz9jxoyoLLeoILaoPNixY0eFVj2BMD/99NOjoiD/E6VldLAMR5QQ0bPPPrvMAhf5DK4Wobalff7SYD3OE27kvTEBQb8uJiUoR585xTwmP45CHvQJo7IiIbNMgtA/rKr9yESqg2JLRESkBsBV6ty5cwygyclBSAFhT717904DBw6M/JRsVp3lCDRuzLojuLIGr4ggXA96H+GCEaaIAKNoAeKLUt6LCu+BsyL1C+Ipq1KIOCgJoYMILZojF0KOVmlQXIMJBKoXVgYc5PPOOy8aOSOqyE9kgoJQQs4ZziXOI6AUPucgrhZuGBMXnEM4YItSoERkUVFsiYiIVAPCBAnjw3liYHfCCSeEs8VylpGzRTgTQom+RuRyEQLYtm3bKI3dr1+/6G9EiBghVQwWeZ48LNyt66+/Pu2xxx4xsKQfFoNMBqmS//B/g3h46KGHIlwQEcANh5T8PEQ7/0OFCv/r9O8iTLYy7haO7lVXXRWVD//nf/4nqh4Sust5R74igovt4dqyTcQX4C5TYGSTTTYpN8dLpDawGqGIiIhIPUKVwosuuijCBQkZxR2lN1ahOlrFIT+RJspUxSwvrBURevnll6e+ffuGSM3yI3F5mZSgcAiTEPT6QriSC8m6V155ZbhcFK4hX5IJDo61okvqCsWWiIiISD1DDh95XIS60aOKAisNAdxe3L1LL7008hlFCg3DCEVERETqGdwaCpfss88+DUZoAeG25F1RiVOkEFFsiYiIiOQAFFnJiqQ0JGjw3bRp06JHIoWFYktEREQkB2iomR1U6LToixQqii0RERGRHACxZe8zkcJCsSUiIiKSAyi2RAoPxZaIiIhIjqDYEiksFFsiIiIiOQC9pBRbIoWFYktEREQkR1BsiRQWii0RERGRHMCcLZHCQ7ElIiIikgM01NLvIoWMYktEREQkB9DZEik8FFsiIiIiOYJiS6SwUGyJiIiI5ABWIxQpPBRbIiIiIjmAYYQihYdiS0RERCRHUGyJFBaKLREREZEcwGqEIoWHYktEREQkBzCMUKTwUGyJiIiI5ACKLZHCQ7ElIiIikgMotkQKD8WWiIiISA6g2BIpPBRbIiIiIjmCYkuksFBsiYiIiOQAOlsihYdiS0RERCQHQGyJSGGh2BIRERHJARBb//3fDs1ECon/+veJ7TSKiIiISD2zcOHCtNRSS8VNRAoDp09ERERE6gHmu19//fU0b968dP3116fBgwenH3/8sejZlH755Zf09NNPp/fffz+E2PTp09P//u//Fj0rIvmAYktERESkHvjkk0/SV199FWKqadOmaZNNNkkzZsyI5xBVU6ZMSTfffHP64osvUqNGjdL8+fNjfRHJHxRbIiIiInUMYgqnqnnz5unbb79Nq6++eoQP4nIBVQkRX126dEmLLbZY3Jo0aZLeeOONeF5E8gPFloiIiEgdQwghImvppZcOYcXf3ONgAX8vu+yyvymYsdxyy6Wvv/666JGI5AOKLREREZE6BhG15pprpk8//TS1adMmvfjii2nq1Kmpbdu2aebMmembb74pWvM/IM4+/vjjtPbaaxctEZF8wGqEIiIiIvUAgmrixImpe/fu6bvvvgsBttJKK4XYatGiRVphhRViHcILKZYxfvz41KNHj1/dLxHJfRRbIiIiIvUERTJWWWWVtMwyy4TgWmKJJeKekEHytDJ++OGHKJRBIQ1CDEUkP1BsiYiIiOQAAwcOTDvuuGMUxhCRwsCcLREREal3Pvjgg/TZZ58VPWqYMP+tayVSWCi2RERE8hwG6VSzI9QMfv7551//zhcInRswYECaO3dufJ6GiGJLpPBQbImIiOQ5//rXv9Ktt94aDXARWvRvmjBhQtGz+QFV+I488sh00003pddee61oacNDsSVSWCz2p39T9LeIiIjkITTInTFjRhRQWHXVVUN8UcXuq6++Su+9916sQyW7d955J40bNy7deeedadasWXG/2mqrRSGGSy65JI0YMSKa7D7zzDPpvvvuiyINo0aNSkOHDo1tkUtUm2KAQhEbbLBBGjZsWHymddZZ5zd9pgodyr+3bNkyvhMRKQx0tkRERAoARFC3bt3Sc889l77//vtY9tNPP6Uff/wxxBdheixv165d6tWrVzTM7du3b4TtjR49Ou20005pv/32S88//3ysSzny9dZbL/3zn/9MF198cZo9e3ZasGBBbLc2oeR5v379QhyOGTMmnLqGgmGEIoWHYktERKRAwAlCIE2aNOk3eU8Irky00BQXodWkSZO05JJLxuCe55966qn0wgsvpGbNmsXzOGTkfS299NLR1wmXq66Ez+qrrx5O2/vvvx+uWkOB76whOXkiDQHPaBERkQKiY8eO6eOPP44wPJrhPvvss+F24VaVBoP7rbfeOkQa4WvFBRWC68svv0wPPPBAuGSE+dUVCLwTTzwxNW7cOA0aNCh9/fXXRc8ULg21MIhIIWPOloiISJ7zyy+/RKggLhQii7ynlVdeOcQSj7knF4h71iFHCzFDI13u11prrfSPf/wjhFf79u1/fY7XIsAIH9x2221DbOGG1RWLL7542nDDDUM8Pvnkk/G5cNgKFUI4+bwITBEpDGxqLCIikufMnz8/DRkypOhR7dGzZ8+05ZZbFj2qW6iu+NBDD6U///nPqWnTpkVLq8fYsWPTyy+/XPSo/iGME7FVlw5ieayxxhqpd+/eaaWVVipaIiJVRbElIiIiOQ8u28yZM9Ntt92WjjrqqCj0UV2uvfba1KFDh9SqVauiJVKcwYMHp6OPPjqKlojIoqHYEhERkbyAIcucOXPSPffcEy4bQqk61ftookzVRXp8ye+59NJL06GHHqrYEqkGFsgQERGRvABhRe4ZhTMIASS0kHw1EZFcRbElIiIieQWFPs4888w0bdq0KA1fVqXFisApM8BHRGoTxZaIiIjkHVQlPOWUU6LpMsVBskbOIiK5hGJLRERE8hIE10knnZSaN28exS6++eabomcqB2GJ1cn5EhGpCMWWiIiI5C30/dp3331Tly5d0vXXX5/mzp1b9IyISP2j2BIREZG8hmbM2223XeratWsaNGhQmjVrVpSKrwhztkSktlFsiYiISEHQsWPH1Ldv33TZZZelqVOnFi0VEak/FFsiIiJSMGywwQYhtkaPHh3l4UVE6hPFloiIiBQMFLxo2rRpOvXUU9Pbb7+dHn/88fTzzz8XPSsiUrcotkRERKTgWH311dPJJ58c+Vt33XVX+uGHH4qe+T+sRigitY1iS0RERAqSJZZYIp144olxf/HFF6d//OMfRc/8BwtkiEhto9gSERGRggWhddBBB6UtttgiXXXVVenTTz8tekZEpPb5r//nlI6IiIgUOJSC/+tf/5qeeOKJdMIJJ6RmzZqlG264IXXv3j1ttNFGRWuVz8svvxwFOKZPn57WWGONeN17772X/vnPf6bnn38+ffDBB7HesssuG1URH3744TRv3rxYtv3226fNNtss3XnnndF8eamllkpHHHFEWm+99dJXX32Vbr311nDZDjvssMg5g1deeSUtvfTSqW3btumTTz5JTz31VDrwwANj2RtvvBHvvdVWW6Xhw4fHNlq0aBHb/PjjjyM8kn1ln+65557oR3b88cdHI+jKcumll6ZDDz00tisii4bOloiIiBQ89OJC8Bx55JHpxhtvDLFS1fnmGTNmpIULF6ZXX3018sAWLFgQwuazzz4LkURj5Q033DCdfvrpIW6++OKLdMopp6Tzzz8/devWLcIYEVlnn312OuSQQ9KoUaNindtuuy3tueee6eCDD06PPPJIiLcvv/wyBBwCjwIfPJ44cWKaM2dO+umnn+K5adOmpc8//zyeZ5vrrrtuevrpp0NgffTRR+HijRgxIh1++OFp//33jx5k7LOI1B2KLRERkRyAwfGDDz6Y/vWvf6Vvv/02Bt0lq+jhXuDOVKZhb0l+/PHHGKwzUIfvv/8+3X777em7776LxyVBVAwbNizWf+utt9J5552XzjjjjBAa7GMGQuPFF19cpH2qCxBU7C+fg2Ow1lprpd69e4fgevPNNxcpZ2uFFVZIrVq1is/N6xFyOEbccLV4nmW8H2KIY5Qdd473/PnzQzwhvN5///208sorh0jDQdp3330j9HHu3LmpTZs2sQ4Cie3hcOGq8VrcreWXXz62yXfJNikCssoqq8Qy9mvKlClphx12CBcPIYYbhxsmInXHYn/6N0V/i4iISD2BC0Ej3m233TYG6X/5y19iAE7oGA4IA/bmzZuHCMK5YFDNAJtBOeKMkLhffvklxASi6plnnonBP4Lptddei20xSCdEjVC6CRMmxGs7dOiQHnrooQg1W2211dKaa64Z/am4ffjhhxEqR/l0QtBwZ+hfRaW/mTNnpnHjxsWgH3GA2Bo4cGB8DkQAYWxXX311hNHx3jg0rM/7Ek6HiKgKHBPC7xCcfG62y3Gg2iBiENcJIfjSSy+l5557Lj4/78Vn5XhMmjQpjinPse8cM9bZfffdQ4xUBra//vrrh7vE90SYHw4Wn4VwQI4XrtTGG28comrkyJEhlFh/1VVXjWPC8eMYcczPPPPMWJ/Ptemmm8bzHLvFF188xPaTTz4ZDlyTJk1CwLFN1kWEN2rUKI4F78t3xf8FoovvkP8DxBnL+L75vgBhx/azMMWK4Hi1a9curbTSSkVLRKSqKLZERERyAITQu+++G4N4BtM4GOTc3HTTTem4444LYbDiiiuGUGCAzsAcAYNbwaC+T58+sQ7OymOPPRZFIegzhTjA1WAAzuAZGPzvuuuuEXKGQ8PgvnPnzmny5Mkhtnj9Xnvtlf72t7/FIJ/BPqILYcEAHpGGuNlkk01CRCBCcIm6du0agnGZZZYJUXHAAQeEIEJw8F44NYgzRAL7VZxnn3023X333bEeAhOhwQ2hN2bMmBBMOEm8LwKL8D22g5vDsUB8IDTWXnvtEHft27dPHTt2jH0ivA+HJ7vxedhP9ofjnYmRiigutnCZEL8ITI4Dx7Gk2GK90047Ld6f7wmXC4erX79+IZYRiYgZjjvbw41C9PJZ+KyEBu6xxx4hGjnOCES+X75nlvN6xBbLCV3k8/M/gThCbLVu3TrCDdk2YpVjyzHJHLGKUGyJVB/FloiISA6AcEBEbLPNNjEgZ2CPwCGnB0eJ8C8G3DxGUCB4vv7667T55punoUOHhnhAgPAaljPAx9kiZ4fiCltuuWUIIoQV2+F1bJP1H3300XCdcKjYNmIPEYL4Q3wRhteyZcvYT7aFi8U6iIzFFlssRB2CqkePHuG8IMoQTwz0Z8+eHWKP9SjmwHMIpGx7GQgeRBKfv1OnTrH/fO5ddtkl8pl69uwZ299xxx3Tdtttl7beeusQVOwDoontEYaHs4foQCDw+RF3OE+8L5+PY4A4RcAifnhdZcUW4on3wFnjMyG2EMm8J49ZjqhFeCFueB8EI84T3xuOEscJFwvBh8vGZ2jcuHEaPHhwiEwes7/c+M4QVxxfQMTyOsQV+Wd8f7wvhTgQZIQNEobI98PrOTbs35AhQ+K9OI6IRYRYZVBsiVQfqxGKiIjkAISW3XHHHeGEkL9FmBkV7RBCf/jDHyIcEDHCwBvh0b9//xAv/E2BBdalYAIhcQzweQ3OB4IA4cZAnXvEDKKOKnxUm9tpp51CILBtBuzkM+GuUFDhlltuSSeddFK6//77wzljAE/VvP322y/EFG4YA3sG8jg5uGU4WogJQhcpGsFnQeiwb7zX3//+93DHEFF1Cfv5wgsvxGdEaCEiq1qNsKFhNUKR6qOzJSIikgMQOkbI3hVXXBGhgieffHK4GrhAhIoRnoargTuDk8NcKc4FrgoFFhAOODnkYJG7g4OR5VHhsuy8886xLRwhxBauBe4IwghxxmsQZjgZ5EMRSpi5R7gnN998cwgsxNg666wT+8N7I6QApwwhxnuyX4TrXXPNNeHkILLYB5wdXBXcJj5LXcF7kwNFiF0Wbgfkd3GcKutsNTR0tkSqj86WiIiIVAvCDHHiKEJBfhAuWK4M0BGYlGnHOcQ1RNBm6GyVj86WSPWx9LuIiIhUC/Kx6BFF2CF9pXJFaJFXRi4U91T+Ky60RETqAsWWiIiIFBw0EL7uuuuiIh/5a4RkiojUNYotERERKRjIjiBkkBwz8sjoo0Wem4hIfaDYEhERkYKB8vcXX3xxFOigVDw9uERE6gvFloiIiBQENAKmyDKFMOgTJiJS3yi2REREJK/Jen2NGTMmCmFssMEGOloikhMotkRERCSvoR8UvcJOPfXUaM4sIpIrKLZEREQkL/npp5/Svffem6ZOnRp5WjYnFpFcQ7ElIiIiecc333wTFQe//fbbdNxxx0WvL0MHRSTXUGyJiIhIXrFw4cJ01VVXRe+sPn36pOWWW67oGRGR3EKxJSIikqP8+OOP6bLLLkuffPJJPB43blyaMmVK/J3xr3/9K02ePDma+C4K77zzTnrrrbeiP9Uvv/ySrr322jRr1qyiZ3/PiBEj0jPPPJOOPvrodOihh8b9HXfckb777ruiNUpnwYIFaeDAgenvf/977C/7vSh89tln6corr0zt27dPffv2TUsttVTRMyIiucd//fvi+v+K/hYREZEcArHVv3//dOSRR6amTZumsWPHplVXXTXE14wZM9K8efPSWWedFX8vv/zyacUVV0ytWrVKTz31VOrUqVMaNmxY+vzzz1O/fv2i/9TDDz+cdtlllzRnzpw0bdq0EEqE3yF8EEtsf/78+encc8+NdR599NHUrFmzKDzxwQcfpFtvvTXeo1u3bumFF14IsUOe1O233x4NhFdaaaUI7VtrrbXiuTfeeCM99NBDUR2wXbt28VlOPPHEeK/GjRtHYQv2i3Vbt24dQg/X6phjjklt27YtOgr/B6+74oor4jNsvfXWafHFFy96ZtHAHWvZsmVaf/31i5ZIce6555500kknpRYtWhQtEZGqotgSERHJUcoSW88//3xq06ZNWmKJJdLXX38dgmqLLbYI8bLjjjumt99+O4pHrLvuuiFqKIvOgPnTTz9NnTt3jtf36tUrHCyWsS7i67DDDktDhw5N++23X/r+++/Tpptumu68887oWTV69Oh0/PHHp/Hjx6cmTZr8Krb4++mnn45t4LqxDs8tueSSIdD23nvvcLXY7/vuuy/tscceacKECWnllVcOYYVImzlzZlpzzTXj8yLuJk6cGCKyJORpIc5qquIgx+X1118veiQl4X+nZ8+eIeRFZNFQbImIiOQoCJgBAwaEMEJsjRw5MsQIIgmRgiD66KOPwo1iUDxq1KjUqFGjcH0ohU6VPtymLl26hNihH1X37t3TE088Eds6+OCDo6gE23n11VfDwUJUbbbZZnH/4YcfhsDBGUMg0cMKgQLFxRYVARmQIwZ5j6WXXjoE29prr50GDx4c73344YeHy5WJLZ5jX3k9+4nDhiuHK/bAAw+k008/Pd5HRCSfMWdLREQkR8G5WmeddULgIG7efPPNEF0IpJKV9wipQ1jhEuFobbLJJmmvvfYKcYOoyar1zZ07N0TcUUcdFflPzLmS90Q4II4XNyr8sQ7hfOutt14UolhttdXCcXrttddiO6xDmCCOGG4TYYIdOnQIYbjNNtvEaxBwOFsrrLBCvA+iDjcLin+G//7v/45wPpw53oP1RUQKAZ0tERGRHAaBgkuFMMKhIoTu3XffDbeIghY4T6yDKCOk8MsvvwyhRUgehSy++OKLEDyIHHKzCNejQAXu2IEHHhh5UAwFED6IuubNm0e+FMLuvffei1BC3DTE3P333x+PEXPTp08P5wt23XXXCFNEgD3yyCMRfta1a9cQdpMmTYr9Iczxr3/9a+w370UFQcTkMsssE2GQ5E3xOdnP3XbbTcElIgWBYktERERERKQWMIxQRERERESkFlBsiYiIiIiI1AKKLRERERERkVpAsSUiIiIiIlILKLZERERERERqAcWWiIiIiIhILaDYEhERERERqQUUWyIiIiIiIrWAYktERERERKQWUGyJiIiIiIjUAootERERERGRWkCxJSIiIiIiUgsotkRERERERGoBxZaIiIiIiEgtoNgSERERERGpBRRbIiIiIiIitYBiS0REREREpBZQbImIiIiIiNQCii0REREREZFaQLElIiIiIiJSCyi2REREREREagHFloiIiIiISC2g2BIREREREalxUvr/E42GNSP5t6wAAAAASUVORK5CYII=;" parent="1" vertex="1">
          <mxGeometry x="-1680" y="-1100" width="859" height="677" as="geometry" />
        </mxCell>
        <mxCell id="VWiSSEUOja8FaHloWDly-3" value="Empleado(&lt;u&gt;NroEmp&lt;/u&gt;, Nombre, FechaNac, FechaIngr, Calle, NroPuert, Apto)" style="swimlane;fontStyle=0;childLayout=stackLayout;horizontal=1;startSize=30;horizontalStack=0;resizeParent=1;resizeParentMax=0;resizeLast=0;collapsible=1;marginBottom=0;whiteSpace=wrap;html=1;" parent="1" vertex="1">
          <mxGeometry x="-1680" y="-420" width="450" height="60" as="geometry" />
        </mxCell>
        <mxCell id="VWiSSEUOja8FaHloWDly-5" value="PK: NroEmp" style="text;strokeColor=none;fillColor=none;align=left;verticalAlign=middle;spacingLeft=4;spacingRight=4;overflow=hidden;points=[[0,0.5],[1,0.5]];portConstraint=eastwest;rotatable=0;whiteSpace=wrap;html=1;" parent="VWiSSEUOja8FaHloWDly-3" vertex="1">
          <mxGeometry y="30" width="450" height="30" as="geometry" />
        </mxCell>
        <mxCell id="VWiSSEUOja8FaHloWDly-8" value="Biblioteca(&lt;u&gt;Direccion&lt;/u&gt;)" style="swimlane;fontStyle=0;childLayout=stackLayout;horizontal=1;startSize=30;horizontalStack=0;resizeParent=1;resizeParentMax=0;resizeLast=0;collapsible=1;marginBottom=0;whiteSpace=wrap;html=1;" parent="1" vertex="1">
          <mxGeometry x="-1190" y="-420" width="450" height="60" as="geometry" />
        </mxCell>
        <mxCell id="VWiSSEUOja8FaHloWDly-9" value="PK: Direccion" style="text;strokeColor=none;fillColor=none;align=left;verticalAlign=middle;spacingLeft=4;spacingRight=4;overflow=hidden;points=[[0,0.5],[1,0.5]];portConstraint=eastwest;rotatable=0;whiteSpace=wrap;html=1;" parent="VWiSSEUOja8FaHloWDly-8" vertex="1">
          <mxGeometry y="30" width="450" height="30" as="geometry" />
        </mxCell>
        <mxCell id="VWiSSEUOja8FaHloWDly-10" value="Administrativo(&lt;u&gt;NroOficina&lt;/u&gt;, TipoAdministrativo, NroEmp)" style="swimlane;fontStyle=0;childLayout=stackLayout;horizontal=1;startSize=30;horizontalStack=0;resizeParent=1;resizeParentMax=0;resizeLast=0;collapsible=1;marginBottom=0;whiteSpace=wrap;html=1;perimeterSpacing=0;strokeWidth=1;" parent="1" vertex="1">
          <mxGeometry x="-1680" y="-340" width="450" height="120" as="geometry" />
        </mxCell>
        <mxCell id="VWiSSEUOja8FaHloWDly-11" value="PK:&amp;nbsp;&lt;span style=&quot;text-align: center;&quot;&gt;NroOficina&lt;/span&gt;" style="text;strokeColor=none;fillColor=none;align=left;verticalAlign=middle;spacingLeft=4;spacingRight=4;overflow=hidden;points=[[0,0.5],[1,0.5]];portConstraint=eastwest;rotatable=0;whiteSpace=wrap;html=1;" parent="VWiSSEUOja8FaHloWDly-10" vertex="1">
          <mxGeometry y="30" width="450" height="30" as="geometry" />
        </mxCell>
        <mxCell id="VWiSSEUOja8FaHloWDly-15" value="AK:&amp;nbsp;&lt;span style=&quot;text-align: center;&quot;&gt;NroEmp&lt;br&gt;&lt;/span&gt;" style="text;strokeColor=none;fillColor=none;align=left;verticalAlign=middle;spacingLeft=4;spacingRight=4;overflow=hidden;points=[[0,0.5],[1,0.5]];portConstraint=eastwest;rotatable=0;whiteSpace=wrap;html=1;" parent="VWiSSEUOja8FaHloWDly-10" vertex="1">
          <mxGeometry y="60" width="450" height="30" as="geometry" />
        </mxCell>
        <mxCell id="VWiSSEUOja8FaHloWDly-16" value="&lt;span style=&quot;text-align: center;&quot;&gt;FK: NroEmp ---&amp;gt; Empleado&lt;/span&gt;" style="text;strokeColor=none;fillColor=none;align=left;verticalAlign=middle;spacingLeft=4;spacingRight=4;overflow=hidden;points=[[0,0.5],[1,0.5]];portConstraint=eastwest;rotatable=0;whiteSpace=wrap;html=1;" parent="VWiSSEUOja8FaHloWDly-10" vertex="1">
          <mxGeometry y="90" width="450" height="30" as="geometry" />
        </mxCell>
        <mxCell id="VWiSSEUOja8FaHloWDly-17" value="Docente(&lt;u&gt;NroEmp&lt;/u&gt;)" style="swimlane;fontStyle=0;childLayout=stackLayout;horizontal=1;startSize=30;horizontalStack=0;resizeParent=1;resizeParentMax=0;resizeLast=0;collapsible=1;marginBottom=0;whiteSpace=wrap;html=1;perimeterSpacing=0;strokeWidth=1;" parent="1" vertex="1">
          <mxGeometry x="-1680" y="-200" width="450" height="90" as="geometry" />
        </mxCell>
        <mxCell id="VWiSSEUOja8FaHloWDly-18" value="PK:&amp;nbsp;&lt;span style=&quot;text-align: center;&quot;&gt;NroEmp&lt;/span&gt;" style="text;strokeColor=none;fillColor=none;align=left;verticalAlign=middle;spacingLeft=4;spacingRight=4;overflow=hidden;points=[[0,0.5],[1,0.5]];portConstraint=eastwest;rotatable=0;whiteSpace=wrap;html=1;" parent="VWiSSEUOja8FaHloWDly-17" vertex="1">
          <mxGeometry y="30" width="450" height="30" as="geometry" />
        </mxCell>
        <mxCell id="VWiSSEUOja8FaHloWDly-20" value="&lt;span style=&quot;text-align: center;&quot;&gt;FK: NroEmp ---&amp;gt; Empleado&lt;/span&gt;" style="text;strokeColor=none;fillColor=none;align=left;verticalAlign=middle;spacingLeft=4;spacingRight=4;overflow=hidden;points=[[0,0.5],[1,0.5]];portConstraint=eastwest;rotatable=0;whiteSpace=wrap;html=1;" parent="VWiSSEUOja8FaHloWDly-17" vertex="1">
          <mxGeometry y="60" width="450" height="30" as="geometry" />
        </mxCell>
        <mxCell id="VWiSSEUOja8FaHloWDly-21" value="Mantenimiento(&lt;u&gt;NroEmp&lt;/u&gt;, TipoTrabajo)" style="swimlane;fontStyle=0;childLayout=stackLayout;horizontal=1;startSize=30;horizontalStack=0;resizeParent=1;resizeParentMax=0;resizeLast=0;collapsible=1;marginBottom=0;whiteSpace=wrap;html=1;perimeterSpacing=0;strokeWidth=1;" parent="1" vertex="1">
          <mxGeometry x="-1680" y="-90" width="450" height="90" as="geometry" />
        </mxCell>
        <mxCell id="VWiSSEUOja8FaHloWDly-22" value="PK:&amp;nbsp;&lt;span style=&quot;text-align: center;&quot;&gt;NroEmp&lt;/span&gt;" style="text;strokeColor=none;fillColor=none;align=left;verticalAlign=middle;spacingLeft=4;spacingRight=4;overflow=hidden;points=[[0,0.5],[1,0.5]];portConstraint=eastwest;rotatable=0;whiteSpace=wrap;html=1;" parent="VWiSSEUOja8FaHloWDly-21" vertex="1">
          <mxGeometry y="30" width="450" height="30" as="geometry" />
        </mxCell>
        <mxCell id="VWiSSEUOja8FaHloWDly-23" value="&lt;span style=&quot;text-align: center;&quot;&gt;FK: NroEmp ---&amp;gt; Empleado&lt;/span&gt;" style="text;strokeColor=none;fillColor=none;align=left;verticalAlign=middle;spacingLeft=4;spacingRight=4;overflow=hidden;points=[[0,0.5],[1,0.5]];portConstraint=eastwest;rotatable=0;whiteSpace=wrap;html=1;" parent="VWiSSEUOja8FaHloWDly-21" vertex="1">
          <mxGeometry y="60" width="450" height="30" as="geometry" />
        </mxCell>
        <mxCell id="VWiSSEUOja8FaHloWDly-24" value="Salon(&lt;u&gt;NroSalon&lt;/u&gt;, Capacidad)" style="swimlane;fontStyle=0;childLayout=stackLayout;horizontal=1;startSize=30;horizontalStack=0;resizeParent=1;resizeParentMax=0;resizeLast=0;collapsible=1;marginBottom=0;whiteSpace=wrap;html=1;perimeterSpacing=0;strokeWidth=1;" parent="1" vertex="1">
          <mxGeometry x="-1680" y="10" width="450" height="60" as="geometry" />
        </mxCell>
        <mxCell id="VWiSSEUOja8FaHloWDly-25" value="PK:&amp;nbsp;&lt;span style=&quot;text-align: center;&quot;&gt;NroSalon&lt;/span&gt;" style="text;strokeColor=none;fillColor=none;align=left;verticalAlign=middle;spacingLeft=4;spacingRight=4;overflow=hidden;points=[[0,0.5],[1,0.5]];portConstraint=eastwest;rotatable=0;whiteSpace=wrap;html=1;" parent="VWiSSEUOja8FaHloWDly-24" vertex="1">
          <mxGeometry y="30" width="450" height="30" as="geometry" />
        </mxCell>
        <mxCell id="VWiSSEUOja8FaHloWDly-27" value="Biblioteca(&lt;u&gt;Direccion&lt;/u&gt;)" style="swimlane;fontStyle=0;childLayout=stackLayout;horizontal=1;startSize=30;horizontalStack=0;resizeParent=1;resizeParentMax=0;resizeLast=0;collapsible=1;marginBottom=0;whiteSpace=wrap;html=1;" parent="1" vertex="1">
          <mxGeometry x="-1190" y="-420" width="450" height="60" as="geometry" />
        </mxCell>
        <mxCell id="VWiSSEUOja8FaHloWDly-28" value="PK: Direccion" style="text;strokeColor=none;fillColor=none;align=left;verticalAlign=middle;spacingLeft=4;spacingRight=4;overflow=hidden;points=[[0,0.5],[1,0.5]];portConstraint=eastwest;rotatable=0;whiteSpace=wrap;html=1;" parent="VWiSSEUOja8FaHloWDly-27" vertex="1">
          <mxGeometry y="30" width="450" height="30" as="geometry" />
        </mxCell>
        <mxCell id="VWiSSEUOja8FaHloWDly-29" value="Libro(&lt;u&gt;Codigo&lt;/u&gt;, Nombre)" style="swimlane;fontStyle=0;childLayout=stackLayout;horizontal=1;startSize=30;horizontalStack=0;resizeParent=1;resizeParentMax=0;resizeLast=0;collapsible=1;marginBottom=0;whiteSpace=wrap;html=1;" parent="1" vertex="1">
          <mxGeometry x="-1190" y="-340" width="450" height="60" as="geometry" />
        </mxCell>
        <mxCell id="VWiSSEUOja8FaHloWDly-30" value="PK: Codigo" style="text;strokeColor=none;fillColor=none;align=left;verticalAlign=middle;spacingLeft=4;spacingRight=4;overflow=hidden;points=[[0,0.5],[1,0.5]];portConstraint=eastwest;rotatable=0;whiteSpace=wrap;html=1;" parent="VWiSSEUOja8FaHloWDly-29" vertex="1">
          <mxGeometry y="30" width="450" height="30" as="geometry" />
        </mxCell>
        <mxCell id="VWiSSEUOja8FaHloWDly-31" value="AutoresAux(&lt;u&gt;Codigo, Autor&lt;/u&gt;)" style="swimlane;fontStyle=0;childLayout=stackLayout;horizontal=1;startSize=30;horizontalStack=0;resizeParent=1;resizeParentMax=0;resizeLast=0;collapsible=1;marginBottom=0;whiteSpace=wrap;html=1;" parent="1" vertex="1">
          <mxGeometry x="-1190" y="-270" width="450" height="90" as="geometry" />
        </mxCell>
        <mxCell id="VWiSSEUOja8FaHloWDly-32" value="PK: Codigo, Autor" style="text;strokeColor=none;fillColor=none;align=left;verticalAlign=middle;spacingLeft=4;spacingRight=4;overflow=hidden;points=[[0,0.5],[1,0.5]];portConstraint=eastwest;rotatable=0;whiteSpace=wrap;html=1;" parent="VWiSSEUOja8FaHloWDly-31" vertex="1">
          <mxGeometry y="30" width="450" height="30" as="geometry" />
        </mxCell>
        <mxCell id="VWiSSEUOja8FaHloWDly-35" value="FK: Codigo ---&amp;gt; Libro" style="text;strokeColor=none;fillColor=none;align=left;verticalAlign=middle;spacingLeft=4;spacingRight=4;overflow=hidden;points=[[0,0.5],[1,0.5]];portConstraint=eastwest;rotatable=0;whiteSpace=wrap;html=1;" parent="VWiSSEUOja8FaHloWDly-31" vertex="1">
          <mxGeometry y="60" width="450" height="30" as="geometry" />
        </mxCell>
        <mxCell id="VWiSSEUOja8FaHloWDly-36" value="RNE:" style="swimlane;fontStyle=0;childLayout=stackLayout;horizontal=1;startSize=30;horizontalStack=0;resizeParent=1;resizeParentMax=0;resizeLast=0;collapsible=1;marginBottom=0;whiteSpace=wrap;html=1;" parent="1" vertex="1">
          <mxGeometry x="-770" y="-1070" width="440" height="90" as="geometry" />
        </mxCell>
        <mxCell id="VWiSSEUOja8FaHloWDly-37" value="Solo se puede dar de alta un autor si el libro del codigo otorgado existe&amp;nbsp;" style="text;strokeColor=none;fillColor=none;align=left;verticalAlign=middle;spacingLeft=4;spacingRight=4;overflow=hidden;points=[[0,0.5],[1,0.5]];portConstraint=eastwest;rotatable=0;whiteSpace=wrap;html=1;" parent="VWiSSEUOja8FaHloWDly-36" vertex="1">
          <mxGeometry y="30" width="440" height="30" as="geometry" />
        </mxCell>
        <mxCell id="VWiSSEUOja8FaHloWDly-38" value="Solo se puede dar de alta un telefono para un alumno si este existe" style="text;strokeColor=none;fillColor=none;align=left;verticalAlign=middle;spacingLeft=4;spacingRight=4;overflow=hidden;points=[[0,0.5],[1,0.5]];portConstraint=eastwest;rotatable=0;whiteSpace=wrap;html=1;" parent="VWiSSEUOja8FaHloWDly-36" vertex="1">
          <mxGeometry y="60" width="440" height="30" as="geometry" />
        </mxCell>
        <mxCell id="VWiSSEUOja8FaHloWDly-42" value="Alumno(&lt;u&gt;NroAlumno&lt;/u&gt;, TipoAlumno, NombreComp, Edad, TipoDoc, NroDoc&lt;span style=&quot;color: rgba(0, 0, 0, 0); font-family: monospace; font-size: 0px; text-align: start; text-wrap: nowrap;&quot;&gt;%3CmxGraphModel%3E%3Croot%3E%3CmxCell%20id%3D%220%22%2F%3E%3CmxCell%20id%3D%221%22%20parent%3D%220%22%2F%3E%3CmxCell%20id%3D%222%22%20value%3D%22AutoresAux(%26lt%3Bu%26gt%3BCodigo%2C%20Autor%26lt%3B%2Fu%26gt%3B)%22%20style%3D%22swimlane%3BfontStyle%3D0%3BchildLayout%3DstackLayout%3Bhorizontal%3D1%3BstartSize%3D30%3BhorizontalStack%3D0%3BresizeParent%3D1%3BresizeParentMax%3D0%3BresizeLast%3D0%3Bcollapsible%3D1%3BmarginBottom%3D0%3BwhiteSpace%3Dwrap%3Bhtml%3D1%3B%22%20vertex%3D%221%22%20parent%3D%221%22%3E%3CmxGeometry%20x%3D%22-1190%22%20y%3D%22-270%22%20width%3D%22450%22%20height%3D%2290%22%20as%3D%22geometry%22%2F%3E%3C%2FmxCell%3E%3CmxCell%20id%3D%223%22%20value%3D%22PK%3A%20Codigo%2C%20Autor%22%20style%3D%22text%3BstrokeColor%3Dnone%3BfillColor%3Dnone%3Balign%3Dleft%3BverticalAlign%3Dmiddle%3BspacingLeft%3D4%3BspacingRight%3D4%3Boverflow%3Dhidden%3Bpoints%3D%5B%5B0%2C0.5%5D%2C%5B1%2C0.5%5D%5D%3BportConstraint%3Deastwest%3Brotatable%3D0%3BwhiteSpace%3Dwrap%3Bhtml%3D1%3B%22%20vertex%3D%221%22%20parent%3D%222%22%3E%3CmxGeometry%20y%3D%2230%22%20width%3D%22450%22%20height%3D%2230%22%20as%3D%22geometry%22%2F%3E%3C%2FmxCell%3E%3CmxCell%20id%3D%224%22%20value%3D%22FK%3A%20Codigo%20---%26amp%3Bgt%3B%20Libro%22%20style%3D%22text%3BstrokeColor%3Dnone%3BfillColor%3Dnone%3Balign%3Dleft%3BverticalAlign%3Dmiddle%3BspacingLeft%3D4%3BspacingRight%3D4%3Boverflow%3Dhidden%3Bpoints%3D%5B%5B0%2C0.5%5D%2C%5B1%2C0.5%5D%5D%3BportConstraint%3Deastwest%3Brotatable%3D0%3BwhiteSpace%3Dwrap%3Bhtml%3D1%3B%22%20vertex%3D%221%22%20parent%3D%222%22%3E%3CmxGeometry%20y%3D%2260%22%20width%3D%22450%22%20height%3D%2230%22%20as%3D%22geometry%22%2F%3E%3C%2FmxCell%3E%3C%2Froot%3E%3C%2FmxGraphModel%3EN&lt;/span&gt;)" style="swimlane;fontStyle=0;childLayout=stackLayout;horizontal=1;startSize=30;horizontalStack=0;resizeParent=1;resizeParentMax=0;resizeLast=0;collapsible=1;marginBottom=0;whiteSpace=wrap;html=1;" parent="1" vertex="1">
          <mxGeometry x="-1190" y="-170" width="450" height="90" as="geometry" />
        </mxCell>
        <mxCell id="VWiSSEUOja8FaHloWDly-43" value="PK: NroAlumno" style="text;strokeColor=none;fillColor=none;align=left;verticalAlign=middle;spacingLeft=4;spacingRight=4;overflow=hidden;points=[[0,0.5],[1,0.5]];portConstraint=eastwest;rotatable=0;whiteSpace=wrap;html=1;" parent="VWiSSEUOja8FaHloWDly-42" vertex="1">
          <mxGeometry y="30" width="450" height="30" as="geometry" />
        </mxCell>
        <mxCell id="J3rY2Tb_g5RrnogwVI6O-7" value="AK: TipoDoc,NroDoc" style="text;strokeColor=none;fillColor=none;align=left;verticalAlign=middle;spacingLeft=4;spacingRight=4;overflow=hidden;points=[[0,0.5],[1,0.5]];portConstraint=eastwest;rotatable=0;whiteSpace=wrap;html=1;" vertex="1" parent="VWiSSEUOja8FaHloWDly-42">
          <mxGeometry y="60" width="450" height="30" as="geometry" />
        </mxCell>
        <mxCell id="J3rY2Tb_g5RrnogwVI6O-8" value="TelefonoAux(&lt;u&gt;NroAlumno, NroTelefono&lt;/u&gt;)" style="swimlane;fontStyle=0;childLayout=stackLayout;horizontal=1;startSize=30;horizontalStack=0;resizeParent=1;resizeParentMax=0;resizeLast=0;collapsible=1;marginBottom=0;whiteSpace=wrap;html=1;" vertex="1" parent="1">
          <mxGeometry x="-1190" y="-70" width="450" height="90" as="geometry" />
        </mxCell>
        <mxCell id="J3rY2Tb_g5RrnogwVI6O-9" value="PK: NroAlumno, NroTelefono" style="text;strokeColor=none;fillColor=none;align=left;verticalAlign=middle;spacingLeft=4;spacingRight=4;overflow=hidden;points=[[0,0.5],[1,0.5]];portConstraint=eastwest;rotatable=0;whiteSpace=wrap;html=1;" vertex="1" parent="J3rY2Tb_g5RrnogwVI6O-8">
          <mxGeometry y="30" width="450" height="30" as="geometry" />
        </mxCell>
        <mxCell id="J3rY2Tb_g5RrnogwVI6O-10" value="FK: NroAlumno ---&amp;gt; Alumno" style="text;strokeColor=none;fillColor=none;align=left;verticalAlign=middle;spacingLeft=4;spacingRight=4;overflow=hidden;points=[[0,0.5],[1,0.5]];portConstraint=eastwest;rotatable=0;whiteSpace=wrap;html=1;" vertex="1" parent="J3rY2Tb_g5RrnogwVI6O-8">
          <mxGeometry y="60" width="450" height="30" as="geometry" />
        </mxCell>
        <mxCell id="J3rY2Tb_g5RrnogwVI6O-11" value="Intercambio(&lt;u&gt;Numero&lt;/u&gt;, UniversidadOrigen, UniversidadDestino)" style="swimlane;fontStyle=0;childLayout=stackLayout;horizontal=1;startSize=30;horizontalStack=0;resizeParent=1;resizeParentMax=0;resizeLast=0;collapsible=1;marginBottom=0;whiteSpace=wrap;html=1;" vertex="1" parent="1">
          <mxGeometry x="-1190" y="30" width="450" height="60" as="geometry" />
        </mxCell>
        <mxCell id="J3rY2Tb_g5RrnogwVI6O-12" value="PK: Numero" style="text;strokeColor=none;fillColor=none;align=left;verticalAlign=middle;spacingLeft=4;spacingRight=4;overflow=hidden;points=[[0,0.5],[1,0.5]];portConstraint=eastwest;rotatable=0;whiteSpace=wrap;html=1;" vertex="1" parent="1">
          <mxGeometry x="-1190" y="60" width="450" height="30" as="geometry" />
        </mxCell>
        <mxCell id="J3rY2Tb_g5RrnogwVI6O-15" value="Dictado(&lt;u&gt;NumDic, Codigo&lt;/u&gt;, Semestre, FechaInicio)" style="swimlane;fontStyle=0;childLayout=stackLayout;horizontal=1;startSize=30;horizontalStack=0;resizeParent=1;resizeParentMax=0;resizeLast=0;collapsible=1;marginBottom=0;whiteSpace=wrap;html=1;perimeterSpacing=0;strokeWidth=1;" vertex="1" parent="1">
          <mxGeometry x="-1680" y="90" width="450" height="90" as="geometry" />
        </mxCell>
        <mxCell id="J3rY2Tb_g5RrnogwVI6O-16" value="&lt;div style=&quot;text-align: center;&quot;&gt;&lt;span style=&quot;background-color: initial;&quot;&gt;PK: NumDic, Codigo&lt;/span&gt;&lt;/div&gt;" style="text;strokeColor=none;fillColor=none;align=left;verticalAlign=middle;spacingLeft=4;spacingRight=4;overflow=hidden;points=[[0,0.5],[1,0.5]];portConstraint=eastwest;rotatable=0;whiteSpace=wrap;html=1;" vertex="1" parent="J3rY2Tb_g5RrnogwVI6O-15">
          <mxGeometry y="30" width="450" height="30" as="geometry" />
        </mxCell>
        <mxCell id="J3rY2Tb_g5RrnogwVI6O-17" value="&lt;div style=&quot;text-align: center;&quot;&gt;FK: Codigo ---&amp;gt; Curso&lt;/div&gt;" style="text;strokeColor=none;fillColor=none;align=left;verticalAlign=middle;spacingLeft=4;spacingRight=4;overflow=hidden;points=[[0,0.5],[1,0.5]];portConstraint=eastwest;rotatable=0;whiteSpace=wrap;html=1;" vertex="1" parent="J3rY2Tb_g5RrnogwVI6O-15">
          <mxGeometry y="60" width="450" height="30" as="geometry" />
        </mxCell>
        <mxCell id="J3rY2Tb_g5RrnogwVI6O-18" value="Curso(&lt;u&gt;Codigo&lt;/u&gt;, Descripcion)" style="swimlane;fontStyle=0;childLayout=stackLayout;horizontal=1;startSize=30;horizontalStack=0;resizeParent=1;resizeParentMax=0;resizeLast=0;collapsible=1;marginBottom=0;whiteSpace=wrap;html=1;perimeterSpacing=0;strokeWidth=1;" vertex="1" parent="1">
          <mxGeometry x="-1680" y="200" width="450" height="60" as="geometry" />
        </mxCell>
        <mxCell id="J3rY2Tb_g5RrnogwVI6O-19" value="&lt;div style=&quot;text-align: center;&quot;&gt;&lt;span style=&quot;background-color: initial;&quot;&gt;PK: Codigo&lt;/span&gt;&lt;/div&gt;" style="text;strokeColor=none;fillColor=none;align=left;verticalAlign=middle;spacingLeft=4;spacingRight=4;overflow=hidden;points=[[0,0.5],[1,0.5]];portConstraint=eastwest;rotatable=0;whiteSpace=wrap;html=1;" vertex="1" parent="J3rY2Tb_g5RrnogwVI6O-18">
          <mxGeometry y="30" width="450" height="30" as="geometry" />
        </mxCell>
      </root>
    </mxGraphModel>
  </diagram>
</mxfile>
